<svg width="41" height="40" viewBox="0 0 41 40" fill="none" xmlns="http://www.w3.org/2000/svg">
<circle cx="20.7207" cy="20" r="20" fill="#F6FCFF"/>
<path d="M27.2321 12.9443C26.9322 12.9443 26.6882 13.1883 26.6882 13.4881C26.6882 13.788 26.9322 14.032 27.2321 14.032C27.5319 14.032 27.7759 13.788 27.7759 13.4881C27.7759 13.1883 27.5319 12.9443 27.2321 12.9443ZM20.7207 15.1784C18.0624 15.1784 15.8996 17.3412 15.8996 19.9995C15.8996 22.6579 18.0624 24.8206 20.7207 24.8206C23.3791 24.8206 25.5418 22.6579 25.5418 19.9996C25.5418 17.3412 23.3791 15.1784 20.7207 15.1784Z" fill="#329CD7"/>
<path d="M25.7801 8.7998H15.6613C12.2754 8.7998 9.52068 11.5545 9.52068 14.9405V25.0592C9.52068 28.4452 12.2754 31.1998 15.6613 31.1998H25.7801C29.1661 31.1998 31.9207 28.4451 31.9207 25.0592V14.9405C31.9207 11.5545 29.1661 8.7998 25.7801 8.7998ZM20.7207 26.1437C17.3329 26.1437 14.5768 23.3876 14.5768 19.9998C14.5768 16.612 17.3329 13.856 20.7207 13.856C24.1084 13.856 26.8646 16.6121 26.8646 19.9998C26.8646 23.3876 24.1084 26.1437 20.7207 26.1437ZM27.232 15.3551C26.2028 15.3551 25.3654 14.5178 25.3654 13.4885C25.3654 12.4592 26.2028 11.6218 27.232 11.6218C28.2613 11.6218 29.0987 12.4592 29.0987 13.4885C29.0987 14.5177 28.2613 15.3551 27.232 15.3551Z" fill="#329CD7"/>
</svg>
