<svg width="24" height="24" viewBox="0 0 24 24" fill="none" xmlns="http://www.w3.org/2000/svg">
<path d="M11.8594 3C8.07709 3 5 6.07709 5 9.85938C5 11.0701 5.31987 12.2603 5.925 13.3015C6.06673 13.5452 6.22328 13.78 6.39378 14.0046L11.5613 20.9184H12.1574L17.325 14.0046C17.4954 13.78 17.652 13.5452 17.7937 13.3015C18.3989 12.2603 18.7188 11.0701 18.7188 9.85938C18.7188 6.07709 15.6417 3 11.8594 3ZM11.8594 12.1342C10.6051 12.1342 9.58458 11.1137 9.58458 9.85938C9.58458 8.60505 10.6051 7.58458 11.8594 7.58458C13.1137 7.58458 14.1342 8.60505 14.1342 9.85938C14.1342 11.1137 13.1137 12.1342 11.8594 12.1342Z" fill="white"/>
</svg>
