<svg width="18" height="15" viewBox="0 0 18 15" fill="none" xmlns="http://www.w3.org/2000/svg">
<path d="M10.5043 9.51804C10.0565 9.81659 9.53631 9.97441 9 9.97441C8.46373 9.97441 7.94355 9.81659 7.49573 9.51804L0.119848 4.60063C0.0791298 4.57341 0.0391656 4.54507 0 4.51566L0 12.5734C0 13.4972 0.749707 14.2304 1.65702 14.2304H16.3429C17.2668 14.2304 18 13.4807 18 12.5734V4.51562C17.9607 4.54512 17.9207 4.57351 17.8799 4.60077L10.5043 9.51804Z" fill="white"/>
<path d="M0.704884 3.72296L8.08077 8.64041C8.35998 8.82656 8.67997 8.91962 8.99997 8.91962C9.31999 8.91962 9.64002 8.82652 9.91923 8.64041L17.2951 3.72296C17.7365 3.42888 18 2.93669 18 2.40548C18 1.49209 17.2569 0.749023 16.3435 0.749023H1.65646C0.743099 0.749059 8.71912e-07 1.49212 8.71912e-07 2.40636C-0.000272946 2.66694 0.0639503 2.92354 0.186942 3.15327C0.309934 3.38299 0.487872 3.57871 0.704884 3.72296Z" fill="white"/>
</svg>
