<svg width="19" height="19" viewBox="0 0 19 19" fill="none" xmlns="http://www.w3.org/2000/svg">
<path d="M14.6819 12.9032C14.0935 12.3222 13.3588 12.3222 12.774 12.9032C12.328 13.3455 11.8819 13.7878 11.4434 14.2376C11.3234 14.3613 11.2222 14.3875 11.0761 14.3051C10.7874 14.1477 10.4801 14.0202 10.2027 13.8478C8.90953 13.0344 7.82626 11.9886 6.86669 10.8116C6.39066 10.2269 5.96709 9.60094 5.67098 8.89626C5.611 8.75382 5.62225 8.66011 5.73845 8.54392C6.1845 8.11286 6.6193 7.67056 7.05786 7.22826C7.66883 6.61353 7.66883 5.89385 7.05411 5.27538C6.70551 4.92304 6.35692 4.57819 6.00833 4.22585C5.64849 3.86601 5.2924 3.50243 4.92881 3.14634C4.34032 2.57284 3.60565 2.57284 3.02092 3.15008C2.57112 3.59239 2.14006 4.04593 1.68277 4.48074C1.25921 4.88181 1.04555 5.37284 1.00057 5.94633C0.929354 6.87966 1.158 7.76052 1.48036 8.61888C2.14006 10.3956 3.14461 11.9736 4.36281 13.4205C6.00833 15.3771 7.97245 16.9252 10.2702 18.0422C11.3047 18.5444 12.3767 18.9305 13.5424 18.9942C14.3446 19.0392 15.0418 18.8368 15.6003 18.2108C15.9826 17.7835 16.4137 17.3937 16.8185 16.9851C17.4182 16.3779 17.422 15.6432 16.826 15.0435C16.1138 14.3276 15.3979 13.6154 14.6819 12.9032ZM13.966 9.9158L15.3491 9.67966C15.1317 8.40898 14.532 7.25824 13.6212 6.34365C12.6578 5.38033 11.4396 4.77311 10.0977 4.58569L9.90283 5.97632C10.9411 6.1225 11.8857 6.59104 12.6316 7.33696C13.3363 8.04164 13.7973 8.93374 13.966 9.9158ZM16.1288 3.9035C14.532 2.30671 12.5117 1.29842 10.2814 0.987305L10.0865 2.37793C12.0131 2.64781 13.7598 3.52117 15.1392 4.8968C16.4474 6.20496 17.3058 7.85797 17.6169 9.67591L19 9.43976C18.6364 7.33321 17.6431 5.42157 16.1288 3.9035Z" fill="white"/>
</svg>
