<svg width="15" height="11" viewBox="0 0 15 11" fill="none" xmlns="http://www.w3.org/2000/svg">
<path fill-rule="evenodd" clip-rule="evenodd" d="M5.10581 10.5787C4.81271 10.263 4.81271 9.74656 5.10581 9.43084L12.7146 1.23679C13.0077 0.92107 13.4873 0.92107 13.7805 1.23679C14.0736 1.55251 14.0725 2.07017 13.7805 2.38467L6.17171 10.5787C5.87967 10.8933 5.39898 10.8944 5.10581 10.5787Z" fill="white" stroke="white" stroke-width="0.3"/>
<path fill-rule="evenodd" clip-rule="evenodd" d="M6.16659 10.5673C5.87348 10.883 5.39386 10.883 5.10069 10.5673L1.21983 6.38793C0.926724 6.07221 0.926724 5.55569 1.21983 5.24004C1.51299 4.92432 1.99423 4.92606 2.28572 5.24004L6.16659 9.41944C6.45814 9.73335 6.45975 10.2516 6.16659 10.5673Z" fill="white" stroke="white" stroke-width="0.3"/>
</svg>
