<svg width="19" height="20" viewBox="0 0 19 20" fill="none" xmlns="http://www.w3.org/2000/svg">
<path d="M17.3929 4.64286H16.1786V17.0771C16.177 17.6435 15.9513 18.1861 15.5508 18.5866C15.1504 18.987 14.6077 19.2127 14.0414 19.2143H4.93429C4.3722 19.2063 3.83574 18.9778 3.44052 18.5781C3.0453 18.1783 2.82297 17.6393 2.82143 17.0771V4.64286H1.60714C1.44612 4.64286 1.29169 4.57889 1.17783 4.46503C1.06397 4.35117 1 4.19674 1 4.03571C1 3.87469 1.06397 3.72026 1.17783 3.6064C1.29169 3.49254 1.44612 3.42857 1.60714 3.42857H17.3929C17.5539 3.42857 17.7083 3.49254 17.8222 3.6064C17.936 3.72026 18 3.87469 18 4.03571C18 4.19674 17.936 4.35117 17.8222 4.46503C17.7083 4.57889 17.5539 4.64286 17.3929 4.64286ZM4.03572 4.64286V17.0771C4.03572 17.3219 4.13294 17.5566 4.30601 17.7297C4.47908 17.9028 4.71382 18 4.95857 18H14.0657C14.3062 17.9937 14.5348 17.8937 14.7026 17.7213C14.8705 17.5489 14.9644 17.3177 14.9643 17.0771V4.64286H4.03572ZM11.9286 2.21429H7.07143C6.91041 2.21429 6.75597 2.15032 6.64211 2.03646C6.52825 1.9226 6.46429 1.76817 6.46429 1.60714C6.46429 1.44612 6.52825 1.29169 6.64211 1.17783C6.75597 1.06397 6.91041 1 7.07143 1H11.9286C12.0896 1 12.244 1.06397 12.3579 1.17783C12.4717 1.29169 12.5357 1.44612 12.5357 1.60714C12.5357 1.76817 12.4717 1.9226 12.3579 2.03646C12.244 2.15032 12.0896 2.21429 11.9286 2.21429Z" fill="#329CD7" stroke="#329CD7" stroke-width="0.226667"/>
<path d="M11.4213 14C11.2678 14 11.1206 13.9548 11.0121 13.8745C10.9036 13.7941 10.8426 13.6851 10.8426 13.5714V8.42857C10.8426 8.31491 10.9036 8.2059 11.0121 8.12553C11.1206 8.04515 11.2678 8 11.4213 8C11.5748 8 11.722 8.04515 11.8305 8.12553C11.939 8.2059 12 8.31491 12 8.42857V13.5714C12 13.6851 11.939 13.7941 11.8305 13.8745C11.722 13.9548 11.5748 14 11.4213 14ZM7.5787 14C7.42522 14 7.27803 13.9548 7.1695 13.8745C7.06097 13.7941 7 13.6851 7 13.5714V8.42857C7 8.31491 7.06097 8.2059 7.1695 8.12553C7.27803 8.04515 7.42522 8 7.5787 8C7.73219 8 7.87938 8.04515 7.98791 8.12553C8.09644 8.2059 8.15741 8.31491 8.15741 8.42857V13.5714C8.15741 13.6851 8.09644 13.7941 7.98791 13.8745C7.87938 13.9548 7.73219 14 7.5787 14Z" fill="#329CD7" stroke="#329CD7" stroke-width="0.226667"/>
</svg>
