<svg width="20" height="20" viewBox="0 0 20 20" fill="none" xmlns="http://www.w3.org/2000/svg">
<path d="M0.546743 8.69567L0.548109 8.69431L8.70337 0.539362C9.05101 0.191528 9.51317 0 10.0047 0C10.4963 0 10.9585 0.191411 11.3063 0.539206L19.4573 8.69001C19.46 8.69274 19.4628 8.69563 19.4655 8.69841C20.1794 9.41633 20.1781 10.5812 19.462 11.2973C19.1349 11.6247 18.7027 11.8142 18.2407 11.8341C18.222 11.8359 18.203 11.8368 18.184 11.8368H17.8589V17.8384C17.8589 19.026 16.8927 19.9923 15.7048 19.9923H12.5142C12.1908 19.9923 11.9285 19.7301 11.9285 19.4066V14.7014C11.9285 14.1594 11.4876 13.7186 10.9457 13.7186H9.06381C8.52183 13.7186 8.08107 14.1595 8.08107 14.7014V19.4066C8.08107 19.7301 7.81886 19.9923 7.49535 19.9923H4.30475C3.11685 19.9923 2.15058 19.026 2.15058 17.8384V11.8368H1.84917C1.35772 11.8368 0.895554 11.6454 0.547642 11.2977C-0.16927 10.5803 -0.169544 9.41348 0.546743 8.69567Z" fill="#3F5873"/>
</svg>
