<svg width="30" height="30" viewBox="0 0 30 30" fill="none" xmlns="http://www.w3.org/2000/svg">
<g filter="url(#filter0_d_411_1978)">
<circle cx="14" cy="14" r="12" fill="white"/>
<path d="M9.08626 10.0869L8.83831 9.04063C8.81829 8.95662 8.78192 8.87738 8.73127 8.80744C8.68062 8.73749 8.61669 8.6782 8.54313 8.63296C8.46957 8.58772 8.38782 8.55741 8.30255 8.54376C8.21727 8.53012 8.13015 8.5334 8.04614 8.55342C7.96214 8.57345 7.8829 8.60982 7.81295 8.66047C7.743 8.71112 7.68372 8.77505 7.63848 8.84861C7.59324 8.92217 7.56293 9.00392 7.54928 9.08919C7.53563 9.17446 7.53891 9.26159 7.55894 9.3456L8.2135 12.0506C8.25467 12.2189 8.3606 12.3641 8.50825 12.4546C8.65591 12.5451 8.83334 12.5737 9.00196 12.5341L11.7095 11.887C12.5624 11.6787 12.2525 10.3993 11.3995 10.6076L10.0979 10.9225C10.7884 10.0507 11.7229 9.40428 12.7822 9.06551C13.8415 8.72674 14.9776 8.711 16.0459 9.02028C17.1142 9.32957 18.0662 9.94988 18.7806 10.8022C19.4951 11.6545 19.9397 12.7002 20.0577 13.8061C20.1296 14.7036 21.4883 14.5573 21.3643 13.6647C20.985 10.1093 17.9601 7.46124 14.1046 7.49843C11.8434 7.72158 10.1995 8.69351 9.08626 10.0869ZM17.2485 16.5929C16.3608 16.7764 16.6807 18.1128 17.5534 17.8723L18.8551 17.5574C18.1662 18.4323 17.2318 19.0818 16.1717 19.4227C15.1115 19.7635 13.9738 19.7804 12.904 19.471C11.8342 19.1616 10.8811 18.5401 10.1665 17.686C9.45196 16.8318 9.00849 15.7839 8.89286 14.6763C8.88848 14.5869 8.86586 14.4993 8.82639 14.4189C8.78692 14.3385 8.73144 14.2671 8.66336 14.2089C8.59527 14.1508 8.51602 14.1071 8.43046 14.0807C8.3449 14.0543 8.25484 14.0456 8.16582 14.0553C8.0768 14.0649 7.99068 14.0927 7.91277 14.1368C7.83486 14.1809 7.76679 14.2405 7.71274 14.3119C7.65869 14.3833 7.61981 14.465 7.59848 14.552C7.57715 14.6389 7.57382 14.7294 7.58869 14.8177C7.78602 16.6406 8.69804 18.311 10.1249 19.4627C11.5517 20.6144 13.3769 21.1534 15.2005 20.9616C16.1093 20.8638 16.9896 20.5864 17.7902 20.1454C18.5908 19.7045 19.2958 19.1088 19.8643 18.393L20.1172 19.4418C20.2783 20.3591 21.6643 20.0269 21.3916 19.1368L20.7444 16.4293C20.6701 16.1169 20.3825 15.9036 20.0056 15.9334L17.2485 16.5929Z" fill="#329CD7"/>
</g>
<defs>
<filter id="filter0_d_411_1978" x="0" y="0" width="30" height="30" filterUnits="userSpaceOnUse" color-interpolation-filters="sRGB">
<feFlood flood-opacity="0" result="BackgroundImageFix"/>
<feColorMatrix in="SourceAlpha" type="matrix" values="0 0 0 0 0 0 0 0 0 0 0 0 0 0 0 0 0 0 127 0" result="hardAlpha"/>
<feOffset dx="1" dy="1"/>
<feGaussianBlur stdDeviation="1.5"/>
<feComposite in2="hardAlpha" operator="out"/>
<feColorMatrix type="matrix" values="0 0 0 0 0 0 0 0 0 0 0 0 0 0 0 0 0 0 0.15 0"/>
<feBlend mode="normal" in2="BackgroundImageFix" result="effect1_dropShadow_411_1978"/>
<feBlend mode="normal" in="SourceGraphic" in2="effect1_dropShadow_411_1978" result="shape"/>
</filter>
</defs>
</svg>
