<svg width="19" height="19" viewBox="0 0 19 19" fill="none" xmlns="http://www.w3.org/2000/svg">
<path d="M17.3929 3.94017H16.1786V16.5359C16.177 17.1096 15.9513 17.6593 15.5508 18.065C15.1504 18.4706 14.6077 18.6992 14.0414 18.7008H4.93429C4.3722 18.6928 3.83574 18.4613 3.44052 18.0564C3.0453 17.6514 2.82297 17.1054 2.82143 16.5359V3.94017H1.60714C1.44612 3.94017 1.29169 3.87537 1.17783 3.76003C1.06397 3.64469 1 3.48825 1 3.32514C1 3.16202 1.06397 3.00559 1.17783 2.89025C1.29169 2.77491 1.44612 2.71011 1.60714 2.71011H17.3929C17.5539 2.71011 17.7083 2.77491 17.8222 2.89025C17.936 3.00559 18 3.16202 18 3.32514C18 3.48825 17.936 3.64469 17.8222 3.76003C17.7083 3.87537 17.5539 3.94017 17.3929 3.94017ZM4.03572 3.94017V16.5359C4.03572 16.7839 4.13294 17.0217 4.30601 17.197C4.47908 17.3723 4.71382 17.4708 4.95857 17.4708H14.0657C14.3062 17.4644 14.5348 17.363 14.7026 17.1884C14.8705 17.0138 14.9644 16.7797 14.9643 16.5359V3.94017H4.03572ZM11.9286 1.48006H7.07143C6.91041 1.48006 6.75597 1.41526 6.64211 1.29992C6.52825 1.18458 6.46429 1.02814 6.46429 0.865028C6.46429 0.701912 6.52825 0.545478 6.64211 0.430137C6.75597 0.314797 6.91041 0.25 7.07143 0.25H11.9286C12.0896 0.25 12.244 0.314797 12.3579 0.430137C12.4717 0.545478 12.5357 0.701912 12.5357 0.865028C12.5357 1.02814 12.4717 1.18458 12.3579 1.29992C12.244 1.41526 12.0896 1.48006 11.9286 1.48006Z" fill="#329CD7" stroke="#329CD7" stroke-width="0.226667"/>
<path d="M11.4213 13.4178C11.2678 13.4178 11.1206 13.372 11.0121 13.2906C10.9036 13.2092 10.8426 13.0988 10.8426 12.9836V7.77398C10.8426 7.65884 10.9036 7.54842 11.0121 7.467C11.1206 7.38558 11.2678 7.33984 11.4213 7.33984C11.5748 7.33984 11.722 7.38558 11.8305 7.467C11.939 7.54842 12 7.65884 12 7.77398V12.9836C12 13.0988 11.939 13.2092 11.8305 13.2906C11.722 13.372 11.5748 13.4178 11.4213 13.4178ZM7.5787 13.4178C7.42522 13.4178 7.27803 13.372 7.1695 13.2906C7.06097 13.2092 7 13.0988 7 12.9836V7.77398C7 7.65884 7.06097 7.54842 7.1695 7.467C7.27803 7.38558 7.42522 7.33984 7.5787 7.33984C7.73219 7.33984 7.87938 7.38558 7.98791 7.467C8.09644 7.54842 8.15741 7.65884 8.15741 7.77398V12.9836C8.15741 13.0988 8.09644 13.2092 7.98791 13.2906C7.87938 13.372 7.73219 13.4178 7.5787 13.4178Z" fill="#329CD7" stroke="#329CD7" stroke-width="0.226667"/>
</svg>
