<svg width="18" height="22" viewBox="0 0 18 22" fill="none" xmlns="http://www.w3.org/2000/svg">
<path d="M9 0.800781C11.9776 0.800781 14.4 3.21376 14.4 6.17969C14.4 9.14562 11.9776 11.5586 9 11.5586C6.02244 11.5586 3.6 9.14562 3.6 6.17969C3.6 3.21376 6.02244 0.800781 9 0.800781ZM2.28136 15.0726C3.75976 13.5774 5.71964 12.7539 7.8 12.7539H10.2C12.2803 12.7539 14.2402 13.5774 15.7186 15.0726C17.1898 16.5605 18 18.5246 18 20.6031C18 20.9332 17.7314 21.2008 17.4 21.2008H0.6C0.268641 21.2008 0 20.9332 0 20.6031C0 18.5246 0.8102 16.5605 2.28136 15.0726Z" fill="#329CD7"/>
</svg>
