<svg width="24" height="24" viewBox="0 0 24 24" fill="none" xmlns="http://www.w3.org/2000/svg">
<path fill-rule="evenodd" clip-rule="evenodd" d="M11.9948 20.0118V21.1458C11.9948 22.0552 12.448 22.8403 13.2356 23.295C13.6145 23.5137 14.0375 23.6358 14.4759 23.636C14.9148 23.6362 15.3376 23.5139 15.7168 23.295L20.7592 20.3837C21.5469 19.929 22 19.1441 22 18.2346V3.3625C22 1.99404 20.8868 0.880859 19.5184 0.880859H8.41322C7.04471 0.880859 5.9314 1.99395 5.9314 3.3625V6.4975C5.9314 6.94722 6.29655 7.31237 6.74627 7.31237C7.19613 7.31237 7.56097 6.94727 7.56097 6.4975V3.3625C7.56097 2.8926 7.94332 2.51025 8.41322 2.51025H18.1442L13.2356 5.34472C12.4483 5.79938 11.9948 6.58425 11.9948 7.49343V18.3822H8.41322C7.94336 18.3822 7.56097 18.0001 7.56097 17.5302V14.7819C7.56097 14.3319 7.19635 13.9671 6.74627 13.9671C6.29637 13.9671 5.9314 14.332 5.9314 14.7819V17.5302C5.9314 18.8987 7.04471 20.0118 8.41322 20.0118H11.9948ZM4.44459 11.261L5.34195 12.1584C5.66012 12.4765 5.66003 12.9923 5.34195 13.3106C5.26635 13.3863 5.17653 13.4463 5.07767 13.4872C4.9788 13.5281 4.87282 13.5491 4.76583 13.549C4.65879 13.5492 4.55276 13.5282 4.45385 13.4873C4.35494 13.4464 4.26509 13.3863 4.18948 13.3106L1.90158 11.0222C1.58349 10.7041 1.58345 10.1886 1.90158 9.87045L4.18948 7.5825C4.5077 7.26428 5.02355 7.26442 5.3419 7.58245C5.65998 7.90031 5.6599 8.41635 5.3419 8.7343L4.44459 9.63143H10.456C10.9062 9.63143 11.2707 9.99622 11.2707 10.4463C11.2707 10.8965 10.9061 11.261 10.456 11.261H4.44459V11.261Z" fill="#329CD7"/>
</svg>
