<svg width="26" height="35" viewBox="0 0 26 35" fill="none" xmlns="http://www.w3.org/2000/svg">
<rect x="4" y="5" width="17" height="17" fill="white"/>
<path d="M12.7558 0.5C19.7829 0.5 25.5 6.21707 25.5 13.2442C25.5 16.7742 23.4604 21.3654 19.4378 26.8903C16.4954 30.9316 13.5996 33.935 13.4778 34.0609L12.7558 34.8068L12.0339 34.0609C11.912 33.935 9.01629 30.9316 6.07386 26.8903C2.0513 21.3654 0.0116825 16.7742 0.0116825 13.2442C0.011549 6.21707 5.72855 0.5 12.7558 0.5ZM12.7775 6.17748C10.8093 6.17748 9.20793 7.77882 9.20793 9.74709C9.20793 11.7154 10.8093 13.3167 12.7775 13.3167C14.7458 13.3167 16.3472 11.7154 16.3472 9.74709C16.3472 7.77882 14.7459 6.17748 12.7775 6.17748ZM6.64316 20.8469H18.912V18.6026C18.912 15.6928 16.5447 13.3255 13.6349 13.3255H11.9203C9.01046 13.3255 6.64316 15.6928 6.64316 18.6026V20.8469Z" fill="#1289CC"/>
<path d="M12.7777 11.3076C11.9175 11.3076 11.2176 10.6078 11.2176 9.74757C11.2176 8.88735 11.9175 8.1875 12.7777 8.1875C13.6379 8.1875 14.3377 8.88735 14.3377 9.74757C14.3377 10.6079 13.638 11.3076 12.7777 11.3076ZM11.9204 15.3355H13.635C15.4368 15.3355 16.9026 16.8013 16.9026 18.6031V18.8379H8.65283V18.6031C8.65283 16.8014 10.1187 15.3355 11.9204 15.3355Z" fill="#329CD7"/>
</svg>
