<svg width="26" height="35" viewBox="0 0 26 35" fill="none" xmlns="http://www.w3.org/2000/svg">
<path d="M13.2442 0.5C6.21707 0.5 0.5 6.21707 0.5 13.2442C0.5 16.7742 2.53961 21.3654 6.56217 26.8903C9.50461 30.9316 12.4004 33.935 12.5222 34.0609L13.2442 34.8068L13.9661 34.0609C14.088 33.935 16.9837 30.9316 19.9261 26.8903C23.9487 21.3654 25.9883 16.7742 25.9883 13.2442C25.9885 6.21707 20.2714 0.5 13.2442 0.5ZM13.2225 6.17748C15.1907 6.17748 16.7921 7.77882 16.7921 9.74709C16.7921 11.7154 15.1907 13.3167 13.2225 13.3167C11.2542 13.3167 9.65284 11.7154 9.65284 9.74709C9.65284 7.77882 11.2541 6.17748 13.2225 6.17748ZM19.3568 20.8469H7.088V18.6026C7.088 15.6928 9.45531 13.3255 12.3651 13.3255H14.0797C16.9895 13.3255 19.3568 15.6928 19.3568 18.6026V20.8469Z" fill="#1289CC"/>
</svg>
