<svg width="176" height="208" viewBox="0 0 176 208" fill="none" xmlns="http://www.w3.org/2000/svg">
<path d="M66.8901 71.8113C66.6409 70.5651 66.5163 69.319 66.5163 68.0105C66.5163 56.1097 76.2363 46.3274 88.2617 46.3274C89.3832 46.3274 90.5048 46.3897 91.564 46.639L112.624 25.1428C105.334 21.2797 97.0471 19.1613 88.2617 19.1613C58.9771 19.1613 35.1132 42.9005 35.1132 72.1851C35.1132 79.2259 38.0417 87.6997 42.5278 96.6097L66.8901 71.8113ZM150.881 12.3074C148.513 9.93973 144.65 10.002 142.345 12.3697C-13.2625 170.781 169.492 -15.7747 25.0817 131.876C22.714 134.244 22.7763 138.044 25.144 140.412C27.6363 142.78 31.5617 142.58 33.6178 140.287L55.5501 117.919C63.0894 128.885 71.4386 139.104 77.9809 146.705C79.245 148.189 80.8161 149.381 82.5857 150.198C84.3554 151.015 86.2813 151.438 88.2305 151.438C90.1797 151.438 92.1057 151.015 93.8753 150.198C95.645 149.381 97.2161 148.189 98.4801 146.705C114.431 128.137 141.223 93.6813 141.223 72.1851C141.223 60.5336 137.485 49.7543 131.067 41.0313L150.943 20.7813C153.249 18.4136 153.249 14.6128 150.881 12.3074ZM109.882 68.0105C109.882 73.7504 107.607 79.2562 103.554 83.3208C99.5008 87.3853 94.0016 89.6771 88.2617 89.6936C86.704 89.6936 85.2086 89.5067 83.7132 89.2574L109.322 63.1505C109.696 64.7082 109.882 66.3282 109.882 68.0105Z" fill="#BCE2F7"/>
<path d="M2.34648 200C2.19982 200 2.08648 199.96 2.00648 199.88C1.92648 199.787 1.88648 199.673 1.88648 199.54V186.48C1.88648 186.333 1.92648 186.22 2.00648 186.14C2.08648 186.047 2.19982 186 2.34648 186H3.26648C3.42648 186 3.54648 186.04 3.62648 186.12C3.70648 186.187 3.75315 186.24 3.76648 186.28L10.4065 196.48V186.48C10.4065 186.333 10.4465 186.22 10.5265 186.14C10.6065 186.047 10.7198 186 10.8665 186H11.8265C11.9732 186 12.0865 186.047 12.1665 186.14C12.2598 186.22 12.3065 186.333 12.3065 186.48V199.52C12.3065 199.653 12.2598 199.767 12.1665 199.86C12.0865 199.953 11.9798 200 11.8465 200H10.8865C10.7398 200 10.6265 199.96 10.5465 199.88C10.4798 199.8 10.4332 199.747 10.4065 199.72L3.78648 189.62V199.54C3.78648 199.673 3.73982 199.787 3.64648 199.88C3.56648 199.96 3.45315 200 3.30648 200H2.34648ZM20.1732 200.2C19.1599 200.2 18.3132 200.007 17.6332 199.62C16.9532 199.233 16.4332 198.7 16.0732 198.02C15.7132 197.327 15.5132 196.54 15.4732 195.66C15.4599 195.433 15.4532 195.147 15.4532 194.8C15.4532 194.44 15.4599 194.153 15.4732 193.94C15.5132 193.047 15.7132 192.26 16.0732 191.58C16.4465 190.9 16.9732 190.367 17.6532 189.98C18.3332 189.593 19.1732 189.4 20.1732 189.4C21.1732 189.4 22.0132 189.593 22.6932 189.98C23.3732 190.367 23.8932 190.9 24.2532 191.58C24.6265 192.26 24.8332 193.047 24.8732 193.94C24.8865 194.153 24.8932 194.44 24.8932 194.8C24.8932 195.147 24.8865 195.433 24.8732 195.66C24.8332 196.54 24.6332 197.327 24.2732 198.02C23.9132 198.7 23.3932 199.233 22.7132 199.62C22.0332 200.007 21.1865 200.2 20.1732 200.2ZM20.1732 198.66C20.9999 198.66 21.6599 198.4 22.1532 197.88C22.6465 197.347 22.9132 196.573 22.9532 195.56C22.9665 195.36 22.9732 195.107 22.9732 194.8C22.9732 194.493 22.9665 194.24 22.9532 194.04C22.9132 193.027 22.6465 192.26 22.1532 191.74C21.6599 191.207 20.9999 190.94 20.1732 190.94C19.3465 190.94 18.6799 191.207 18.1732 191.74C17.6799 192.26 17.4199 193.027 17.3932 194.04C17.3799 194.24 17.3732 194.493 17.3732 194.8C17.3732 195.107 17.3799 195.36 17.3932 195.56C17.4199 196.573 17.6799 197.347 18.1732 197.88C18.6799 198.4 19.3465 198.66 20.1732 198.66ZM31.8926 200C31.7859 200 31.6926 199.96 31.6126 199.88C31.5326 199.8 31.4926 199.707 31.4926 199.6C31.4926 199.533 31.4992 199.46 31.5126 199.38L36.4726 186.44C36.5259 186.307 36.5992 186.2 36.6926 186.12C36.7859 186.04 36.9259 186 37.1126 186H38.4726C38.6459 186 38.7792 186.04 38.8726 186.12C38.9792 186.2 39.0592 186.307 39.1126 186.44L44.0526 199.38C44.0792 199.46 44.0926 199.533 44.0926 199.6C44.0926 199.707 44.0526 199.8 43.9726 199.88C43.8926 199.96 43.7992 200 43.6926 200H42.6726C42.5126 200 42.3926 199.96 42.3126 199.88C42.2459 199.8 42.1992 199.727 42.1726 199.66L41.0726 196.82H34.5126L33.4126 199.66C33.3992 199.727 33.3526 199.8 33.2726 199.88C33.1926 199.96 33.0726 200 32.9126 200H31.8926ZM35.0926 195.1H40.4926L37.7926 188L35.0926 195.1ZM50.0538 200.2C49.3205 200.2 48.6872 200.073 48.1538 199.82C47.6205 199.553 47.1805 199.2 46.8338 198.76C46.5005 198.307 46.2472 197.793 46.0738 197.22C45.9138 196.647 45.8205 196.04 45.7938 195.4C45.7805 195.187 45.7738 194.987 45.7738 194.8C45.7738 194.613 45.7805 194.413 45.7938 194.2C45.8205 193.573 45.9138 192.973 46.0738 192.4C46.2472 191.827 46.5005 191.313 46.8338 190.86C47.1805 190.407 47.6205 190.053 48.1538 189.8C48.6872 189.533 49.3205 189.4 50.0538 189.4C50.8405 189.4 51.4938 189.54 52.0138 189.82C52.5338 190.1 52.9605 190.447 53.2938 190.86V186.26C53.2938 186.127 53.3338 186.02 53.4138 185.94C53.5072 185.847 53.6205 185.8 53.7538 185.8H54.7138C54.8472 185.8 54.9538 185.847 55.0338 185.94C55.1272 186.02 55.1738 186.127 55.1738 186.26V199.54C55.1738 199.673 55.1272 199.787 55.0338 199.88C54.9538 199.96 54.8472 200 54.7138 200H53.8138C53.6672 200 53.5538 199.96 53.4738 199.88C53.3938 199.787 53.3538 199.673 53.3538 199.54V198.7C53.0205 199.127 52.5872 199.487 52.0538 199.78C51.5205 200.06 50.8538 200.2 50.0538 200.2ZM50.4738 198.58C51.1405 198.58 51.6738 198.427 52.0738 198.12C52.4738 197.813 52.7738 197.427 52.9738 196.96C53.1738 196.48 53.2805 195.993 53.2938 195.5C53.3072 195.287 53.3138 195.033 53.3138 194.74C53.3138 194.433 53.3072 194.173 53.2938 193.96C53.2805 193.493 53.1672 193.033 52.9538 192.58C52.7538 192.127 52.4472 191.753 52.0338 191.46C51.6338 191.167 51.1138 191.02 50.4738 191.02C49.7938 191.02 49.2538 191.173 48.8538 191.48C48.4538 191.773 48.1672 192.167 47.9938 192.66C47.8205 193.14 47.7205 193.66 47.6938 194.22C47.6805 194.607 47.6805 194.993 47.6938 195.38C47.7205 195.94 47.8205 196.467 47.9938 196.96C48.1672 197.44 48.4538 197.833 48.8538 198.14C49.2538 198.433 49.7938 198.58 50.4738 198.58ZM62.3484 200.2C61.615 200.2 60.9817 200.073 60.4484 199.82C59.915 199.553 59.475 199.2 59.1284 198.76C58.795 198.307 58.5417 197.793 58.3684 197.22C58.2084 196.647 58.115 196.04 58.0884 195.4C58.075 195.187 58.0684 194.987 58.0684 194.8C58.0684 194.613 58.075 194.413 58.0884 194.2C58.115 193.573 58.2084 192.973 58.3684 192.4C58.5417 191.827 58.795 191.313 59.1284 190.86C59.475 190.407 59.915 190.053 60.4484 189.8C60.9817 189.533 61.615 189.4 62.3484 189.4C63.135 189.4 63.7884 189.54 64.3084 189.82C64.8284 190.1 65.255 190.447 65.5884 190.86V186.26C65.5884 186.127 65.6284 186.02 65.7084 185.94C65.8017 185.847 65.915 185.8 66.0484 185.8H67.0084C67.1417 185.8 67.2484 185.847 67.3284 185.94C67.4217 186.02 67.4684 186.127 67.4684 186.26V199.54C67.4684 199.673 67.4217 199.787 67.3284 199.88C67.2484 199.96 67.1417 200 67.0084 200H66.1084C65.9617 200 65.8484 199.96 65.7684 199.88C65.6884 199.787 65.6484 199.673 65.6484 199.54V198.7C65.315 199.127 64.8817 199.487 64.3484 199.78C63.815 200.06 63.1484 200.2 62.3484 200.2ZM62.7684 198.58C63.435 198.58 63.9684 198.427 64.3684 198.12C64.7684 197.813 65.0684 197.427 65.2684 196.96C65.4684 196.48 65.575 195.993 65.5884 195.5C65.6017 195.287 65.6084 195.033 65.6084 194.74C65.6084 194.433 65.6017 194.173 65.5884 193.96C65.575 193.493 65.4617 193.033 65.2484 192.58C65.0484 192.127 64.7417 191.753 64.3284 191.46C63.9284 191.167 63.4084 191.02 62.7684 191.02C62.0884 191.02 61.5484 191.173 61.1484 191.48C60.7484 191.773 60.4617 192.167 60.2884 192.66C60.115 193.14 60.015 193.66 59.9884 194.22C59.975 194.607 59.975 194.993 59.9884 195.38C60.015 195.94 60.115 196.467 60.2884 196.96C60.4617 197.44 60.7484 197.833 61.1484 198.14C61.5484 198.433 62.0884 198.58 62.7684 198.58ZM71.3029 200C71.1696 200 71.0562 199.96 70.9629 199.88C70.8829 199.787 70.8429 199.673 70.8429 199.54V190.08C70.8429 189.947 70.8829 189.833 70.9629 189.74C71.0562 189.647 71.1696 189.6 71.3029 189.6H72.2229C72.3562 189.6 72.4696 189.647 72.5629 189.74C72.6562 189.833 72.7029 189.947 72.7029 190.08V190.96C72.9696 190.507 73.3362 190.167 73.8029 189.94C74.2696 189.713 74.8296 189.6 75.4829 189.6H76.2829C76.4162 189.6 76.5229 189.647 76.6029 189.74C76.6829 189.82 76.7229 189.927 76.7229 190.06V190.88C76.7229 191.013 76.6829 191.12 76.6029 191.2C76.5229 191.28 76.4162 191.32 76.2829 191.32H75.0829C74.3629 191.32 73.7962 191.533 73.3829 191.96C72.9696 192.373 72.7629 192.94 72.7629 193.66V199.54C72.7629 199.673 72.7162 199.787 72.6229 199.88C72.5296 199.96 72.4162 200 72.2829 200H71.3029ZM82.7852 200.2C81.4119 200.2 80.3186 199.78 79.5052 198.94C78.6919 198.087 78.2452 196.927 78.1652 195.46C78.1519 195.287 78.1452 195.067 78.1452 194.8C78.1452 194.52 78.1519 194.293 78.1652 194.12C78.2186 193.173 78.4386 192.347 78.8252 191.64C79.2119 190.92 79.7386 190.367 80.4052 189.98C81.0852 189.593 81.8786 189.4 82.7852 189.4C83.7986 189.4 84.6452 189.613 85.3252 190.04C86.0186 190.467 86.5452 191.073 86.9052 191.86C87.2652 192.647 87.4452 193.567 87.4452 194.62V194.96C87.4452 195.107 87.3986 195.22 87.3052 195.3C87.2252 195.38 87.1186 195.42 86.9852 195.42H80.0652C80.0652 195.433 80.0652 195.46 80.0652 195.5C80.0652 195.54 80.0652 195.573 80.0652 195.6C80.0919 196.147 80.2119 196.66 80.4252 197.14C80.6386 197.607 80.9452 197.987 81.3452 198.28C81.7452 198.573 82.2252 198.72 82.7852 198.72C83.2652 198.72 83.6652 198.647 83.9852 198.5C84.3052 198.353 84.5652 198.193 84.7652 198.02C84.9652 197.833 85.0986 197.693 85.1652 197.6C85.2852 197.427 85.3786 197.327 85.4452 197.3C85.5119 197.26 85.6186 197.24 85.7652 197.24H86.7252C86.8586 197.24 86.9652 197.28 87.0452 197.36C87.1386 197.427 87.1786 197.527 87.1652 197.66C87.1519 197.86 87.0452 198.107 86.8452 198.4C86.6452 198.68 86.3586 198.96 85.9852 199.24C85.6119 199.52 85.1586 199.753 84.6252 199.94C84.0919 200.113 83.4786 200.2 82.7852 200.2ZM80.0652 194.04H85.5452V193.98C85.5452 193.38 85.4319 192.847 85.2052 192.38C84.9919 191.913 84.6786 191.547 84.2652 191.28C83.8519 191 83.3586 190.86 82.7852 190.86C82.2119 190.86 81.7186 191 81.3052 191.28C80.9052 191.547 80.5986 191.913 80.3852 192.38C80.1719 192.847 80.0652 193.38 80.0652 193.98V194.04ZM93.8366 200.2C93.09 200.2 92.45 200.107 91.9166 199.92C91.3833 199.733 90.95 199.507 90.6166 199.24C90.2833 198.973 90.03 198.707 89.8566 198.44C89.6966 198.173 89.61 197.96 89.5966 197.8C89.5833 197.653 89.63 197.54 89.7366 197.46C89.8433 197.38 89.95 197.34 90.0566 197.34H90.9366C91.0166 197.34 91.0766 197.353 91.1166 197.38C91.17 197.393 91.2366 197.447 91.3166 197.54C91.49 197.727 91.6833 197.913 91.8966 198.1C92.11 198.287 92.37 198.44 92.6766 198.56C92.9966 198.68 93.39 198.74 93.8566 198.74C94.5366 198.74 95.0966 198.613 95.5366 198.36C95.9766 198.093 96.1966 197.707 96.1966 197.2C96.1966 196.867 96.1033 196.6 95.9166 196.4C95.7433 196.2 95.4233 196.02 94.9566 195.86C94.5033 195.7 93.8766 195.533 93.0766 195.36C92.2766 195.173 91.6433 194.947 91.1766 194.68C90.71 194.4 90.3766 194.073 90.1766 193.7C89.9766 193.313 89.8766 192.88 89.8766 192.4C89.8766 191.907 90.0233 191.433 90.3166 190.98C90.61 190.513 91.0366 190.133 91.5966 189.84C92.17 189.547 92.8833 189.4 93.7366 189.4C94.43 189.4 95.0233 189.487 95.5166 189.66C96.01 189.833 96.4166 190.053 96.7366 190.32C97.0566 190.573 97.2966 190.827 97.4566 191.08C97.6166 191.333 97.7033 191.547 97.7166 191.72C97.73 191.853 97.69 191.967 97.5966 192.06C97.5033 192.14 97.3966 192.18 97.2766 192.18H96.4366C96.3433 192.18 96.2633 192.16 96.1966 192.12C96.1433 192.08 96.09 192.033 96.0366 191.98C95.9033 191.807 95.7433 191.633 95.5566 191.46C95.3833 191.287 95.15 191.147 94.8566 191.04C94.5766 190.92 94.2033 190.86 93.7366 190.86C93.07 190.86 92.57 191 92.2366 191.28C91.9033 191.56 91.7366 191.913 91.7366 192.34C91.7366 192.593 91.81 192.82 91.9566 193.02C92.1033 193.22 92.3833 193.4 92.7966 193.56C93.21 193.72 93.8233 193.893 94.6366 194.08C95.5166 194.253 96.21 194.487 96.7166 194.78C97.2233 195.073 97.5833 195.413 97.7966 195.8C98.01 196.187 98.1166 196.633 98.1166 197.14C98.1166 197.7 97.95 198.213 97.6166 198.68C97.2966 199.147 96.8166 199.52 96.1766 199.8C95.55 200.067 94.77 200.2 93.8366 200.2ZM104.432 200.2C103.685 200.2 103.045 200.107 102.512 199.92C101.979 199.733 101.545 199.507 101.212 199.24C100.879 198.973 100.625 198.707 100.452 198.44C100.292 198.173 100.205 197.96 100.192 197.8C100.179 197.653 100.225 197.54 100.332 197.46C100.439 197.38 100.545 197.34 100.652 197.34H101.532C101.612 197.34 101.672 197.353 101.712 197.38C101.765 197.393 101.832 197.447 101.912 197.54C102.085 197.727 102.279 197.913 102.492 198.1C102.705 198.287 102.965 198.44 103.272 198.56C103.592 198.68 103.985 198.74 104.452 198.74C105.132 198.74 105.692 198.613 106.132 198.36C106.572 198.093 106.792 197.707 106.792 197.2C106.792 196.867 106.699 196.6 106.512 196.4C106.339 196.2 106.019 196.02 105.552 195.86C105.099 195.7 104.472 195.533 103.672 195.36C102.872 195.173 102.239 194.947 101.772 194.68C101.305 194.4 100.972 194.073 100.772 193.7C100.572 193.313 100.472 192.88 100.472 192.4C100.472 191.907 100.619 191.433 100.912 190.98C101.205 190.513 101.632 190.133 102.192 189.84C102.765 189.547 103.479 189.4 104.332 189.4C105.025 189.4 105.619 189.487 106.112 189.66C106.605 189.833 107.012 190.053 107.332 190.32C107.652 190.573 107.892 190.827 108.052 191.08C108.212 191.333 108.299 191.547 108.312 191.72C108.325 191.853 108.285 191.967 108.192 192.06C108.099 192.14 107.992 192.18 107.872 192.18H107.032C106.939 192.18 106.859 192.16 106.792 192.12C106.739 192.08 106.685 192.033 106.632 191.98C106.499 191.807 106.339 191.633 106.152 191.46C105.979 191.287 105.745 191.147 105.452 191.04C105.172 190.92 104.799 190.86 104.332 190.86C103.665 190.86 103.165 191 102.832 191.28C102.499 191.56 102.332 191.913 102.332 192.34C102.332 192.593 102.405 192.82 102.552 193.02C102.699 193.22 102.979 193.4 103.392 193.56C103.805 193.72 104.419 193.893 105.232 194.08C106.112 194.253 106.805 194.487 107.312 194.78C107.819 195.073 108.179 195.413 108.392 195.8C108.605 196.187 108.712 196.633 108.712 197.14C108.712 197.7 108.545 198.213 108.212 198.68C107.892 199.147 107.412 199.52 106.772 199.8C106.145 200.067 105.365 200.2 104.432 200.2ZM117.45 200C117.303 200 117.19 199.96 117.11 199.88C117.03 199.787 116.99 199.673 116.99 199.54V186.48C116.99 186.333 117.03 186.22 117.11 186.14C117.19 186.047 117.303 186 117.45 186H125.61C125.756 186 125.87 186.047 125.95 186.14C126.03 186.22 126.07 186.333 126.07 186.48V187.28C126.07 187.427 126.03 187.54 125.95 187.62C125.87 187.7 125.756 187.74 125.61 187.74H118.93V192.4H125.21C125.356 192.4 125.47 192.447 125.55 192.54C125.63 192.62 125.67 192.733 125.67 192.88V193.68C125.67 193.813 125.63 193.927 125.55 194.02C125.47 194.1 125.356 194.14 125.21 194.14H118.93V199.54C118.93 199.673 118.883 199.787 118.79 199.88C118.71 199.96 118.596 200 118.45 200H117.45ZM132.854 200.2C131.841 200.2 130.994 200.007 130.314 199.62C129.634 199.233 129.114 198.7 128.754 198.02C128.394 197.327 128.194 196.54 128.154 195.66C128.141 195.433 128.134 195.147 128.134 194.8C128.134 194.44 128.141 194.153 128.154 193.94C128.194 193.047 128.394 192.26 128.754 191.58C129.128 190.9 129.654 190.367 130.334 189.98C131.014 189.593 131.854 189.4 132.854 189.4C133.854 189.4 134.694 189.593 135.374 189.98C136.054 190.367 136.574 190.9 136.934 191.58C137.308 192.26 137.514 193.047 137.554 193.94C137.568 194.153 137.574 194.44 137.574 194.8C137.574 195.147 137.568 195.433 137.554 195.66C137.514 196.54 137.314 197.327 136.954 198.02C136.594 198.7 136.074 199.233 135.394 199.62C134.714 200.007 133.868 200.2 132.854 200.2ZM132.854 198.66C133.681 198.66 134.341 198.4 134.834 197.88C135.328 197.347 135.594 196.573 135.634 195.56C135.648 195.36 135.654 195.107 135.654 194.8C135.654 194.493 135.648 194.24 135.634 194.04C135.594 193.027 135.328 192.26 134.834 191.74C134.341 191.207 133.681 190.94 132.854 190.94C132.028 190.94 131.361 191.207 130.854 191.74C130.361 192.26 130.101 193.027 130.074 194.04C130.061 194.24 130.054 194.493 130.054 194.8C130.054 195.107 130.061 195.36 130.074 195.56C130.101 196.573 130.361 197.347 130.854 197.88C131.361 198.4 132.028 198.66 132.854 198.66ZM144.359 200.2C143.505 200.2 142.779 200.013 142.179 199.64C141.592 199.253 141.145 198.72 140.839 198.04C140.532 197.36 140.379 196.58 140.379 195.7V190.06C140.379 189.927 140.419 189.82 140.499 189.74C140.592 189.647 140.705 189.6 140.839 189.6H141.839C141.972 189.6 142.079 189.647 142.159 189.74C142.252 189.82 142.299 189.927 142.299 190.06V195.6C142.299 197.587 143.165 198.58 144.899 198.58C145.725 198.58 146.385 198.32 146.879 197.8C147.385 197.267 147.639 196.533 147.639 195.6V190.06C147.639 189.927 147.679 189.82 147.759 189.74C147.852 189.647 147.965 189.6 148.099 189.6H149.079C149.225 189.6 149.339 189.647 149.419 189.74C149.499 189.82 149.539 189.927 149.539 190.06V199.54C149.539 199.673 149.499 199.787 149.419 199.88C149.339 199.96 149.225 200 149.079 200H148.159C148.025 200 147.912 199.96 147.819 199.88C147.739 199.787 147.699 199.673 147.699 199.54V198.66C147.339 199.127 146.899 199.5 146.379 199.78C145.872 200.06 145.199 200.2 144.359 200.2ZM153.37 200C153.237 200 153.123 199.96 153.03 199.88C152.95 199.787 152.91 199.673 152.91 199.54V190.06C152.91 189.927 152.95 189.82 153.03 189.74C153.123 189.647 153.237 189.6 153.37 189.6H154.31C154.443 189.6 154.55 189.647 154.63 189.74C154.723 189.82 154.77 189.927 154.77 190.06V190.94C155.117 190.487 155.55 190.12 156.07 189.84C156.603 189.547 157.283 189.4 158.11 189.4C158.977 189.4 159.71 189.593 160.31 189.98C160.923 190.353 161.383 190.88 161.69 191.56C161.997 192.227 162.15 193.007 162.15 193.9V199.54C162.15 199.673 162.11 199.787 162.03 199.88C161.95 199.96 161.843 200 161.71 200H160.71C160.577 200 160.463 199.96 160.37 199.88C160.29 199.787 160.25 199.673 160.25 199.54V194C160.25 193.067 160.023 192.34 159.57 191.82C159.117 191.287 158.45 191.02 157.57 191.02C156.743 191.02 156.077 191.287 155.57 191.82C155.077 192.34 154.83 193.067 154.83 194V199.54C154.83 199.673 154.783 199.787 154.69 199.88C154.61 199.96 154.503 200 154.37 200H153.37ZM169.239 200.2C168.506 200.2 167.872 200.073 167.339 199.82C166.806 199.553 166.366 199.2 166.019 198.76C165.686 198.307 165.432 197.793 165.259 197.22C165.099 196.647 165.006 196.04 164.979 195.4C164.966 195.187 164.959 194.987 164.959 194.8C164.959 194.613 164.966 194.413 164.979 194.2C165.006 193.573 165.099 192.973 165.259 192.4C165.432 191.827 165.686 191.313 166.019 190.86C166.366 190.407 166.806 190.053 167.339 189.8C167.872 189.533 168.506 189.4 169.239 189.4C170.026 189.4 170.679 189.54 171.199 189.82C171.719 190.1 172.146 190.447 172.479 190.86V186.26C172.479 186.127 172.519 186.02 172.599 185.94C172.692 185.847 172.806 185.8 172.939 185.8H173.899C174.032 185.8 174.139 185.847 174.219 185.94C174.312 186.02 174.359 186.127 174.359 186.26V199.54C174.359 199.673 174.312 199.787 174.219 199.88C174.139 199.96 174.032 200 173.899 200H172.999C172.852 200 172.739 199.96 172.659 199.88C172.579 199.787 172.539 199.673 172.539 199.54V198.7C172.206 199.127 171.772 199.487 171.239 199.78C170.706 200.06 170.039 200.2 169.239 200.2ZM169.659 198.58C170.326 198.58 170.859 198.427 171.259 198.12C171.659 197.813 171.959 197.427 172.159 196.96C172.359 196.48 172.466 195.993 172.479 195.5C172.492 195.287 172.499 195.033 172.499 194.74C172.499 194.433 172.492 194.173 172.479 193.96C172.466 193.493 172.352 193.033 172.139 192.58C171.939 192.127 171.632 191.753 171.219 191.46C170.819 191.167 170.299 191.02 169.659 191.02C168.979 191.02 168.439 191.173 168.039 191.48C167.639 191.773 167.352 192.167 167.179 192.66C167.006 193.14 166.906 193.66 166.879 194.22C166.866 194.607 166.866 194.993 166.879 195.38C166.906 195.94 167.006 196.467 167.179 196.96C167.352 197.44 167.639 197.833 168.039 198.14C168.439 198.433 168.979 198.58 169.659 198.58Z" fill="#9EA5AB"/>
</svg>
