<svg width="21" height="23" viewBox="0 0 21 23" fill="none" xmlns="http://www.w3.org/2000/svg">
<path fill-rule="evenodd" clip-rule="evenodd" d="M13.2761 10.3545L13.3271 13.484H10.0212C9.32074 13.484 8.74868 14.0512 8.74868 14.7456V16.0072H8.76189V20.9411C8.76189 21.6355 9.33396 22.2026 10.0344 22.2026H11.3069V16.3703C11.3069 15.8181 11.5165 16.009 12.1471 16.009H14.9904V16.0015H16.6217C17.6752 16.0015 18.5361 15.148 18.5361 14.1036V7.52067C18.5361 6.45939 17.6601 5.5909 16.5896 5.5909H15.6267C13.6216 5.5909 13.9407 6.95915 13.0533 7.82015C12.1773 8.66992 12.3982 8.76725 11.2012 8.76725H8.62218C6.48685 8.76725 7.63476 10.8243 8.89972 10.7607H11.2635C12.317 10.7607 12.4057 10.9272 13.2761 10.3545ZM6.56048 10.7719C6.86823 10.7719 7.11744 10.5248 7.11744 10.2197C7.11744 9.91463 6.86823 9.66756 6.56048 9.66756H2.97516L1.05507 5.79305C0.921017 5.51978 0.58684 5.40747 0.311192 5.54036C0.0355434 5.67326 -0.0777378 6.00456 0.0563107 6.27596L2.10857 10.4163C2.18787 10.624 2.39177 10.7719 2.62966 10.7719H6.56048ZM11.5429 11.1668H0.741655C0.679352 11.1668 0.628376 11.2192 0.628376 11.2791V12.887C0.628376 12.9469 0.68124 12.9993 0.741655 12.9993H1.25142V22.8521C1.25142 22.9345 1.31939 23 1.40057 23H2.68252C2.7656 23 2.83167 22.9326 2.83167 22.8521V12.9993H11.5429C11.6033 12.9993 11.6562 12.9487 11.6562 12.887V11.2791C11.6562 11.2174 11.6052 11.1668 11.5429 11.1668ZM19.954 21.0234C19.9445 20.9467 19.9087 20.8718 19.8501 20.8119C19.4102 20.3721 18.8533 20.0127 18.217 19.7675C17.7714 19.5953 17.29 19.4792 16.784 19.4287L16.8803 17.9257H20.3316C20.6903 17.9257 20.9867 17.6337 20.9867 17.2762C20.9867 14.5903 20.3486 12.5706 20.9867 9.51221C21.1755 8.60628 19.2894 8.47526 19.2894 9.56087V16.4433H12.7607C12.4001 16.4433 12.1074 16.9187 12.1074 17.2762V17.7816C12.1074 17.8602 12.1735 17.9238 12.2509 17.9238H15.7154L15.8495 19.4119C15.3133 19.4474 14.7997 19.556 14.3277 19.7263C13.7198 19.9453 13.1817 20.2691 12.7418 20.6659C12.6361 20.7614 12.5983 20.9018 12.6323 21.0309C12.4624 21.1563 12.3529 21.3566 12.3529 21.5831C12.3529 21.9649 12.6644 22.2738 13.0495 22.2738C13.4347 22.2738 13.7443 21.9649 13.7443 21.5831C13.7443 21.3547 13.6329 21.1526 13.4611 21.0272C13.7859 20.7764 14.1654 20.5686 14.5807 20.4189C15.0282 20.256 15.5209 20.1587 16.0401 20.1418L16.1157 20.8868L16.1194 20.9186C15.8249 20.9991 15.6097 21.2668 15.6097 21.5831C15.6097 21.9649 15.9212 22.2738 16.3045 22.2738C16.6896 22.2738 17.0011 21.9649 17.0011 21.5831C17.0011 21.2686 16.7878 21.0028 16.497 20.9205L16.4989 20.8849L16.5518 20.1475C17.0483 20.1812 17.5185 20.286 17.9451 20.4507H17.947C18.3624 20.6117 18.7381 20.8288 19.0591 21.0908C18.9307 21.2162 18.8514 21.3903 18.8514 21.5831C18.8514 21.9649 19.1629 22.2738 19.5462 22.2738C19.9313 22.2738 20.2428 21.9649 20.2428 21.5831C20.2447 21.3529 20.1296 21.1488 19.954 21.0234ZM14.3844 0C12.9136 0 11.7223 1.18107 11.7223 2.63916C11.7223 4.09725 12.9136 5.27832 14.3844 5.27832C15.8551 5.27832 17.0465 4.09725 17.0465 2.63916C17.0465 1.18107 15.8551 0 14.3844 0Z" fill="#329CD7"/>
</svg>
