<svg width="20" height="20" viewBox="0 0 20 20" fill="none" xmlns="http://www.w3.org/2000/svg">
<path d="M16.2357 5.5983L12.9873 5.12627L11.5346 2.18271C10.9734 1.0457 9.35091 1.04604 8.78999 2.18268L7.33723 5.12624L4.08881 5.5983C2.83397 5.78061 2.33308 7.32376 3.24071 8.20856L5.5913 10.4998L5.03641 13.735C4.82209 14.9848 6.13481 15.938 7.25684 15.3483L10.1623 13.8207L13.0678 15.3483C14.1883 15.9373 15.5025 14.9846 15.2883 13.735L14.7334 10.4998L17.084 8.20852C17.9918 7.32341 17.49 5.78058 16.2357 5.5983ZM16.1683 7.26926L13.5708 9.80116C13.4946 9.87539 13.4377 9.96702 13.4048 10.0681C13.372 10.1693 13.3642 10.2769 13.3821 10.3817L13.9953 13.9568C14.0261 14.1364 13.8393 14.272 13.6781 14.1873L10.4674 12.4993C10.3733 12.4499 10.2686 12.424 10.1623 12.424C10.0559 12.424 9.95119 12.4499 9.85707 12.4993L6.64638 14.1873C6.48513 14.272 6.2984 14.1363 6.32919 13.9568L6.94237 10.3817C6.96034 10.2769 6.95256 10.1693 6.9197 10.0681C6.88684 9.96702 6.82989 9.87539 6.75376 9.80116L4.15626 7.26926C4.02579 7.1421 4.09715 6.92259 4.27743 6.89634L7.86706 6.37474C7.97229 6.35945 8.07222 6.31881 8.15825 6.25631C8.24428 6.19382 8.31382 6.11134 8.36089 6.016L9.96625 2.76319C10.0468 2.59995 10.2777 2.59983 10.3583 2.76323L11.9637 6.016C12.0107 6.11135 12.0803 6.19382 12.1663 6.25632C12.2523 6.31882 12.3523 6.35946 12.4575 6.37474L16.0471 6.89634C16.2274 6.92259 16.2987 7.14214 16.1683 7.26926ZM5.50191 1.65857L4.71752 0.578968C4.50455 0.28598 4.09442 0.220957 3.80144 0.433934C3.50841 0.646835 3.44343 1.05699 3.65637 1.35002L4.44075 2.42959C4.65381 2.72273 5.06393 2.78748 5.35684 2.57462C5.64987 2.36176 5.71485 1.9516 5.50191 1.65857ZM2.89892 11.3334C2.78705 10.989 2.41705 10.8003 2.07249 10.9124L0.777561 11.3331C0.433077 11.4451 0.24458 11.815 0.356487 12.1596C0.468586 12.5046 0.839202 12.6925 1.18292 12.5806L2.47784 12.1599C2.82236 12.0479 3.01086 11.6779 2.89892 11.3334ZM16.5231 0.433973C16.2301 0.221073 15.8199 0.28598 15.607 0.579006L14.8226 1.65857C14.6097 1.9516 14.6746 2.3618 14.9677 2.57466C15.2608 2.78764 15.6709 2.72254 15.8838 2.42963L16.6681 1.35006C16.8811 1.05703 16.8161 0.646835 16.5231 0.433973ZM19.5469 11.3331L18.252 10.9124C17.9075 10.8002 17.5375 10.9889 17.4255 11.3334C17.3136 11.6779 17.5021 12.048 17.8466 12.1599L19.1415 12.5806C19.4853 12.6924 19.8559 12.5046 19.968 12.1596C20.0799 11.8151 19.8914 11.4451 19.5469 11.3331ZM10.1622 16.4176C9.80004 16.4176 9.5064 16.7112 9.5064 17.0734V18.4046C9.5064 18.7668 9.80004 19.0604 10.1622 19.0604C10.5244 19.0604 10.8181 18.7668 10.8181 18.4046V17.0734C10.8181 16.7112 10.5245 16.4176 10.1622 16.4176Z" fill="white"/>
</svg>
