<svg width="18" height="21" viewBox="0 0 18 21" fill="none" xmlns="http://www.w3.org/2000/svg">
<path d="M9.00002 0C5.40142 0 2.40002 2.8988 2.40002 6.6C2.40002 8.00808 2.82314 9.26368 3.63518 10.4402L8.49495 18.0234C8.7307 18.3921 9.26983 18.3914 9.50511 18.0234L14.3859 10.4144C15.1805 9.2912 15.6 7.97228 15.6 6.6C15.6 2.96076 12.6393 0 9.00002 0ZM9.00002 9.6C7.3459 9.6 6.00002 8.25412 6.00002 6.6C6.00002 4.94588 7.3459 3.6 9.00002 3.6C10.6541 3.6 12 4.94588 12 6.6C12 8.25412 10.6541 9.6 9.00002 9.6Z" fill="#3F5873"/>
<path d="M13.6906 13.7891L10.6693 18.5125C9.88728 19.7318 8.10836 19.7278 7.33008 18.5137L4.30392 13.7903C1.64136 14.4059 0 15.5336 0 16.8813C0 19.2197 4.63712 20.4813 9 20.4813C13.3629 20.4813 18 19.2197 18 16.8813C18 15.5327 16.3564 14.4043 13.6906 13.7891Z" fill="#3F5873"/>
</svg>
