<svg width="24" height="24" viewBox="0 0 24 24" fill="none" xmlns="http://www.w3.org/2000/svg">
<path fill-rule="evenodd" clip-rule="evenodd" d="M8.47498 9.9043L8.42622 12.8978H11.5884C12.2584 12.8978 12.8056 13.4403 12.8056 14.1045V15.3112H12.7929V20.0306C12.7929 20.6948 12.2457 21.2373 11.5757 21.2373H10.3586V15.6585C10.3586 15.1304 10.1581 15.313 9.55492 15.313H6.83521V15.3058H5.2749C4.2672 15.3058 3.4437 14.4894 3.4437 13.4904V7.19369C3.4437 6.17855 4.28165 5.34782 5.3056 5.34782H6.22662C8.1445 5.34782 7.8393 6.65658 8.68808 7.48014C9.52603 8.29297 9.31473 8.38607 10.4597 8.38607H12.9266C14.9691 8.38607 13.8711 10.3537 12.6611 10.2928H10.4001C9.39239 10.2928 9.30751 10.4521 8.47498 9.9043ZM14.8986 10.3035C14.6043 10.3035 14.3659 10.0672 14.3659 9.77539C14.3659 9.48356 14.6043 9.24723 14.8986 9.24723H18.3281L20.1647 5.54118C20.2929 5.27979 20.6125 5.17236 20.8762 5.29948C21.1399 5.4266 21.2482 5.74349 21.12 6.00309L19.157 9.96338C19.0811 10.1621 18.8861 10.3035 18.6585 10.3035H14.8986ZM10.1328 10.6813H20.4645C20.5241 10.6813 20.5728 10.7314 20.5728 10.7887V12.3267C20.5728 12.384 20.5223 12.4341 20.4645 12.4341H19.9769V21.8586C19.9769 21.9373 19.9118 22 19.8342 22H18.608C18.5285 22 18.4653 21.9355 18.4653 21.8586V12.4341H10.1328C10.075 12.4341 10.0245 12.3857 10.0245 12.3267V10.7887C10.0245 10.7297 10.0732 10.6813 10.1328 10.6813ZM2.08746 20.1094C2.09649 20.036 2.1308 19.9644 2.18678 19.9071C2.60756 19.4863 3.14031 19.1426 3.7489 18.908C4.1751 18.7433 4.6356 18.6323 5.11959 18.584L5.02749 17.1463H1.72627C1.38315 17.1463 1.09962 16.867 1.09962 16.5251C1.09962 13.9559 1.71002 12.0241 1.09962 9.09863C0.919029 8.2321 2.72314 8.10677 2.72314 9.14518V15.7284H8.968C9.31293 15.7284 9.59284 16.1831 9.59284 16.5251V17.0085C9.59284 17.0837 9.52964 17.1445 9.4556 17.1445H6.14174L6.01352 18.5679C6.5264 18.6019 7.01761 18.7057 7.46909 18.8687C8.05059 19.0781 8.56528 19.3879 8.98606 19.7674C9.08719 19.8587 9.12331 19.993 9.0908 20.1165C9.25333 20.2365 9.35808 20.4281 9.35808 20.6447C9.35808 21.0099 9.0601 21.3053 8.69169 21.3053C8.32329 21.3053 8.02712 21.0099 8.02712 20.6447C8.02712 20.4263 8.13367 20.2329 8.298 20.113C7.98739 19.873 7.6244 19.6743 7.22709 19.5311C6.79909 19.3753 6.32775 19.2822 5.83112 19.2661L5.75888 19.9787L5.75527 20.0091C6.037 20.0861 6.24287 20.3421 6.24287 20.6447C6.24287 21.0099 5.94489 21.3053 5.57829 21.3053C5.20989 21.3053 4.91191 21.0099 4.91191 20.6447C4.91191 20.3439 5.11598 20.0897 5.39409 20.0109L5.39228 19.9769L5.34172 19.2715C4.86676 19.3037 4.41709 19.404 4.00895 19.5615H4.00715C3.60984 19.7155 3.25047 19.9232 2.94346 20.1738C3.06626 20.2938 3.14211 20.4603 3.14211 20.6447C3.14211 21.0099 2.84414 21.3053 2.47753 21.3053C2.10913 21.3053 1.81115 21.0099 1.81115 20.6447C1.80935 20.4245 1.91951 20.2293 2.08746 20.1094ZM7.41491 0C8.82172 0 9.96125 1.12972 9.96125 2.52441C9.96125 3.91911 8.82172 5.04883 7.41491 5.04883C6.0081 5.04883 4.86857 3.91911 4.86857 2.52441C4.86857 1.12972 6.0081 0 7.41491 0Z" fill="#3F5873"/>
</svg>
