<svg width="178" height="124" viewBox="0 0 178 124" fill="none" xmlns="http://www.w3.org/2000/svg">
<g clip-path="url(#clip0_323_3117)">
<path d="M157.151 0.891661V0.936814L134.045 43.3955C133.066 45.1565 132.103 46.9325 131.124 48.6784C129.71 48.6784 128.264 48.6634 126.849 48.6333C134.828 33.9887 142.776 19.3592 150.754 4.6845C150.754 4.6845 150.754 4.53399 150.693 4.51894H150.588V4.47379H104.676V0.816406C122.183 0.831457 139.675 0.87661 157.151 0.906712V0.891661Z" fill="#3869AF"/>
<path d="M102.765 91.2436H106.799C106.799 91.2436 106.994 91.2887 106.994 91.3941V91.4994L89.6232 123.212C89.6232 123.212 89.4727 123.332 89.3673 123.302C89.3673 123.302 89.3221 123.257 89.277 123.212L72.0563 91.5747C72.0563 91.5747 72.0563 91.379 72.1466 91.3038H72.252L76.1658 91.3489C76.1658 91.3489 76.2862 91.3489 76.3163 91.4543L89.292 115.355C89.292 115.355 89.4426 115.476 89.5479 115.445L89.6382 115.355L102.584 91.379C102.584 91.379 102.689 91.2737 102.734 91.2737L102.689 91.2285H102.78L102.765 91.2436Z" fill="#3869AF"/>
<path d="M55.8295 43.2153C56.823 44.9913 57.8165 46.7974 58.7949 48.5734C57.5305 48.5734 56.2811 48.5734 55.0016 48.5584C54.0231 46.7823 53.0597 44.9762 52.0662 43.2002H52.0512C45.4429 31.1896 38.8948 19.1939 32.2865 7.16823C32.2865 7.16823 32.2865 7.01772 32.3467 7.01772H32.3919C41.6796 6.97257 50.9673 6.95752 60.2551 6.91236C60.7368 6.91236 62.2872 6.91237 64.3796 6.89731C68.5644 6.89731 71.9814 6.88226 74.2243 6.89731C74.2243 8.08634 74.2394 9.24526 74.2695 10.4042C68.6848 10.4042 59.9239 10.4042 54.3392 10.4493V10.3891C50.2599 10.3891 41.8904 10.4042 37.7959 10.4343C38.7744 12.2103 39.7679 13.9863 40.7614 15.7924C45.8041 24.9284 50.8319 34.0793 55.8445 43.2303L55.8295 43.2153Z" fill="#2F9CD7" stroke="#329CD7" stroke-width="0.0216037" stroke-miterlimit="10"/>
<path d="M146.585 6.9728V7.01795C145.651 8.73376 144.538 10.8108 143.604 12.5116C137.041 24.5975 130.478 36.6081 123.885 48.5887C122.635 48.6037 121.386 48.6037 120.091 48.6037C127.076 35.8706 134.031 23.1375 141.015 10.3894H124.517C117.909 10.3894 111.315 10.3894 104.707 10.3442V6.9126C118.646 6.9126 132.616 6.92765 146.555 6.95775H146.57L146.585 6.9728Z" fill="#2F9CD7" stroke="#329CD7" stroke-width="0.0216037" stroke-miterlimit="10"/>
<path d="M132.118 33.5679C130.387 36.7436 128.671 39.8893 126.94 43.065H126.925C128.656 39.8893 130.402 36.7436 132.133 33.5679H132.118Z" fill="#329CD7" stroke="#329CD7" stroke-width="0.0216037" stroke-miterlimit="10"/>
<path d="M28.207 4.65426V4.69941L49.1759 43.3051C50.1243 45.0661 51.0576 46.812 52.0059 48.5579H47.7459C46.8126 46.8421 45.8642 45.1112 44.931 43.3954L21.8094 0.951726C21.8094 0.951726 21.8094 0.786166 21.8546 0.756064H44.1632C45.1567 0.756064 45.8793 0.741013 45.9546 0.741013C47.0384 0.725962 55.0918 0.680809 74.2092 0.620605V4.62416C68.7901 4.62416 56.7476 4.63921 51.3586 4.66931C45.8341 4.66931 33.7315 4.66931 28.207 4.68436V4.65426Z" fill="#3869AF"/>
<path d="M89.3972 110.869C89.3972 110.869 89.5478 110.869 89.623 110.779L100.311 91.3628H96.4872L89.7134 103.975C89.7134 103.975 89.6682 104.021 89.623 104.066C89.5327 104.111 89.4725 104.066 89.3972 103.975L82.518 91.3628H78.7698L89.3671 110.779L89.4574 110.869H89.3972Z" fill="#329CD7"/>
<path d="M7.05739 58.3411C4.91986 55.1503 2.87264 51.9746 0.735107 48.7988C18.7687 52.983 36.8173 57.1371 54.881 61.3212L57.4851 66.0322C40.6558 63.4585 23.8566 60.8847 7.04234 58.3712V58.3261L7.05739 58.3411Z" fill="#3869AF"/>
<path d="M7.3429 58.8228C24.1421 61.3965 40.9413 63.925 57.7405 66.4837C58.2674 67.5373 58.8394 68.6059 59.4265 69.6594C43.8315 68.5457 28.2215 67.4018 12.5814 66.2579C10.8503 63.8046 9.08905 61.3062 7.35795 58.8529H7.3429V58.8228Z" fill="#2B88C9"/>
<path d="M12.747 66.7548L59.5168 70.0811C59.9835 70.9691 60.42 71.8119 60.9168 72.6548C46.5562 73.1816 32.1955 73.7083 17.8349 74.2351C16.1189 71.7367 14.4329 69.2382 12.7319 66.7397H12.747V66.7548Z" fill="#329CD7"/>
<path d="M171.692 58.3419C154.863 60.9156 138.064 63.4894 121.249 66.0029L123.854 61.2919C141.947 57.1078 159.951 52.9537 177.999 48.7695C175.877 51.9603 173.815 55.1361 171.677 58.3118V58.357L171.692 58.3419Z" fill="#3869AF"/>
<path d="M171.436 58.8529C169.705 61.3062 167.944 63.8046 166.213 66.2579C150.618 67.3717 135.008 68.5156 119.368 69.6594C119.925 68.6059 120.497 67.5373 121.054 66.4837C137.883 63.8949 154.682 61.3363 171.451 58.8228H171.436V58.8529Z" fill="#2B88C9"/>
<path d="M160.869 74.2503C146.509 73.7236 132.148 73.1968 117.787 72.67C118.254 71.8422 118.691 70.9542 119.187 70.0963L165.957 66.77C164.241 69.2685 162.555 71.7669 160.854 74.2654H160.869V74.2503Z" fill="#329CD7"/>
<path d="M143.634 12.5714C140.337 18.5617 137.056 24.567 133.759 30.5724C137.041 24.5369 140.322 18.5316 143.619 12.5112V12.5714H143.634Z" fill="#329CD7" stroke="#329CD7" stroke-width="0.0216037" stroke-miterlimit="10"/>
</g>
<path d="M112.716 81.625C112.716 82.212 112.264 82.7087 111.692 82.7087H67.4661C66.9092 82.7087 66.4425 82.2421 66.4425 81.625V19.299C66.4425 18.712 66.8941 18.2153 67.4661 18.2153H111.677C112.234 18.2153 112.701 18.6819 112.701 19.299V81.6401H112.716V81.625ZM111.767 53.8861V40.6714C111.767 37.1946 111.812 35.4487 111.888 33.7931C112.083 29.3229 111.888 24.7926 111.888 20.3375C111.888 19.299 111.436 19.1936 110.533 19.1936H68.2338C67.8123 19.1936 67.4962 19.5248 67.4661 19.9161C67.421 20.6385 67.4059 21.3459 67.4059 22.1135V80.5865C67.4059 80.5865 67.4059 81.0531 67.6166 81.3691C67.6769 81.4594 67.7672 81.5196 67.8274 81.5949C67.9478 81.7003 68.0983 81.7304 68.279 81.7304C68.5499 81.7304 68.8359 81.7454 69.1219 81.7755H110.969C111.451 81.7755 111.888 81.3541 111.888 80.9026V69.0123C111.888 65.069 111.843 61.1407 111.827 57.1973V53.9613C111.827 53.9613 111.827 53.9162 111.782 53.9162H111.737H111.752L111.767 53.8861Z" fill="#329CD7" stroke="#329CD7" stroke-width="0.075613"/>
<path d="M82.8042 28.1186C82.6838 28.1186 82.5935 28.2089 82.5784 28.3143V28.4197C82.729 28.8862 82.4731 29.112 82.0215 29.112H70.1898C69.392 29.112 69.4973 28.9163 69.2866 28.239C69.2866 28.1788 69.2264 28.1337 69.1361 28.1186C68.549 28.0584 68.2479 27.7424 68.2479 27.2156C68.2479 25.0934 68.2479 23.0465 68.2931 21.0146C68.2931 20.548 68.6694 20.2319 69.0758 20.2319L82.8946 20.2771C83.301 20.2771 83.6171 20.6082 83.6171 20.9995C83.6171 23.0766 83.6623 25.1084 83.6171 27.1102C83.6171 27.6972 83.4064 28.1939 82.729 28.1186H82.8193H82.8042ZM76.9486 21.4511L70.1296 21.5414C69.9188 21.5414 69.7231 21.7069 69.7231 21.9628V26.3577C69.7231 26.5082 69.8737 26.6587 70.0392 26.6587C74.0133 26.6587 78.0324 26.6587 82.1268 26.7038C82.5935 26.7038 82.6989 27.2607 82.6989 27.637C82.6989 27.7574 82.8042 27.8327 82.8946 27.8327C82.9548 27.8327 83.015 27.8327 83.0451 27.7725C83.1655 27.6521 83.1956 27.5166 83.2107 27.351C83.301 25.2289 83.316 23.1217 83.301 20.9845C83.301 20.7888 83.1354 20.5781 82.8946 20.5781H69.0758C68.8651 20.5781 68.6544 20.7437 68.6544 20.9995V27.1704C68.6544 27.2908 68.6544 27.3811 68.6995 27.4865C68.7597 27.637 68.8199 27.6972 68.8651 27.7123C69.121 27.8026 69.2715 27.7123 69.2715 27.4112L69.3769 21.7671C69.3769 21.5113 69.5876 21.2855 69.8586 21.3006L76.8432 21.3909C76.8432 21.3909 76.8884 21.3909 76.8884 21.436C76.8884 21.4812 76.8884 21.4812 76.8432 21.4812H76.9486V21.4511ZM82.2623 27.336C82.2623 27.1704 82.1118 27.0049 81.9312 27.0049H70.0543C69.8887 27.0049 69.7231 27.1554 69.7231 27.336V28.3745C69.7231 28.5401 69.8737 28.7056 70.0543 28.7056H81.9312C82.0967 28.7056 82.2623 28.5551 82.2623 28.3745V27.336Z" fill="#329CD7"/>
<path d="M110.187 27.5918C110.187 27.5918 110.337 27.336 110.337 27.1855V21.2403C110.337 20.7888 110.126 20.5781 109.675 20.5781H84.235C84.235 20.5781 84.0845 20.5179 84.0845 20.4276C84.0845 20.3674 84.0845 20.3222 84.1297 20.2771C84.1297 20.2771 84.22 20.2319 84.2802 20.2319H109.855C110.322 20.2319 110.683 20.6383 110.683 21.0597V27.1253C110.683 27.6972 110.367 28.0133 109.735 28.0133C101.215 28.0133 92.725 28.0133 84.235 28.0735C84.1447 28.0735 84.0845 28.0133 84.0695 27.923C84.0695 27.8327 84.0695 27.7725 84.1598 27.7273C84.2049 27.7273 84.2651 27.6822 84.3254 27.6822H109.946C109.946 27.6822 110.096 27.637 110.141 27.5768V27.5316L110.187 27.4865V27.5467V27.5918Z" fill="#329CD7"/>
<path d="M106.844 24.7926C106.844 25.0635 106.634 25.3043 106.333 25.3043H98.5953C98.2942 25.3043 98.0835 25.0936 98.0835 24.7926V21.978C98.0835 21.677 98.2942 21.4663 98.5953 21.4663H106.333C106.634 21.4663 106.844 21.677 106.844 21.978V24.7926ZM106.483 22.0984C106.483 21.978 106.378 21.8727 106.257 21.8727H98.7007C98.5803 21.8727 98.4749 21.978 98.4749 22.0834V24.627C98.4749 24.7474 98.5802 24.8528 98.6856 24.8528H106.242C106.363 24.8528 106.468 24.7474 106.468 24.6421V22.0984H106.483Z" fill="#329CD7"/>
<path d="M86.0707 22.0393C85.5138 22.0393 84.9869 22.0393 84.4902 22.1447C84.3848 22.1447 84.3396 22.1447 84.3698 22.0243V21.8737C84.3698 21.8737 84.4601 21.7533 84.5203 21.7684C85.5288 21.8737 86.432 21.6028 87.2148 22.3554C87.2599 22.4005 87.2599 22.4607 87.2148 22.5059C87.1696 22.5059 87.1245 22.551 87.0944 22.5059C86.7782 22.2952 86.5223 22.0393 86.0858 22.0393H86.1009H86.0707Z" fill="#329CD7"/>
<path d="M91.7763 24.1154H94.7417C94.7417 24.1154 94.8321 24.1606 94.8019 24.2208C94.8019 24.281 94.7417 24.3111 94.6966 24.3111L91.8365 24.2659C91.8365 24.2659 91.686 24.2659 91.6709 24.3562C91.5204 24.5218 91.4602 24.883 91.3548 25.0335C90.6925 26.1172 89.3828 26.373 88.3291 25.7259C86.598 24.6723 87.2754 22.0083 89.2624 21.7675C90.7376 21.6019 91.4451 22.6705 91.6709 23.995C91.6709 24.0552 91.7311 24.1004 91.7913 24.1004V24.1455H91.7763V24.1154ZM88.1184 24.4315C88.1184 24.4315 88.1184 24.3412 88.1635 24.3412H88.2539C89.0818 25.6054 90.4064 25.2894 90.8279 23.8896V23.7241L90.6322 23.2123V23.1672C90.6322 23.1672 90.6322 23.122 90.6774 23.107H90.7376L91.0989 23.5585C91.0989 23.5585 91.1892 23.6037 91.2043 23.5585C91.2043 23.5585 91.2494 23.4983 91.2043 23.4682C90.6322 21.9029 88.871 21.6922 87.9829 23.0016C87.4109 23.8746 87.7722 25.0787 88.7657 25.47C89.8495 25.9366 90.6774 25.5603 91.2043 24.3863C91.2645 24.2358 91.3698 24.1606 91.3548 23.9348C91.3548 23.8746 91.2946 23.8144 91.2344 23.8144C91.1742 23.8144 91.129 23.8595 91.129 23.9047C91.0086 24.3713 90.7677 24.7927 90.4064 25.1088C89.6086 25.8914 88.3893 25.2593 88.0732 24.3261L88.1184 24.4164V24.4315Z" fill="#329CD7"/>
<path d="M92.4085 22.2191C92.2128 22.2793 92.1526 22.3847 91.9418 22.4449C91.8816 22.49 91.8214 22.4449 91.7913 22.3997C91.7461 22.3395 91.7913 22.2793 91.8364 22.2492C92.6192 21.6321 93.5073 21.7676 94.6363 21.7826C94.7266 21.7826 94.7417 21.8278 94.7266 21.903C94.6815 22.0536 94.5761 22.0987 94.4105 22.0686C93.6729 21.9783 93.0106 22.0234 92.4235 22.189L92.4085 22.2191Z" fill="#329CD7"/>
<path d="M84.3546 22.9264V23.0468C84.3546 23.0468 84.3546 23.107 84.4148 23.107L86.9889 23.2575C86.9889 23.2575 87.0491 23.2575 87.0491 23.1973V23.0769C87.0491 23.0769 87.0491 23.0167 86.9889 23.0167L84.4148 22.8662C84.4148 22.8662 84.3546 22.8662 84.3546 22.9264Z" fill="#329CD7"/>
<path d="M94.591 22.9414C94.591 22.9414 94.6362 22.9414 94.6362 22.9866V23.0769C94.6362 23.0769 94.6362 23.1973 94.591 23.2274L91.9417 23.2876C91.9417 23.2876 91.8815 23.2274 91.8815 23.1672V23.0769C91.8815 23.0769 91.8815 23.0317 91.9266 23.0317L94.591 22.9715V22.9414Z" fill="#329CD7"/>
<path d="M84.3253 24.1149V24.2052C84.3253 24.2052 84.3253 24.2654 84.3855 24.2654L86.9897 24.3256C86.9897 24.3256 87.0499 24.3256 87.0499 24.2654V24.1751C87.0499 24.1751 87.0499 24.1149 86.9897 24.1149L84.3855 24.0547C84.3855 24.0547 84.3253 24.0547 84.3253 24.1149Z" fill="#329CD7"/>
<path d="M86.6728 25.1092L86.9287 24.9136H87.0492V25.0039C86.9588 25.2146 86.8234 25.335 86.5825 25.335H84.3848C84.3848 25.335 84.2794 25.2898 84.2944 25.2146V25.1544C84.2944 25.1544 84.2944 25.1092 84.3396 25.1092H86.6728Z" fill="#329CD7"/>
<path d="M92.1673 24.9885C92.2877 25.0788 92.4232 25.1089 92.5888 25.1089C93.2662 25.1089 93.9436 25.1089 94.6661 25.0638C94.7263 25.0638 94.7715 25.0638 94.7865 25.1089V25.1691C94.7865 25.1691 94.7865 25.2594 94.7263 25.2594C93.8984 25.3648 93.0554 25.3648 92.2275 25.2594C92.1222 25.2594 92.077 25.2143 92.0318 25.1691C91.9716 25.1089 91.9265 25.0186 91.9415 24.9434C91.9415 24.8832 91.9867 24.8531 92.0318 24.8982L92.1523 24.9885H92.1673Z" fill="#329CD7"/>
<path d="M92.6043 26.1322C93.2967 26.2225 93.8989 26.2376 94.3956 26.1774C94.516 26.1774 94.5913 26.1774 94.6515 26.2376C94.6515 26.2376 94.6967 26.2978 94.6515 26.3279H94.6064C93.7784 26.4182 92.3484 26.5988 91.7463 25.8613C91.7011 25.8162 91.7011 25.771 91.7463 25.7409C91.7914 25.6957 91.8366 25.6957 91.8667 25.7409C92.0774 25.9065 92.243 26.072 92.5591 26.1172H92.5742L92.6043 26.1322Z" fill="#329CD7"/>
<path d="M87.0797 26.0723C86.312 26.4937 85.6798 26.4335 84.5809 26.3883C84.5207 26.3883 84.4605 26.3883 84.4304 26.3432C84.31 26.283 84.31 26.2378 84.4304 26.1927H84.5358C85.4089 26.1927 86.3572 26.3883 87.0797 25.8164H87.2002V25.8616C87.2002 25.8616 87.2002 26.0121 87.0948 26.0572H87.0797V26.0723Z" fill="#329CD7"/>
<path d="M109.749 69.4589C107.055 69.8653 104.376 70.1362 101.681 70.2867C90.8428 70.964 80.0799 70.7081 69.3019 69.5041C69.7234 69.5041 70.0997 69.5041 70.5513 69.5492C80.6067 70.3168 90.6321 70.4824 100.703 70.0308C103.608 69.9104 106.754 69.6245 109.764 69.4438H109.749V69.4589Z" fill="#329CD7" stroke="#329CD7" stroke-width="0.162028" stroke-miterlimit="10"/>
<path d="M109.764 78.6901C109.764 79.0062 109.538 79.262 109.192 79.262H102.192C101.876 79.262 101.62 79.0363 101.62 78.6901V73.8888C101.62 73.5728 101.846 73.3169 102.192 73.3169H109.192C109.508 73.3169 109.764 73.5427 109.764 73.8888V78.6901ZM109.403 73.9791C109.403 73.8286 109.252 73.6631 109.087 73.6631H102.238C102.087 73.6631 101.921 73.8136 101.921 73.9791V78.66C101.921 78.8105 102.072 78.9761 102.238 78.9761H109.087C109.237 78.9761 109.403 78.8255 109.403 78.66V73.9791Z" fill="#329CD7" stroke="#329CD7" stroke-width="0.162028" stroke-miterlimit="10"/>
<path d="M100.782 49.9516C100.782 51.0653 100.601 52.1189 100.225 53.1424C99.7585 54.4367 99.0961 55.6258 98.1929 56.6944C95.378 59.9002 90.8922 60.8785 86.9935 59.3584C86.1806 59.0122 85.3527 58.5457 84.6301 58.0189V57.9737C84.6301 57.9737 84.6301 57.9286 84.6753 57.9286C85.3677 58.1092 86.0903 58.3801 86.7827 58.4252C88.6493 58.5908 90.4105 58.2145 92.0814 57.2513C93.8275 56.2128 94.8512 54.8732 95.8296 53.1875C96.1608 52.6156 96.522 52.2092 97.1392 52.3447C98.1327 52.5253 97.6059 53.8347 97.2295 54.4217C97.0941 54.6023 97.0339 54.7378 97.0037 54.813C96.7779 55.4903 97.3199 55.9268 97.8016 55.385C98.4639 54.6776 98.8854 53.8949 99.0359 52.9467C99.1413 52.1942 99.1413 51.547 99.0359 51.0503C98.9004 50.2526 98.8553 49.7107 98.8553 49.3495C98.8553 48.8679 99.337 48.1304 99.8789 48.2357C100.571 48.3712 100.902 49.3495 100.872 49.9365H100.812L100.782 49.9516Z" fill="#FB6D6B"/>
<path d="M74.8763 56.1669C74.8763 56.1669 74.9215 56.0616 74.9366 56.0616C76.5773 54.6016 80.3255 56.468 81.5147 57.6118C83.3663 59.3878 85.0071 60.6973 87.4306 61.4348C94.5958 63.7075 102.017 58.8761 103.176 51.456C104.531 42.4104 95.5291 34.8548 86.6779 38.3015C82.5685 39.927 79.9643 43.0576 78.8955 47.7836C78.8955 47.8739 78.8504 47.919 78.8052 47.9341C78.745 47.9341 78.6697 47.9341 78.6547 47.8889C78.5192 47.7836 78.2482 47.6481 77.9472 47.4223C78.0826 47.0009 78.188 46.5945 78.3536 46.2032C79.7836 41.8986 82.4179 39.0089 86.2264 37.5188C96.1764 33.6507 106.111 42.2448 104.004 52.5999C102.017 62.1121 90.3509 66.1758 82.719 59.9297C80.8675 58.3945 78.6547 56.1067 76.1559 56.483H75.8247C75.4484 56.4379 75.1623 56.3325 74.9516 56.1519L74.9064 56.1067V56.1519H74.8914L74.8763 56.1669Z" fill="#329CD7"/>
<path d="M80.2292 55.2659V55.1154C80.2292 55.1154 80.2292 54.9649 80.3196 54.8896C80.3648 54.8294 80.4401 54.7993 80.4852 54.7993C80.5304 54.7993 80.6057 54.7993 80.6509 54.8595V54.9047C80.6509 54.9047 80.6961 54.9649 80.6961 55.01V55.1906C80.7865 55.1455 80.8618 55.1304 80.922 55.1304C80.9822 55.1304 81.0425 55.1304 81.0877 55.1756C81.163 55.2207 81.178 55.2659 81.2081 55.3261V55.5067C81.2081 55.5067 81.1328 55.5669 81.0877 55.597C81.0124 55.597 80.9521 55.6422 80.9069 55.597C80.9521 55.6422 80.9973 55.6873 81.0274 55.7325C81.0726 55.7927 81.0726 55.8679 81.0726 55.9281C81.0726 55.9883 81.0274 56.0786 80.9371 56.0786H80.7112C80.7112 56.0786 80.6359 56.0335 80.6208 56.0184C80.5756 55.9733 80.5304 55.9131 80.5304 55.8679C80.5304 55.9131 80.4551 55.9733 80.4099 56.0184C80.3346 56.0786 80.2744 56.1087 80.2292 56.1238C80.1389 56.1238 80.0636 56.1238 80.0485 56.0636V55.8679C80.0485 55.8679 80.0485 55.7776 80.0937 55.7626C80.1389 55.7024 80.184 55.6572 80.2292 55.6271C80.2292 55.6271 80.1087 55.6271 80.0636 55.582C79.9883 55.582 79.9431 55.4917 79.8979 55.4465C79.8527 55.3863 79.8527 55.311 79.8979 55.2659C79.8979 55.2207 79.9431 55.2057 79.9732 55.1756H80.0184C80.0184 55.1756 80.0937 55.1756 80.1087 55.1304H80.2292C80.2292 55.1304 80.3648 55.1756 80.3949 55.2207V55.2659H80.2593H80.2292ZM80.4551 55.4465H80.3798V55.5519C80.3798 55.5519 80.425 55.6121 80.4551 55.6422H80.5003C80.5003 55.6422 80.5455 55.6422 80.5907 55.597V55.4917C80.5907 55.4917 80.5455 55.4315 80.5003 55.4465H80.4551Z" fill="#FB6D6B"/>
<path d="M97.0187 49.9809V49.8003C97.0187 49.6648 97.0639 49.5895 97.1542 49.4691C97.2295 49.3788 97.3198 49.3337 97.38 49.3638C97.4703 49.3638 97.5456 49.3638 97.5907 49.4691C97.5907 49.4691 97.5907 49.5143 97.6359 49.5143C97.681 49.5594 97.7112 49.6196 97.7112 49.6648C97.7112 49.7702 97.7112 49.8454 97.666 49.9207C97.666 49.9207 97.8767 49.8304 98.0273 49.8304C98.1176 49.8304 98.1929 49.8304 98.238 49.8906C98.3283 49.9357 98.3735 50.026 98.3735 50.1013V50.1615C98.3735 50.1615 98.3735 50.2217 98.3283 50.2668C98.3283 50.2668 98.3283 50.312 98.2832 50.327C98.238 50.3872 98.1929 50.4173 98.1176 50.4625C98.0273 50.5077 97.937 50.5227 97.8466 50.5076C97.9219 50.5679 97.9671 50.6431 98.0122 50.6883C98.0574 50.7786 98.0875 50.8689 98.0875 50.9893C98.0875 51.1097 98.0122 51.1849 97.9068 51.2301C97.8617 51.2301 97.8165 51.2752 97.7413 51.2301C97.6961 51.2301 97.6208 51.2301 97.5757 51.1849C97.5305 51.1849 97.4854 51.1398 97.4553 51.0946C97.38 51.0344 97.3348 50.9441 97.3198 50.8538C97.3198 50.8538 97.2295 51.0043 97.1843 51.0495C97.094 51.1398 97.0187 51.1849 96.9133 51.2C96.7929 51.2 96.7327 51.2 96.6424 51.0946L96.5972 51.0495C96.5972 51.0495 96.5972 50.9893 96.5521 50.9592V50.8538C96.5521 50.8538 96.5521 50.7485 96.5972 50.7033C96.6424 50.613 96.7177 50.5528 96.7779 50.5227H96.7327C96.7327 50.5227 96.5671 50.4775 96.522 50.4625C96.4316 50.4173 96.3564 50.3571 96.3112 50.2819C96.2661 50.1916 96.236 50.1314 96.3112 50.0411C96.3112 49.9959 96.3564 49.9508 96.4015 49.9056L96.4467 49.8605C96.4467 49.8605 96.537 49.8153 96.5671 49.8153H96.7327C96.7327 49.8153 96.8983 49.8755 96.9886 49.9508L97.0338 49.8906V49.9357L97.0187 49.9809ZM97.3649 50.2217H97.2897L97.2445 50.2668V50.3722C97.2445 50.3722 97.3198 50.4625 97.3348 50.4775H97.4101C97.4101 50.4775 97.4854 50.4324 97.5305 50.4173V50.2217C97.5305 50.2217 97.4553 50.1765 97.4101 50.1765V50.2217H97.3649Z" fill="#FB6D6B"/>
<path d="M77.59 53.5038V53.2931C77.59 53.1576 77.6352 53.0372 77.7105 52.9318C77.7707 52.8415 77.861 52.7964 77.9513 52.7964C78.0416 52.7964 78.1018 52.8415 78.1621 52.9168C78.1621 52.9168 78.1621 52.9619 78.2072 52.992C78.2524 53.0372 78.2674 53.1125 78.2674 53.1576C78.2674 53.278 78.2674 53.3683 78.2223 53.4737C78.2223 53.4737 78.433 53.3533 78.5835 53.3834C78.6739 53.3834 78.7341 53.3834 78.7943 53.4586C78.8846 53.5339 78.9448 53.5941 78.9448 53.6844V53.7596C78.9448 53.7596 78.9448 53.8499 78.8997 53.8801C78.8997 53.8801 78.8997 53.9252 78.8545 53.9553C78.8093 54.0306 78.7642 54.0757 78.704 54.0908C78.5986 54.1359 78.5384 54.166 78.433 54.1359C78.4932 54.2112 78.5384 54.2714 78.5835 54.3466C78.6287 54.467 78.6438 54.5272 78.6438 54.6627C78.6438 54.7982 78.5534 54.8734 78.4782 54.9186C78.433 54.9186 78.3728 54.9637 78.3276 54.9186C78.2825 54.9186 78.2223 54.9186 78.1771 54.8734C78.132 54.8734 78.0868 54.8283 78.0717 54.7831C78.0115 54.6928 77.9513 54.6176 77.9513 54.5122C77.9062 54.6326 77.861 54.6778 77.8008 54.738C77.7105 54.8283 77.6503 54.9035 77.4997 54.9035C77.3944 54.9035 77.304 54.9035 77.2288 54.7831C77.2288 54.7831 77.2288 54.738 77.1836 54.738C77.1836 54.738 77.1836 54.6627 77.1384 54.6477V54.5122C77.1384 54.5122 77.1385 54.3918 77.1836 54.3466C77.2288 54.2563 77.304 54.1811 77.3793 54.1359H77.3341C77.3341 54.1359 77.1836 54.0908 77.1234 54.0607C77.018 54.0155 76.9729 53.9403 76.9127 53.8499C76.8524 53.7596 76.8524 53.6844 76.8675 53.579C76.8675 53.5038 76.9127 53.4586 76.9578 53.4135C76.9578 53.4135 77.003 53.4135 77.003 53.3683C77.0481 53.3683 77.0933 53.3232 77.1234 53.3232H77.2739C77.2739 53.3232 77.4395 53.3984 77.5298 53.4586V53.5038L77.59 53.5339V53.5038ZM77.9363 53.7747H77.8761L77.8309 53.8198V53.9854C77.8309 53.9854 77.8911 54.0757 77.9363 54.1058H77.9965C77.9965 54.1058 78.0868 54.0607 78.1018 54.0306V53.8198C78.1018 53.8198 78.0416 53.7747 77.9814 53.7747H77.9363Z" fill="#FB6D6B"/>
<path d="M73.8114 52.3924V52.1667C73.8114 52.0162 73.8866 51.8957 73.9769 51.7452C74.0673 51.6399 74.1726 51.5947 74.3382 51.5947C74.4586 51.5947 74.549 51.6399 74.6242 51.7151C74.6242 51.7151 74.6694 51.7603 74.6995 51.7753C74.7446 51.8355 74.7898 51.8957 74.7898 51.971C74.7898 52.0914 74.7898 52.1968 74.7145 52.3322H74.7597C74.9253 52.272 75.0608 52.2118 75.2564 52.2269C75.3769 52.2269 75.4521 52.2269 75.5425 52.3172C75.6629 52.3774 75.708 52.4677 75.7381 52.5881V52.6784C75.7381 52.6784 75.7381 52.7838 75.693 52.8289C75.693 52.8289 75.6478 52.8891 75.6177 52.9192C75.5726 53.0095 75.4973 53.0396 75.422 53.0697C75.2866 53.1149 75.1812 53.1299 75.0156 53.1299C75.0156 53.1299 75.1812 53.2804 75.2113 53.3858C75.2866 53.5062 75.3016 53.6116 75.3016 53.7621C75.3016 53.9126 75.2113 54.0179 75.0608 54.0781C74.9855 54.0781 74.9253 54.1233 74.8651 54.0781C74.7898 54.0781 74.7296 54.0781 74.6694 54.033C74.5941 54.033 74.549 53.9728 74.5038 53.9276C74.4135 53.8223 74.3382 53.732 74.3382 53.5965C74.293 53.7169 74.2178 53.7922 74.1726 53.8524C74.0522 53.9577 73.9619 54.0029 73.7662 54.0179C73.6006 54.0179 73.5103 54.0179 73.3598 53.8975C73.3598 53.8975 73.3598 53.8524 73.3146 53.8373C73.3146 53.7922 73.2694 53.747 73.2694 53.7169V53.5664C73.2694 53.5664 73.2694 53.4159 73.3447 53.3707C73.42 53.2654 73.5103 53.2052 73.6006 53.145H73.5554C73.5554 53.145 73.3598 53.0998 73.2544 53.0547C73.1189 52.9945 73.0436 52.9042 72.9232 52.8289C72.848 52.7235 72.8329 52.6332 72.8781 52.4978C72.8781 52.4376 72.9533 52.3774 72.9985 52.3473C72.9985 52.3473 73.0436 52.3473 73.0737 52.3021C73.1189 52.3021 73.1942 52.257 73.2393 52.2419H73.4501C73.5856 52.2419 73.6909 52.3322 73.8114 52.3924ZM74.278 52.7235H74.1576C74.1576 52.7235 74.1124 52.7687 74.0823 52.7838V52.9493C74.0823 52.9493 74.1576 53.0547 74.2178 53.0998H74.3081C74.3081 53.0998 74.4285 53.0547 74.4737 53.0396V52.844C74.4737 52.844 74.4737 52.7988 74.4285 52.7988C74.3834 52.7988 74.3382 52.7386 74.2629 52.7537V52.7085L74.278 52.7235Z" fill="#FB6D6B"/>
<path d="M91.4946 39.6868C91.4946 39.6868 91.4042 39.7319 91.3892 39.7771C91.329 40.936 90.8473 41.7939 89.9441 42.3056C88.3334 43.2839 86.7077 42.4411 85.8647 40.936H85.8045C83.8928 42.0799 82.4627 43.6 81.5746 45.5867C81.123 46.5199 80.8822 47.5133 80.7015 48.5819C80.7015 48.627 80.7015 48.6421 80.7467 48.6722L84.6906 49.7709C84.6906 49.7709 84.7508 49.7709 84.7508 49.7257V49.5903C84.7508 48.4314 84.9013 47.4229 85.5938 46.4747C85.654 46.3844 85.7744 46.3694 85.8647 46.4296C86.9937 47.3025 87.4453 48.7625 87.084 50.102C86.7528 51.3813 85.7895 52.6306 84.3594 52.6757C83.0498 52.7209 81.9509 51.9834 80.9273 51.2007C79.4973 50.0418 78.9855 49.515 77.2243 48.4013C76.0953 47.6788 75.5985 47.5433 75.4179 47.4681C74.7255 47.2724 74.1986 47.2423 73.9427 47.2423C73.3857 47.2423 72.9191 47.2423 72.4675 47.5584C71.9557 47.8895 71.7299 48.3712 71.6396 48.612C71.6396 48.7173 71.489 49.4699 71.9256 49.9967C72.3019 50.4181 72.8589 50.4933 73.0696 50.5084C73.5363 50.5987 73.6717 50.5084 74.1986 50.5084C74.7255 50.5084 75.0717 50.6438 75.8093 50.8696C76.6372 51.1405 77.2845 51.4566 77.5855 51.6071C78.4135 52.0586 79.1511 52.5704 79.8435 53.1724C81.0477 54.3313 81.8004 55.0237 82.1316 55.3247C83.9831 56.9201 86.7378 57.7931 89.1914 57.2061C91.7956 56.604 93.7525 55.0086 94.9869 52.4349C95.4836 51.4265 95.7245 50.3278 95.7696 49.1689C95.8599 47.7541 95.589 46.3694 94.9869 45.09L94.8966 44.7589V44.6686H94.9869C95.6492 45.4362 96.1159 46.3242 96.3416 47.2875C96.3416 47.2875 96.432 47.3477 96.4771 47.3326L99.8189 45.5416C99.8189 45.5416 99.8641 45.4814 99.8641 45.4362C99.4576 44.6084 98.5093 42.8174 96.432 41.3875C94.3847 39.9727 92.3526 39.7018 91.4645 39.6416H91.4193L91.4645 39.6868H91.4946Z" fill="#FB6D6B"/>
<defs>
<clipPath id="clip0_323_3117">
<rect width="177.265" height="122.68" fill="white" transform="translate(0.735107 0.620605)"/>
</clipPath>
</defs>
</svg>
