<svg width="24" height="24" viewBox="0 0 24 24" fill="none" xmlns="http://www.w3.org/2000/svg">
<path d="M12.0004 2C8.40179 2 5.40039 4.8988 5.40039 8.6C5.40039 10.0081 5.82351 11.2637 6.63555 12.4402L11.4953 20.0234C11.7311 20.3921 12.2702 20.3914 12.5055 20.0234L17.3863 12.4144C18.1809 11.2912 18.6004 9.97228 18.6004 8.6C18.6004 4.96076 15.6396 2 12.0004 2ZM12.0004 11.6C10.3463 11.6 9.00039 10.2541 9.00039 8.6C9.00039 6.94588 10.3463 5.6 12.0004 5.6C13.6545 5.6 15.0004 6.94588 15.0004 8.6C15.0004 10.2541 13.6545 11.6 12.0004 11.6Z" fill="#3F5873"/>
<path d="M16.6906 15.7871L13.6693 20.5106C12.8873 21.7299 11.1084 21.7259 10.3301 20.5117L7.30392 15.7883C4.64136 16.4039 3 17.5317 3 18.8793C3 21.2178 7.63712 22.4793 12 22.4793C16.3629 22.4793 21 21.2178 21 18.8793C21 17.5307 19.3564 16.4024 16.6906 15.7871Z" fill="#3F5873"/>
</svg>
