<svg width="18" height="19" viewBox="0 0 18 19" fill="none" xmlns="http://www.w3.org/2000/svg">
<path fill-rule="evenodd" clip-rule="evenodd" d="M3.63341 5.44392C3.63341 4.01409 4.20141 2.64282 5.21245 1.63178C6.22349 0.620733 7.59476 0.0527344 9.02459 0.0527344C10.4544 0.0527344 11.8257 0.620733 12.8367 1.63178C13.8478 2.64282 14.4158 4.01409 14.4158 5.44392C14.4158 6.87375 13.8478 8.24502 12.8367 9.25606C11.8257 10.2671 10.4544 10.8351 9.02459 10.8351C7.59476 10.8351 6.22349 10.2671 5.21245 9.25606C4.20141 8.24502 3.63341 6.87375 3.63341 5.44392ZM3.12124 13.4426C4.58315 12.8325 6.53027 12.6322 9.02459 12.6322C11.5144 12.6322 13.4588 12.8298 14.9181 13.439C16.4833 14.0923 17.4447 15.2029 17.9569 16.8175C18.001 16.9563 18.0117 17.1034 17.9883 17.2471C17.9648 17.3908 17.9077 17.5269 17.8218 17.6444C17.7358 17.7619 17.6233 17.8574 17.4935 17.9233C17.3636 17.9891 17.2201 18.0234 17.0745 18.0233H0.969264C0.349278 18.0233 -0.0981905 17.4213 0.090501 16.8238C0.600866 15.2092 1.5587 14.0986 3.12214 13.4426H3.12124Z" fill="#3F5873"/>
</svg>
