<svg width="18" height="18" viewBox="0 0 18 18" fill="none" xmlns="http://www.w3.org/2000/svg">
<path d="M17.5184 13.4664L15.1408 11.0888C14.2917 10.2397 12.8481 10.5794 12.5085 11.6832C12.2538 12.4475 11.4046 12.872 10.6404 12.7022C8.94213 12.2776 6.64947 10.0699 6.2249 8.28668C5.97016 7.52242 6.47964 6.67329 7.24386 6.41858C8.34774 6.07893 8.68739 4.6354 7.83825 3.78626L5.46068 1.40869C4.78137 0.814292 3.76241 0.814292 3.16801 1.40869L1.55466 3.02204C-0.0586972 4.72031 1.72449 9.22072 5.71542 13.2117C9.70635 17.2026 14.2068 19.0707 15.905 17.3724L17.5184 15.7591C18.1128 15.0798 18.1128 14.0608 17.5184 13.4664Z" fill="#3F5873"/>
</svg>
