<svg width="32" height="32" viewBox="0 0 32 32" fill="none" xmlns="http://www.w3.org/2000/svg">
<g clip-path="url(#clip0_311_1330)">
<path d="M16 9.25C16 9.05109 15.921 8.86032 15.7803 8.71967C15.6397 8.57902 15.4489 8.5 15.25 8.5C15.0511 8.5 14.8603 8.57902 14.7197 8.71967C14.579 8.86032 14.5 9.05109 14.5 9.25V17.5C14.5 17.6322 14.535 17.762 14.6014 17.8764C14.6678 17.9907 14.7632 18.0854 14.878 18.151L20.128 21.151C20.3003 21.2441 20.5022 21.2661 20.6905 21.2124C20.8788 21.1586 21.0386 21.0333 21.1358 20.8633C21.2329 20.6933 21.2597 20.492 21.2104 20.3024C21.1612 20.1129 21.0397 19.9502 20.872 19.849L16 17.065V9.25Z" fill="#329CD7" stroke="#329CD7" stroke-width="0.5"/>
<path d="M16 28C19.1826 28 22.2348 26.7357 24.4853 24.4853C26.7357 22.2348 28 19.1826 28 16C28 12.8174 26.7357 9.76516 24.4853 7.51472C22.2348 5.26428 19.1826 4 16 4C12.8174 4 9.76516 5.26428 7.51472 7.51472C5.26428 9.76516 4 12.8174 4 16C4 19.1826 5.26428 22.2348 7.51472 24.4853C9.76516 26.7357 12.8174 28 16 28ZM26.5 16C26.5 18.7848 25.3938 21.4555 23.4246 23.4246C21.4555 25.3938 18.7848 26.5 16 26.5C13.2152 26.5 10.5445 25.3938 8.57538 23.4246C6.60625 21.4555 5.5 18.7848 5.5 16C5.5 13.2152 6.60625 10.5445 8.57538 8.57538C10.5445 6.60625 13.2152 5.5 16 5.5C18.7848 5.5 21.4555 6.60625 23.4246 8.57538C25.3938 10.5445 26.5 13.2152 26.5 16Z" fill="black"/>
</g>
<defs>
<clipPath id="clip0_311_1330">
<rect width="24" height="24" fill="white" transform="translate(4 4)"/>
</clipPath>
</defs>
</svg>
