<svg width="1159" height="506" viewBox="0 0 1159 506" fill="none" xmlns="http://www.w3.org/2000/svg">
<g filter="url(#filter0_d_704_8)">
<path d="M24 466C24 471.601 24 474.401 25.0899 476.54C26.0487 478.422 27.5785 479.951 29.4601 480.91C31.5992 482 34.3995 482 40 482H1113.51C1123.39 482 1128.33 482 1131.02 479.946C1133.36 478.156 1134.79 475.426 1134.93 472.482C1135.1 469.103 1132.29 465.038 1126.68 456.91L885.053 106.931C883.488 104.664 882.706 103.531 881.698 102.676C880.805 101.918 879.786 101.323 878.688 100.918C877.448 100.461 876.076 100.336 873.333 100.087L41.4462 24.5835C35.395 24.0342 32.3695 23.7596 30.0334 24.7691C27.9811 25.6559 26.2852 27.2049 25.2165 29.1686C24 31.4039 24 34.4419 24 40.518V466Z" fill="white"/>
</g>
<defs>
<filter id="filter0_d_704_8" x="0" y="0.0898438" width="1158.94" height="505.91" filterUnits="userSpaceOnUse" color-interpolation-filters="sRGB">
<feFlood flood-opacity="0" result="BackgroundImageFix"/>
<feColorMatrix in="SourceAlpha" type="matrix" values="0 0 0 0 0 0 0 0 0 0 0 0 0 0 0 0 0 0 127 0" result="hardAlpha"/>
<feOffset/>
<feGaussianBlur stdDeviation="12"/>
<feComposite in2="hardAlpha" operator="out"/>
<feColorMatrix type="matrix" values="0 0 0 0 0 0 0 0 0 0.176471 0 0 0 0 0.447059 0 0 0 0.1 0"/>
<feBlend mode="normal" in2="BackgroundImageFix" result="effect1_dropShadow_704_8"/>
<feBlend mode="normal" in="SourceGraphic" in2="effect1_dropShadow_704_8" result="shape"/>
</filter>
</defs>
</svg>
