<svg width="1111" height="458" viewBox="0 0 1111 458" fill="none" xmlns="http://www.w3.org/2000/svg">
<path d="M0 441.909C0 447.51 -9.53674e-07 450.31 1.0899 452.449C2.0487 454.331 3.5785 455.86 5.4601 456.819C7.5992 457.909 10.3995 457.909 16 457.909H1089.51C1099.39 457.909 1104.33 457.909 1107.02 455.855C1109.36 454.065 1110.79 451.335 1110.93 448.391C1111.1 445.012 1108.29 440.947 1102.68 432.819L861.053 82.8397C859.488 80.5727 858.706 79.4397 857.698 78.5847C856.805 77.8267 855.786 77.2317 854.688 76.8267C853.448 76.3697 852.076 76.2447 849.333 75.9957L17.4462 0.492223C11.395 -0.0570767 8.3695 -0.331676 6.0334 0.677824C3.9811 1.56462 2.2852 3.11362 1.2165 5.07732C-7.15256e-07 7.31262 0 10.3506 0 16.4267V441.909Z" fill="white"/>
</svg>
