<svg width="40" height="40" viewBox="0 0 40 40" fill="none" xmlns="http://www.w3.org/2000/svg">
<circle cx="20" cy="20" r="20" fill="#329CD7"/>
<path d="M26.5113 12.9453C26.2115 12.9453 25.9675 13.1893 25.9675 13.4891C25.9675 13.7889 26.2115 14.0329 26.5113 14.0329C26.8111 14.0329 27.0551 13.789 27.0551 13.4891C27.0551 13.1893 26.8111 12.9453 26.5113 12.9453ZM19.9999 15.1794C17.3416 15.1794 15.1788 17.3421 15.1788 20.0005C15.1788 22.6588 17.3416 24.8216 19.9999 24.8216C22.6583 24.8216 24.821 22.6589 24.821 20.0005C24.821 17.3422 22.6583 15.1794 19.9999 15.1794Z" fill="#F6FCFF"/>
<path d="M25.0593 8.80078H14.9406C11.5546 8.80078 8.79993 11.5555 8.79993 14.9414V25.0602C8.79993 28.4462 11.5546 31.2008 14.9406 31.2008H25.0593C28.4453 31.2008 31.1999 28.4461 31.1999 25.0602V14.9414C31.1999 11.5555 28.4453 8.80078 25.0593 8.80078ZM19.9999 26.1447C16.6122 26.1447 13.8561 23.3886 13.8561 20.0008C13.8561 16.613 16.6122 13.857 19.9999 13.857C23.3877 13.857 26.1438 16.6131 26.1438 20.0008C26.1438 23.3885 23.3877 26.1447 19.9999 26.1447ZM26.5113 15.3561C25.482 15.3561 24.6447 14.5187 24.6447 13.4895C24.6447 12.4602 25.482 11.6228 26.5113 11.6228C27.5406 11.6228 28.3779 12.4602 28.3779 13.4894C28.3779 14.5187 27.5406 15.3561 26.5113 15.3561Z" fill="#F6FCFF"/>
</svg>
