<svg width="22" height="22" viewBox="0 0 22 22" fill="none" xmlns="http://www.w3.org/2000/svg">
<path d="M13.9997 11.25H10.9996V13.4401C10.9996 13.4866 10.9866 13.5321 10.9622 13.5716C10.9377 13.6112 10.9027 13.6431 10.8611 13.6638C10.8196 13.6846 10.773 13.6933 10.7267 13.6891C10.6805 13.6848 10.6363 13.6678 10.5991 13.6398L9.7495 13.0001L8.89985 13.6398C8.86273 13.6678 8.81855 13.6848 8.77227 13.6891C8.72599 13.6933 8.67945 13.6846 8.63786 13.6638C8.59628 13.6431 8.56129 13.6112 8.53684 13.5716C8.51239 13.5321 8.49943 13.4866 8.49943 13.4401V11.25H5.4993C5.23416 11.2503 4.97996 11.3557 4.79248 11.5432C4.605 11.7307 4.49955 11.9849 4.49927 12.25V14.7319L5.22221 14.4906C5.99094 14.2356 6.82115 14.2334 7.59119 14.4845C7.59119 14.4845 10.7246 15.5111 10.7346 15.5148C11.2785 15.7087 11.7328 16.0948 12.0118 16.6003L14.7739 16.1906C14.8479 16.1796 14.9239 16.1779 14.9997 16.1739V12.2501C14.9995 11.9849 14.894 11.7307 14.7065 11.5432C14.5191 11.3557 14.2649 11.2503 13.9997 11.25Z" fill="#329CD7"/>
<path d="M16.4119 18.0581C16.3003 17.7639 16.0918 17.5164 15.8207 17.3566C15.5496 17.1968 15.2321 17.1342 14.9206 17.1792L11.2977 17.7162C11.2945 17.4385 11.206 17.1685 11.0443 16.9427C10.8825 16.717 10.6553 16.5464 10.3933 16.4541L7.27989 15.4338C6.71389 15.2496 6.10383 15.2513 5.53883 15.4385L3.49274 16.1213C3.49541 16.1639 3.49921 16.2062 3.49921 16.2495V20.7497C3.49847 20.8436 3.49111 20.9373 3.47717 21.0302L4.92971 20.7869C5.10197 20.7581 5.27893 20.7847 5.43509 20.8629L6.96956 21.6302C7.38034 21.8369 7.82805 21.9602 8.28677 21.9928C8.7455 22.0254 9.20613 21.9667 9.64203 21.8201L15.5579 19.8481C15.7335 19.7895 15.8956 19.6961 16.0343 19.5736C16.173 19.451 16.2856 19.3017 16.3653 19.1346C16.4451 18.9675 16.4903 18.786 16.4983 18.6011C16.5063 18.4161 16.4769 18.2314 16.412 18.0581L16.4119 18.0581Z" fill="#329CD7"/>
<path d="M1.49909 15.25H0.999053C0.446752 15.25 -0.000976562 15.6977 -0.000976562 16.25V20.7503C-0.000976562 21.3026 0.446752 21.7503 0.999053 21.7503H1.49909C2.05139 21.7503 2.49912 21.3026 2.49912 20.7503V16.25C2.49912 15.6977 2.05139 15.25 1.49909 15.25Z" fill="#329CD7"/>
<path d="M15.8594 8.50024H10.6863C10.1731 8.50016 9.67848 8.30853 9.2992 7.96286C8.91992 7.61719 8.68334 7.1424 8.63578 6.63144C8.58822 6.12049 8.73311 5.61018 9.04208 5.20045C9.35105 4.79073 9.80183 4.51109 10.3062 4.41631L13.6022 3.79837C13.6828 3.78204 13.7582 3.74635 13.822 3.69437C13.8857 3.64239 13.9359 3.57568 13.9681 3.5H5.4993C5.23416 3.50029 4.97996 3.60574 4.79248 3.79322C4.605 3.9807 4.49955 4.23489 4.49927 4.50003V8.75023C4.49955 9.01537 4.605 9.26957 4.79248 9.45705C4.97996 9.64453 5.23416 9.74998 5.4993 9.75026H15.9998C16.2649 9.74998 16.5191 9.64453 16.7066 9.45705C16.8941 9.26957 16.9995 9.01537 16.9998 8.75023V8.3477C16.6278 8.4474 16.2445 8.49867 15.8594 8.50024Z" fill="#329CD7"/>
<path d="M18.5 6.00043V1.50023C18.5002 1.42707 18.5044 1.35397 18.5125 1.28127L13.1728 0.0938219C12.3809 -0.0934879 11.5484 0.00149395 10.8189 0.362381L8.87063 1.25562C8.41402 1.48474 8.01271 1.81044 7.69453 2.21013L7.46399 2.5003H14.6856C14.766 2.50034 14.8451 2.51973 14.9164 2.55685C14.9877 2.59396 15.049 2.6477 15.0951 2.71352C15.1412 2.77934 15.1708 2.8553 15.1813 2.93497C15.1918 3.01464 15.183 3.09567 15.1556 3.17121L14.9197 3.81994C14.8302 4.06455 14.6787 4.28174 14.4801 4.4503C14.2815 4.61887 14.0425 4.73304 13.7866 4.78167L10.4912 5.39951C10.2313 5.44778 9.99884 5.59145 9.83946 5.80231C9.68008 6.01318 9.60528 6.27601 9.62975 6.5392C9.65422 6.80238 9.77619 7.04692 9.97171 7.22479C10.1672 7.40266 10.4222 7.50101 10.6865 7.50054H15.8595C16.3521 7.50125 16.8392 7.39726 17.2885 7.19547L18.5964 6.6118C18.5326 6.41428 18.5 6.208 18.5 6.00043ZM19.5 6.00043C19.5003 6.26556 19.6057 6.51976 19.7932 6.70724C19.9807 6.89472 20.2349 7.00017 20.5 7.00046H21.0001C21.2652 7.00017 21.5194 6.89472 21.7069 6.70724C21.8944 6.51976 21.9998 6.26556 22.0001 6.00043V1.50023C21.9998 1.23509 21.8944 0.980896 21.7069 0.793416C21.5194 0.605936 21.2652 0.500485 21.0001 0.500199H20.5001C20.235 0.500485 19.9808 0.605936 19.7933 0.793416C19.6058 0.980896 19.5003 1.23509 19.5001 1.50023" fill="#329CD7"/>
</svg>
