<svg width="18" height="18" viewBox="0 0 18 18" fill="none" xmlns="http://www.w3.org/2000/svg">
<path d="M15.6991 18.0007H2.30107C1.69034 18.0007 1.10462 17.7581 0.672761 17.3262C0.240905 16.8944 -0.00170898 16.3087 -0.00170898 15.6979V3.97466C-0.00170898 3.36392 0.240905 2.7782 0.672761 2.34634C1.10462 1.91449 1.69034 1.67188 2.30107 1.67188H15.6991C16.3098 1.67188 16.8955 1.91449 17.3274 2.34634C17.7593 2.7782 18.0019 3.36392 18.0019 3.97466V15.6979C18.0019 16.3087 17.7593 16.8944 17.3274 17.3262C16.8955 17.7581 16.3098 18.0007 15.6991 18.0007ZM2.30107 2.92794C2.02347 2.92794 1.75723 3.03822 1.56093 3.23452C1.36463 3.43081 1.25435 3.69705 1.25435 3.97466V15.6979C1.25435 15.9755 1.36463 16.2418 1.56093 16.4381C1.75723 16.6344 2.02347 16.7446 2.30107 16.7446H15.6991C15.9767 16.7446 16.2429 16.6344 16.4392 16.4381C16.6355 16.2418 16.7458 15.9755 16.7458 15.6979V3.97466C16.7458 3.69705 16.6355 3.43081 16.4392 3.23452C16.2429 3.03822 15.9767 2.92794 15.6991 2.92794H2.30107Z" fill="#329CD7"/>
<path d="M10.6748 2.92691C10.5089 2.92474 10.3505 2.85788 10.2331 2.74057C10.1158 2.62325 10.049 2.46477 10.0468 2.29888V0.624126C10.0468 0.457561 10.113 0.297819 10.2307 0.18004C10.3485 0.0622612 10.5083 -0.00390625 10.6748 -0.00390625C10.8414 -0.00390625 11.0011 0.0622612 11.1189 0.18004C11.2367 0.297819 11.3029 0.457561 11.3029 0.624126V2.29888C11.3007 2.46477 11.2338 2.62325 11.1165 2.74057C10.9992 2.85788 10.8407 2.92474 10.6748 2.92691ZM14.0243 2.92691C13.8584 2.92474 13.7 2.85788 13.5826 2.74057C13.4653 2.62325 13.3985 2.46477 13.3963 2.29888V0.624126C13.3963 0.457561 13.4625 0.297819 13.5802 0.18004C13.698 0.0622612 13.8578 -0.00390625 14.0243 -0.00390625C14.1909 -0.00390625 14.3506 0.0622612 14.4684 0.18004C14.5862 0.297819 14.6524 0.457561 14.6524 0.624126V2.29888C14.6502 2.46477 14.5833 2.62325 14.466 2.74057C14.3487 2.85788 14.1902 2.92474 14.0243 2.92691ZM7.32533 2.92691C7.15944 2.92474 7.00095 2.85788 6.88364 2.74057C6.76633 2.62325 6.69947 2.46477 6.6973 2.29888V0.624126C6.6973 0.457561 6.76347 0.297819 6.88124 0.18004C6.99902 0.0622612 7.15876 -0.00390625 7.32533 -0.00390625C7.49189 -0.00390625 7.65164 0.0622612 7.76941 0.18004C7.88719 0.297819 7.95336 0.457561 7.95336 0.624126V2.29888C7.95119 2.46477 7.88433 2.62325 7.76702 2.74057C7.6497 2.85788 7.49122 2.92474 7.32533 2.92691ZM3.97583 2.92691C3.80994 2.92474 3.65145 2.85788 3.53414 2.74057C3.41683 2.62325 3.34996 2.46477 3.34779 2.29888V0.624126C3.34779 0.457561 3.41396 0.297819 3.53174 0.18004C3.64952 0.0622612 3.80926 -0.00390625 3.97583 -0.00390625C4.14239 -0.00390625 4.30213 0.0622612 4.41991 0.18004C4.53769 0.297819 4.60386 0.457561 4.60386 0.624126V2.29888C4.60169 2.46477 4.53483 2.62325 4.41751 2.74057C4.3002 2.85788 4.14172 2.92474 3.97583 2.92691ZM17.3738 7.11379H0.626323C0.459758 7.11379 0.300016 7.04762 0.182237 6.92984C0.0644585 6.81206 -0.00170898 6.65232 -0.00170898 6.48576C-0.00170898 6.31919 0.0644585 6.15945 0.182237 6.04167C0.300016 5.92389 0.459758 5.85773 0.626323 5.85773H17.3738C17.5404 5.85773 17.7001 5.92389 17.8179 6.04167C17.9357 6.15945 18.0019 6.31919 18.0019 6.48576C18.0019 6.65232 17.9357 6.81206 17.8179 6.92984C17.7001 7.04762 17.5404 7.11379 17.3738 7.11379Z" fill="#329CD7"/>
<path d="M3.97562 10.6705C4.43799 10.6705 4.81281 10.2957 4.81281 9.83328C4.81281 9.37092 4.43799 8.99609 3.97562 8.99609C3.51325 8.99609 3.13843 9.37092 3.13843 9.83328C3.13843 10.2957 3.51325 10.6705 3.97562 10.6705Z" fill="#329CD7"/>
<path d="M7.32511 10.6705C7.78747 10.6705 8.1623 10.2957 8.1623 9.83328C8.1623 9.37092 7.78747 8.99609 7.32511 8.99609C6.86274 8.99609 6.48792 9.37092 6.48792 9.83328C6.48792 10.2957 6.86274 10.6705 7.32511 10.6705Z" fill="#329CD7"/>
<path d="M10.6747 10.6705C11.1371 10.6705 11.5119 10.2957 11.5119 9.83328C11.5119 9.37092 11.1371 8.99609 10.6747 8.99609C10.2123 8.99609 9.83752 9.37092 9.83752 9.83328C9.83752 10.2957 10.2123 10.6705 10.6747 10.6705Z" fill="#329CD7"/>
<path d="M14.0243 10.6705C14.4867 10.6705 14.8615 10.2957 14.8615 9.83328C14.8615 9.37092 14.4867 8.99609 14.0243 8.99609C13.562 8.99609 13.1871 9.37092 13.1871 9.83328C13.1871 10.2957 13.562 10.6705 14.0243 10.6705Z" fill="#329CD7"/>
<path d="M3.97562 14.022C4.43799 14.022 4.81281 13.6472 4.81281 13.1848C4.81281 12.7225 4.43799 12.3477 3.97562 12.3477C3.51325 12.3477 3.13843 12.7225 3.13843 13.1848C3.13843 13.6472 3.51325 14.022 3.97562 14.022Z" fill="#329CD7"/>
<path d="M7.32511 14.022C7.78747 14.022 8.1623 13.6472 8.1623 13.1848C8.1623 12.7225 7.78747 12.3477 7.32511 12.3477C6.86274 12.3477 6.48792 12.7225 6.48792 13.1848C6.48792 13.6472 6.86274 14.022 7.32511 14.022Z" fill="#329CD7"/>
<path d="M10.6747 14.022C11.1371 14.022 11.5119 13.6472 11.5119 13.1848C11.5119 12.7225 11.1371 12.3477 10.6747 12.3477C10.2123 12.3477 9.83752 12.7225 9.83752 13.1848C9.83752 13.6472 10.2123 14.022 10.6747 14.022Z" fill="#329CD7"/>
<path d="M14.0243 14.022C14.4867 14.022 14.8615 13.6472 14.8615 13.1848C14.8615 12.7225 14.4867 12.3477 14.0243 12.3477C13.562 12.3477 13.1871 12.7225 13.1871 13.1848C13.1871 13.6472 13.562 14.022 14.0243 14.022Z" fill="#329CD7"/>
</svg>
