<svg width="20" height="15" viewBox="0 0 20 15" fill="none" xmlns="http://www.w3.org/2000/svg">
<path d="M17.8468 0H5.3196C4.33098 0 3.51519 0.801964 3.49445 1.79059H14.6805C16.4503 1.79059 17.8883 3.23551 17.8883 5.00536V11.6354C18.3666 11.6235 18.8214 11.4254 19.1559 11.0832C19.4903 10.741 19.678 10.2818 19.6789 9.80332V1.83207C19.6789 0.822704 18.8562 0 17.8468 0Z" fill="#329CD7"/>
<path d="M14.6804 3.17578H2.15318C1.14381 3.17578 0.321106 3.99849 0.321106 5.00785V6.30759H16.5056V5.00785C16.5056 3.99849 15.6829 3.17578 14.6804 3.17578ZM0.321106 12.9791C0.321106 13.9885 1.14381 14.8112 2.15318 14.8112H14.6804C15.6829 14.8112 16.5056 13.9885 16.5056 12.9791V7.69028H0.321106V12.9791ZM11.3205 10.6631H13.3945C13.7747 10.6631 14.0858 10.9673 14.0858 11.3544C14.0858 11.7347 13.7747 12.0458 13.3945 12.0458H11.3205C10.9402 12.0458 10.6291 11.7347 10.6291 11.3544C10.6291 10.9673 10.9402 10.6631 11.3205 10.6631Z" fill="#329CD7"/>
</svg>
