<svg width="40" height="40" viewBox="0 0 40 40" fill="none" xmlns="http://www.w3.org/2000/svg">
<path d="M33.5765 6.42428C29.9501 2.79803 25.1284 0.800781 20 0.800781C14.8716 0.800781 10.0499 2.79796 6.4235 6.42428C2.79725 10.0507 0.8 14.8724 0.8 20.0008C0.8 25.1292 2.79718 29.9509 6.4235 33.5773C10.0499 37.2035 14.8716 39.2008 20 39.2008C25.1284 39.2008 29.9501 37.2036 33.5765 33.5773C37.2028 29.9509 39.2 25.1292 39.2 20.0008C39.2 14.8724 37.2028 10.0507 33.5765 6.42428ZM9.13288 32.9981C9.76693 27.5429 14.4571 23.3313 20 23.3313C22.922 23.3313 25.6699 24.4697 27.7367 26.5364C29.4828 28.2827 30.5841 30.5629 30.8674 32.9978C27.9231 35.4637 24.1321 36.9508 20 36.9508C15.868 36.9508 12.0772 35.464 9.13288 32.9981ZM20 21.0138C16.7847 21.0138 14.1685 18.3977 14.1685 15.1823C14.1685 11.9667 16.7848 9.35078 20 9.35078C23.2153 9.35078 25.8316 11.9667 25.8316 15.1823C25.8316 18.3977 23.2153 21.0139 20 21.0139V21.0138ZM32.8039 31.0958C32.2258 28.7678 31.0239 26.6415 29.3275 24.9455C27.9448 23.5627 26.3088 22.5253 24.5246 21.8752C26.6695 20.4206 28.0816 17.9632 28.0816 15.1823C28.0816 10.7263 24.4561 7.10078 20 7.10078C15.544 7.10078 11.9185 10.7263 11.9185 15.1823C11.9185 17.9647 13.3318 20.423 15.4783 21.8773C13.8368 22.4755 12.3178 23.4004 11.0109 24.6179C9.11825 26.3804 7.80403 28.6278 7.19465 31.094C4.6139 28.1189 3.05 24.2392 3.05 20.0008C3.05 10.6545 10.6537 3.05078 20 3.05078C29.3463 3.05078 36.95 10.6545 36.95 20.0008C36.95 24.24 35.3855 28.1207 32.8039 31.0958Z" fill="#329CD7"/>
</svg>
