<svg width="14" height="22" viewBox="0 0 14 22" fill="none" xmlns="http://www.w3.org/2000/svg">
<path d="M6.99983 0.5C10.8597 0.5 14 3.64035 14 7.50017C14 8.65889 13.7103 9.80776 13.1596 10.8268L7.38264 21.2749C7.30573 21.4142 7.15918 21.5005 6.99983 21.5005C6.84048 21.5005 6.69393 21.4142 6.61702 21.2749L0.837955 10.8233C0.289358 9.80776 -0.000340462 8.65885 -0.000340462 7.50013C-0.000340462 3.64035 3.14001 0.5 6.99983 0.5ZM6.99983 11.0002C8.92974 11.0002 10.4999 9.43008 10.4999 7.50017C10.4999 5.57026 8.92974 4.00011 6.99983 4.00011C5.06992 4.00011 3.49976 5.57026 3.49976 7.50017C3.49976 9.43008 5.06992 11.0002 6.99983 11.0002Z" fill="#329CD7"/>
</svg>
