<svg width="30" height="34" viewBox="0 0 30 34" fill="none" xmlns="http://www.w3.org/2000/svg">
<path d="M0.879999 28.62L3.17 10.34C3.19 10.19 3.21 10.05 3.25 9.91C3.27 9.82 3.29 9.74 3.32 9.66C3.39 9.44 3.48 9.23 3.58 9.03C3.74 8.73 3.94 8.45 4.18 8.2C4.26 8.12 4.34 8.04 4.43 7.96C4.52 7.89 4.6 7.81 4.7 7.74C4.79 7.67 4.88 7.61 4.98 7.55C5.57 7.19 6.25 7 6.95 7H22.9C23.48 7 24.05 7.13 24.56 7.38C24.87 7.53 25.16 7.73 25.42 7.96C25.51 8.04 25.59 8.12 25.67 8.2C26.23 8.79 26.58 9.53 26.68 10.33L27.7 18.46V18.48L28.97 28.62C29.04 29.16 28.99 29.7 28.83 30.22C28.67 30.74 28.4 31.21 28.05 31.62C27.69 32.02 27.25 32.35 26.76 32.57C26.26 32.79 25.73 32.91 25.19 32.91H4.66C4.57 32.91 4.48 32.9 4.39 32.89H4.38C3.94 32.86 3.5 32.75 3.1 32.57C2.6 32.34 2.16 32.02 1.81 31.61C1.45 31.21 1.18 30.73 1.02 30.22C0.860001 29.7 0.809999 29.15 0.879999 28.62ZM2.48 29.77C2.57 30.08 2.74 30.36 2.95 30.6C3.16 30.85 3.43 31.04 3.72 31.18C3.97 31.29 4.24 31.36 4.51 31.37C4.56 31.37 4.61 31.37 4.66 31.37H25.19C25.25 31.37 25.31 31.35 25.37 31.37C25.63 31.35 25.89 31.29 26.13 31.18C26.42 31.05 26.69 30.85 26.9 30.61C27.12 30.37 27.28 30.08 27.37 29.77C27.47 29.46 27.5 29.13 27.46 28.81L26.19 18.65L25.17 10.52C25.1 9.97 24.83 9.47 24.42 9.1C24 8.72 23.46 8.52 22.9 8.52H6.95C6.39 8.52 5.85 8.72 5.44 9.09C5.02 9.47 4.75 9.97 4.68 10.52L3.65 18.76V18.8L2.39 28.81C2.35 29.13 2.38 29.46 2.48 29.77Z" fill="#329CD7" stroke="#329CD7" stroke-width="0.2"/>
<path d="M9.52049 13.9925C9.721 13.9925 9.9215 13.9123 10.0618 13.7719C10.2022 13.6316 10.2824 13.4311 10.2824 13.2306V7.11529C10.2824 5.90226 10.7636 4.72932 11.6258 3.87719C12.4879 3.02506 13.6508 2.53383 14.8639 2.53383C16.0769 2.53383 17.2498 3.01504 18.1019 3.87719C18.9641 4.73935 19.4453 5.90226 19.4453 7.11529V13.2306C19.4453 13.4311 19.5255 13.6316 19.6659 13.7719C19.8062 13.9123 20.0067 13.9925 20.2072 13.9925C20.4077 13.9925 20.6082 13.9123 20.7486 13.7719C20.8889 13.6316 20.9691 13.4311 20.9691 13.2306V7.11529C20.9691 5.49123 20.3275 3.93734 19.1746 2.79449C18.0318 1.65163 16.4779 1 14.8538 1C13.2298 1 11.6759 1.6416 10.533 2.79449C9.39017 3.93734 8.73854 5.49123 8.73854 7.11529V13.2306C8.73854 13.4311 8.81874 13.6316 8.95909 13.7719C9.09944 13.9123 9.29994 13.9925 9.50044 13.9925H9.52049Z" fill="#329CD7" stroke="#329CD7" stroke-width="0.2"/>
</svg>
