<svg width="30" height="30" viewBox="0 0 30 30" fill="none" xmlns="http://www.w3.org/2000/svg">
<path fill-rule="evenodd" clip-rule="evenodd" d="M15 30C23.2615 30 30 23.2615 30 15C30 6.73846 23.2615 0 15 0C6.73846 0 0 6.73846 0 15C0 23.2615 6.73846 30 15 30Z" fill="#2196F3"/>
<path d="M22.5913 20.083V21.3199H7.40875V20.083L9.29489 18.3575C9.32302 18.3318 9.34549 18.3005 9.36084 18.2656C9.3762 18.2307 9.38411 18.193 9.38407 18.1549V13.306C9.38407 10.225 11.8782 7.71516 14.9533 7.69002C14.5632 7.67666 14.2141 7.50029 13.9721 7.22654C13.7497 6.97592 13.627 6.65238 13.6272 6.31729C13.6272 5.56078 14.2431 4.94531 15.0004 4.94531C15.7573 4.94531 16.3728 5.56078 16.3728 6.31729C16.373 6.6523 16.2505 6.97578 16.0283 7.22654C15.7864 7.50029 15.4372 7.67666 15.0476 7.69002C18.123 7.71516 20.6172 10.225 20.6172 13.306V18.1549C20.6172 18.2319 20.6494 18.3053 20.7064 18.3575L22.5913 20.083ZM12.427 21.8686H11.8763C11.9258 22.7017 12.2011 23.4547 12.6642 24.0112C13.2314 24.6935 14.0393 25.054 15.0005 25.054C15.9596 25.054 16.7668 24.6946 17.3339 24.0144C17.7982 23.4578 18.0743 22.7037 18.1238 21.8686H17.5732H12.427Z" fill="white"/>
</svg>
