<svg width="138" height="97" viewBox="0 0 138 97" fill="none" xmlns="http://www.w3.org/2000/svg">
<g clip-path="url(#clip0_280_5)">
<path d="M121.836 1.09427V1.1293L103.922 34.0671C103.164 35.4332 102.417 36.811 101.658 38.1654C100.561 38.1654 99.4409 38.1537 98.3439 38.1304C104.529 26.7697 110.691 15.4207 116.876 4.03661C116.876 4.03661 116.876 3.91985 116.83 3.90817H116.748V3.87314H81.1534V1.03589C94.7261 1.04756 108.287 1.08259 121.836 1.10594V1.09427Z" fill="#3869AF"/>
<path d="M79.6713 71.1855H82.7989C82.7989 71.1855 82.9506 71.2205 82.9506 71.3023V71.384L69.4831 95.9852C69.4831 95.9852 69.3664 96.0786 69.2847 96.0553C69.2847 96.0553 69.2497 96.0202 69.2146 95.9852L55.8638 71.4424C55.8638 71.4424 55.8638 71.2906 55.9338 71.2322H56.0155L59.0498 71.2672C59.0498 71.2672 59.1431 71.2672 59.1665 71.349L69.2263 89.8904C69.2263 89.8904 69.343 89.9838 69.4247 89.9604L69.4947 89.8904L79.5312 71.2906C79.5312 71.2906 79.6129 71.2089 79.6479 71.2089L79.6129 71.1738H79.6829L79.6713 71.1855Z" fill="#3869AF"/>
<path d="M43.2834 33.9273C44.0537 35.3051 44.8239 36.7062 45.5825 38.0839C44.6022 38.0839 43.6335 38.0839 42.6416 38.0723C41.883 36.6945 41.1361 35.2934 40.3658 33.9156H40.3542C35.2309 24.5982 30.1543 15.2925 25.031 5.9634C25.031 5.9634 25.031 5.84664 25.0777 5.84664H25.1127C32.3133 5.81162 39.5139 5.79994 46.7145 5.76491C47.088 5.76491 48.29 5.76491 49.9122 5.75324C53.1565 5.75324 55.8057 5.74156 57.5446 5.75324C57.5446 6.67564 57.5563 7.57468 57.5796 8.47373C53.2499 8.47373 46.4578 8.47373 42.1281 8.50876V8.46206C38.9654 8.46206 32.4767 8.47373 29.3024 8.49708C30.0609 9.87485 30.8312 11.2526 31.6014 12.6537C35.511 19.741 39.4089 26.84 43.2951 33.939L43.2834 33.9273Z" fill="#2F9CD7" stroke="#329CD7" stroke-width="0.0467038" stroke-miterlimit="10"/>
<path d="M113.644 5.81184V5.84687C112.921 7.17793 112.057 8.78921 111.334 10.1086C106.245 19.4844 101.157 28.8018 96.0454 38.0958C95.0767 38.1075 94.1081 38.1075 93.1045 38.1075C98.5195 28.2297 103.911 18.3518 109.326 8.46228H96.5356C91.4123 8.46228 86.3007 8.46228 81.1774 8.42725V5.76514C91.9841 5.76514 102.814 5.77681 113.621 5.80016H113.633L113.644 5.81184Z" fill="#2F9CD7" stroke="#329CD7" stroke-width="0.0467038" stroke-miterlimit="10"/>
<path d="M102.429 26.4431C101.087 28.9067 99.7562 31.347 98.4141 33.8106H98.4025C99.7446 31.347 101.098 28.9067 102.44 26.4431H102.429Z" fill="#329CD7" stroke="#329CD7" stroke-width="0.0467038" stroke-miterlimit="10"/>
<path d="M21.8683 4.01343V4.04846L38.1251 33.9973C38.8604 35.3634 39.5839 36.7178 40.3192 38.0722H37.0165C36.2929 36.7411 35.5577 35.3984 34.8341 34.0673L16.9084 1.14115C16.9084 1.14115 16.9084 1.01271 16.9435 0.989361H34.2389C35.0092 0.989361 35.5693 0.977685 35.6277 0.977685C36.468 0.966009 42.7116 0.930981 57.5329 0.884277V3.99008C53.3316 3.99008 43.9953 4.00176 39.8173 4.02511C35.5343 4.02511 26.1514 4.02511 21.8683 4.03678V4.01343Z" fill="#3869AF"/>
<path d="M69.308 86.4106C69.308 86.4106 69.4247 86.4106 69.483 86.3405L77.769 71.2786H74.8047L69.5531 81.063C69.5531 81.063 69.5181 81.098 69.483 81.1331C69.413 81.1681 69.3663 81.1331 69.308 81.063L63.9746 71.2786H61.0687L69.2847 86.3405L69.3547 86.4106H69.308Z" fill="#329CD7"/>
<path d="M5.47149 45.6613C3.8143 43.186 2.22714 40.7224 0.569946 38.2588C14.551 41.5047 28.5438 44.7273 42.5482 47.9732L44.5672 51.6278C31.5197 49.6312 18.4956 47.6346 5.45982 45.6847V45.6497L5.47149 45.6613Z" fill="#3869AF"/>
<path d="M5.69275 46.0352C18.7169 48.0317 31.741 49.9933 44.7651 51.9782C45.1735 52.7955 45.617 53.6245 46.0722 54.4418C33.9817 53.5778 21.8795 52.6905 9.75403 51.8031C8.41194 49.8999 7.04651 47.9617 5.70442 46.0585H5.69275V46.0352Z" fill="#2B88C9"/>
<path d="M9.88252 52.1887L46.1423 54.7691C46.5041 55.4579 46.8425 56.1118 47.2276 56.7657C36.0941 57.1743 24.9606 57.583 13.8271 57.9916C12.4967 56.0534 11.1896 54.1152 9.87085 52.177H9.88252V52.1887Z" fill="#329CD7"/>
<path d="M133.11 45.6617C120.062 47.6583 107.038 49.6549 94.0023 51.6048L96.0213 47.9502C110.049 44.7043 124.007 41.4818 138 38.2358C136.354 40.7111 134.755 43.1748 133.098 45.6384V45.6734L133.11 45.6617Z" fill="#3869AF"/>
<path d="M132.911 46.0585C131.569 47.9617 130.204 49.8999 128.862 51.8031C116.771 52.6671 104.669 53.5545 92.5435 54.4418C92.9753 53.6245 93.4187 52.7955 93.8505 51.9782C106.898 49.97 119.922 47.985 132.923 46.0352H132.911V46.0585Z" fill="#2B88C9"/>
<path d="M124.719 58.0034C113.585 57.5947 102.452 57.1861 91.3182 56.7774C91.68 56.1352 92.0185 55.4464 92.4036 54.7808L128.663 52.2004C127.333 54.1386 126.026 56.0769 124.707 58.0151H124.719V58.0034Z" fill="#329CD7"/>
<path d="M111.357 10.1549C108.801 14.8019 106.257 19.4606 103.701 24.1193C106.245 19.4372 108.789 14.7785 111.345 10.1082V10.1549H111.357Z" fill="#329CD7" stroke="#329CD7" stroke-width="0.0467038" stroke-miterlimit="10"/>
</g>
<path d="M87.3862 63.7242C87.3862 64.1796 87.0361 64.5649 86.5927 64.5649H52.3052C51.8734 64.5649 51.5116 64.2029 51.5116 63.7242V15.3741C51.5116 14.9188 51.8617 14.5334 52.3052 14.5334H86.581C87.0128 14.5334 87.3746 14.8954 87.3746 15.3741V63.7359H87.3862V63.7242ZM86.651 42.2054V31.954C86.651 29.2568 86.686 27.9024 86.7444 26.6181C86.8961 23.1503 86.7444 19.6358 86.7444 16.1798C86.7444 15.3741 86.3943 15.2924 85.694 15.2924H52.9004C52.5736 15.2924 52.3285 15.5493 52.3052 15.8528C52.2702 16.4133 52.2585 16.962 52.2585 17.5575V62.9186C52.2585 62.9186 52.2585 63.2805 52.4219 63.5257C52.4686 63.5958 52.5386 63.6425 52.5853 63.7009C52.6786 63.7826 52.7953 63.806 52.9354 63.806C53.1454 63.806 53.3672 63.8176 53.5889 63.841H86.0325C86.4059 63.841 86.7444 63.514 86.7444 63.1638V53.9398C86.7444 50.8807 86.7094 47.8333 86.6977 44.7742V42.2638C86.6977 42.2638 86.6977 42.2288 86.6627 42.2288H86.6277H86.6393L86.651 42.2054Z" fill="#329CD7" stroke="#329CD7" stroke-width="0.163463"/>
<path d="M64.1965 22.2159C64.1031 22.2159 64.0331 22.2859 64.0214 22.3676V22.4494C64.1381 22.8113 63.9397 22.9865 63.5896 22.9865H54.4167C53.7982 22.9865 53.8799 22.8347 53.7165 22.3093C53.7165 22.2626 53.6698 22.2275 53.5998 22.2159C53.1447 22.1691 52.9113 21.924 52.9113 21.5153C52.9113 19.869 52.9113 18.2811 52.9463 16.7048C52.9463 16.3429 53.238 16.0977 53.5531 16.0977L64.2665 16.1327C64.5816 16.1327 64.8267 16.3896 64.8267 16.6931C64.8267 18.3044 64.8617 19.8807 64.8267 21.4336C64.8267 21.8889 64.6633 22.2742 64.1381 22.2159H64.2082H64.1965ZM59.6567 17.0434L54.37 17.1135C54.2067 17.1135 54.055 17.2419 54.055 17.4404V20.8498C54.055 20.9665 54.1717 21.0833 54.3 21.0833C57.381 21.0833 60.497 21.0833 63.6713 21.1183C64.0331 21.1183 64.1148 21.5503 64.1148 21.8422C64.1148 21.9356 64.1965 21.994 64.2665 21.994C64.3132 21.994 64.3599 21.994 64.3832 21.9473C64.4766 21.8539 64.4999 21.7488 64.5116 21.6204C64.5816 19.9741 64.5933 18.3394 64.5816 16.6815C64.5816 16.5297 64.4532 16.3662 64.2665 16.3662H53.5531C53.3897 16.3662 53.2264 16.4946 53.2264 16.6931V21.4803C53.2264 21.5737 53.2264 21.6437 53.2614 21.7255C53.3081 21.8422 53.3547 21.8889 53.3897 21.9006C53.5881 21.9707 53.7048 21.9006 53.7048 21.6671L53.7865 17.2886C53.7865 17.0901 53.9499 16.915 54.16 16.9266L59.575 16.9967C59.575 16.9967 59.61 16.9967 59.61 17.0317C59.61 17.0668 59.61 17.0668 59.575 17.0668H59.6567V17.0434ZM63.7764 21.6087C63.7764 21.4803 63.6596 21.3518 63.5196 21.3518H54.3117C54.1833 21.3518 54.055 21.4686 54.055 21.6087V22.4143C54.055 22.5428 54.1717 22.6712 54.3117 22.6712H63.5196C63.648 22.6712 63.7764 22.5545 63.7764 22.4143V21.6087Z" fill="#329CD7"/>
<path d="M85.4254 21.8072C85.4254 21.8072 85.5421 21.6087 85.5421 21.4919V16.8799C85.5421 16.5297 85.3787 16.3662 85.0286 16.3662H65.3057C65.3057 16.3662 65.189 16.3195 65.189 16.2494C65.189 16.2027 65.189 16.1677 65.2241 16.1327C65.2241 16.1327 65.2941 16.0977 65.3408 16.0977H85.1687C85.5305 16.0977 85.8105 16.4129 85.8105 16.7398V21.4452C85.8105 21.8889 85.5655 22.1341 85.0753 22.1341C78.4699 22.1341 71.8878 22.1341 65.3057 22.1808C65.2357 22.1808 65.189 22.1341 65.1774 22.0641C65.1774 21.994 65.1774 21.9473 65.2474 21.9123C65.2824 21.9123 65.3291 21.8773 65.3758 21.8773H85.2387C85.2387 21.8773 85.3554 21.8422 85.3904 21.7955V21.7605L85.4254 21.7255V21.7722V21.8072Z" fill="#329CD7"/>
<path d="M82.8344 19.636C82.8344 19.8462 82.671 20.033 82.4376 20.033H76.439C76.2056 20.033 76.0422 19.8696 76.0422 19.636V17.4526C76.0422 17.2191 76.2056 17.0557 76.439 17.0557H82.4376C82.671 17.0557 82.8344 17.2191 82.8344 17.4526V19.636ZM82.5543 17.5461C82.5543 17.4526 82.4726 17.3709 82.3792 17.3709H76.5207C76.4274 17.3709 76.3457 17.4526 76.3457 17.5344V19.5076C76.3457 19.601 76.4274 19.6828 76.5091 19.6828H82.3676C82.4609 19.6828 82.5426 19.601 82.5426 19.5193V17.5461H82.5543Z" fill="#329CD7"/>
<path d="M66.7289 17.4995C66.2971 17.4995 65.8887 17.4995 65.5035 17.5812C65.4218 17.5812 65.3868 17.5812 65.4102 17.4878V17.3711C65.4102 17.3711 65.4802 17.2777 65.5269 17.2893C66.3088 17.3711 67.009 17.1609 67.6159 17.7447C67.6509 17.7797 67.6509 17.8264 67.6159 17.8615C67.5809 17.8615 67.5458 17.8965 67.5225 17.8615C67.2774 17.698 67.079 17.4995 66.7406 17.4995H66.7523H66.7289Z" fill="#329CD7"/>
<path d="M71.1524 19.1102H73.4515C73.4515 19.1102 73.5215 19.1453 73.4982 19.192C73.4982 19.2387 73.4515 19.262 73.4165 19.262L71.1991 19.227C71.1991 19.227 71.0824 19.227 71.0707 19.2971C70.954 19.4255 70.9074 19.7057 70.8257 19.8225C70.3122 20.6631 69.2968 20.8616 68.4799 20.3596C67.1378 19.5423 67.663 17.4756 69.2035 17.2888C70.3472 17.1604 70.8957 17.9894 71.0707 19.0168C71.0707 19.0635 71.1174 19.0986 71.1641 19.0986V19.1336H71.1524V19.1102ZM68.3165 19.3554C68.3165 19.3554 68.3165 19.2854 68.3516 19.2854H68.4216C69.0634 20.2662 70.0904 20.021 70.4172 18.9351V18.8067L70.2655 18.4097V18.3747C70.2655 18.3747 70.2655 18.3396 70.3005 18.328H70.3472L70.6273 18.6782C70.6273 18.6782 70.6973 18.7133 70.709 18.6782C70.709 18.6782 70.744 18.6315 70.709 18.6082C70.2655 17.3939 68.9001 17.2304 68.2115 18.2462C67.768 18.9234 68.0481 19.8575 68.8184 20.1611C69.6586 20.523 70.3005 20.2311 70.709 19.3204C70.7556 19.2037 70.8373 19.1453 70.8257 18.9701C70.8257 18.9234 70.779 18.8767 70.7323 18.8767C70.6856 18.8767 70.6506 18.9118 70.6506 18.9468C70.5572 19.3087 70.3705 19.6357 70.0904 19.8809C69.4719 20.488 68.5266 19.9976 68.2815 19.2737L68.3165 19.3438V19.3554Z" fill="#329CD7"/>
<path d="M71.6425 17.6395C71.4908 17.6862 71.4441 17.768 71.2807 17.8147C71.2341 17.8497 71.1874 17.8147 71.164 17.7797C71.129 17.733 71.164 17.6862 71.199 17.6629C71.8059 17.1842 72.4945 17.2893 73.3697 17.3009C73.4398 17.3009 73.4514 17.336 73.4398 17.3944C73.4047 17.5111 73.3231 17.5461 73.1947 17.5228C72.6228 17.4527 72.1093 17.4878 71.6542 17.6162L71.6425 17.6395Z" fill="#329CD7"/>
<path d="M65.3986 18.1878V18.2812C65.3986 18.2812 65.3986 18.3279 65.4452 18.3279L67.4409 18.4447C67.4409 18.4447 67.4876 18.4447 67.4876 18.398V18.3046C67.4876 18.3046 67.4876 18.2579 67.4409 18.2579L65.4452 18.1411C65.4452 18.1411 65.3986 18.1411 65.3986 18.1878Z" fill="#329CD7"/>
<path d="M73.3345 18.2C73.3345 18.2 73.3696 18.2 73.3696 18.235V18.305C73.3696 18.305 73.3696 18.3984 73.3345 18.4218L71.2806 18.4685C71.2806 18.4685 71.2339 18.4218 71.2339 18.3751V18.305C71.2339 18.305 71.2339 18.27 71.2689 18.27L73.3345 18.2233V18.2Z" fill="#329CD7"/>
<path d="M65.3759 19.1102V19.1802C65.3759 19.1802 65.3759 19.2269 65.4225 19.2269L67.4415 19.2736C67.4415 19.2736 67.4882 19.2736 67.4882 19.2269V19.1569C67.4882 19.1569 67.4882 19.1102 67.4415 19.1102L65.4225 19.0635C65.4225 19.0635 65.3759 19.0635 65.3759 19.1102Z" fill="#329CD7"/>
<path d="M67.1958 19.8813L67.3942 19.7295H67.4875V19.7995C67.4175 19.963 67.3125 20.0564 67.1257 20.0564H65.4219C65.4219 20.0564 65.3402 20.0214 65.3518 19.963V19.9163C65.3518 19.9163 65.3519 19.8813 65.3869 19.8813H67.1958Z" fill="#329CD7"/>
<path d="M71.4555 19.7879C71.5489 19.8579 71.6539 19.8813 71.7823 19.8813C72.3075 19.8813 72.8326 19.8813 73.3928 19.8462C73.4395 19.8462 73.4745 19.8462 73.4862 19.8813V19.928C73.4862 19.928 73.4862 19.998 73.4395 19.998C72.7976 20.0797 72.1441 20.0797 71.5022 19.998C71.4205 19.998 71.3855 19.963 71.3505 19.928C71.3038 19.8813 71.2688 19.8112 71.2805 19.7528C71.2805 19.7061 71.3155 19.6828 71.3505 19.7178L71.4438 19.7879H71.4555Z" fill="#329CD7"/>
<path d="M71.7944 20.6751C72.3312 20.7451 72.798 20.7568 73.1831 20.7101C73.2765 20.7101 73.3349 20.7101 73.3815 20.7568C73.3815 20.7568 73.4166 20.8035 73.3815 20.8268H73.3465C72.7047 20.8969 71.596 21.037 71.1292 20.4649C71.0942 20.4299 71.0942 20.3948 71.1292 20.3715C71.1642 20.3365 71.1992 20.3365 71.2225 20.3715C71.3859 20.4999 71.5143 20.6284 71.7594 20.6634H71.771L71.7944 20.6751Z" fill="#329CD7"/>
<path d="M67.5112 20.6284C66.916 20.9553 66.4259 20.9086 65.5739 20.8736C65.5273 20.8736 65.4806 20.8736 65.4572 20.8386C65.3639 20.7919 65.3639 20.7569 65.4572 20.7218H65.5389C66.2158 20.7218 66.951 20.8736 67.5112 20.4299H67.6046V20.465C67.6046 20.465 67.6046 20.5817 67.5229 20.6167H67.5112V20.6284Z" fill="#329CD7"/>
<path d="M85.0866 54.2863C82.9976 54.6016 80.9203 54.8117 78.8313 54.9285C70.4287 55.4539 62.0844 55.2554 53.7284 54.3214C54.0552 54.3214 54.3469 54.3214 54.697 54.3564C62.4928 54.9519 70.2653 55.0803 78.0727 54.73C80.3251 54.6366 82.7642 54.4148 85.0983 54.2747H85.0866V54.2863Z" fill="#329CD7" stroke="#329CD7" stroke-width="0.350278" stroke-miterlimit="10"/>
<path d="M85.098 61.4471C85.098 61.6923 84.9229 61.8908 84.6545 61.8908H79.2278C78.9827 61.8908 78.7843 61.7157 78.7843 61.4471V57.7225C78.7843 57.4773 78.9594 57.2788 79.2278 57.2788H84.6545C84.8996 57.2788 85.098 57.4539 85.098 57.7225V61.4471ZM84.8179 57.7926C84.8179 57.6758 84.7012 57.5474 84.5728 57.5474H79.2628C79.1461 57.5474 79.0177 57.6641 79.0177 57.7926V61.4238C79.0177 61.5405 79.1344 61.669 79.2628 61.669H84.5728C84.6895 61.669 84.8179 61.5522 84.8179 61.4238V57.7926Z" fill="#329CD7" stroke="#329CD7" stroke-width="0.350278" stroke-miterlimit="10"/>
<path d="M78.1345 39.1529C78.1345 40.0169 77.9944 40.8342 77.7027 41.6282C77.3409 42.6323 76.8274 43.5547 76.1272 44.3837C73.9448 46.8707 70.467 47.6296 67.4444 46.4504C66.8142 46.1818 66.1724 45.8199 65.6122 45.4112V45.3762C65.6122 45.3762 65.6122 45.3412 65.6472 45.3412C66.184 45.4813 66.7442 45.6914 67.281 45.7265C68.7282 45.8549 70.0936 45.563 71.389 44.8157C72.7428 44.0101 73.5364 42.9709 74.2949 41.6632C74.5517 41.2196 74.8318 40.9043 75.3102 41.0094C76.0805 41.1495 75.672 42.1653 75.3803 42.6207C75.2752 42.7608 75.2286 42.8659 75.2052 42.9242C75.0302 43.4497 75.4503 43.7883 75.8237 43.3679C76.3372 42.8192 76.664 42.212 76.7807 41.4764C76.8624 40.8926 76.8624 40.3906 76.7807 40.0053C76.6757 39.3864 76.6407 38.9661 76.6407 38.6859C76.6407 38.3122 77.0141 37.7401 77.4343 37.8218C77.9711 37.9269 78.2278 38.6859 78.2045 39.1412H78.1578L78.1345 39.1529Z" fill="#FB6D6B"/>
<path d="M58.0502 43.9748C58.0502 43.9748 58.0852 43.8931 58.0969 43.8931C59.3689 42.7605 62.2748 44.2083 63.1968 45.0957C64.6322 46.4735 65.9043 47.4893 67.7832 48.0614C73.3383 49.8245 79.0918 46.0765 79.9904 40.3202C81.0408 33.303 74.0619 27.4417 67.1997 30.1155C64.0137 31.3765 61.9948 33.8051 61.1662 37.4713C61.1662 37.5414 61.1311 37.5764 61.0961 37.5881C61.0495 37.5881 60.9911 37.5881 60.9794 37.553C60.8744 37.4713 60.6643 37.3662 60.4309 37.1911C60.536 36.8642 60.6176 36.5489 60.746 36.2453C61.8547 32.906 63.897 30.6642 66.8496 29.5083C74.5637 26.5076 82.2661 33.1746 80.6323 41.2076C79.0918 48.5868 70.0473 51.7393 64.1304 46.8938C62.695 45.7028 60.9794 43.9281 59.0422 44.22H58.7854C58.4936 44.185 58.2719 44.1032 58.1085 43.9631L58.0735 43.9281V43.9631H58.0618L58.0502 43.9748Z" fill="#329CD7"/>
<path d="M62.2001 43.2758V43.159C62.2001 43.159 62.2001 43.0423 62.2702 42.9839C62.3052 42.9372 62.3636 42.9138 62.3986 42.9138C62.4337 42.9138 62.492 42.9138 62.5271 42.9605V42.9955C62.5271 42.9955 62.5621 43.0423 62.5621 43.0773V43.2174C62.6321 43.1824 62.6905 43.1707 62.7372 43.1707C62.7839 43.1707 62.8306 43.1707 62.8657 43.2057C62.924 43.2407 62.9357 43.2758 62.9591 43.3225V43.4626C62.9591 43.4626 62.9007 43.5093 62.8657 43.5326C62.8073 43.5326 62.7606 43.5677 62.7255 43.5326C62.7606 43.5677 62.7956 43.6027 62.819 43.6377C62.854 43.6844 62.854 43.7428 62.854 43.7895C62.854 43.8362 62.819 43.9063 62.7489 43.9063H62.5738C62.5738 43.9063 62.5154 43.8712 62.5037 43.8596C62.4687 43.8245 62.4337 43.7778 62.4337 43.7428C62.4337 43.7778 62.3753 43.8245 62.3402 43.8596C62.2819 43.9063 62.2352 43.9296 62.2001 43.9413C62.1301 43.9413 62.0717 43.9413 62.06 43.8946V43.7428C62.06 43.7428 62.06 43.6728 62.095 43.6611C62.1301 43.6144 62.1651 43.5793 62.2001 43.556C62.2001 43.556 62.1067 43.556 62.0717 43.521C62.0133 43.521 61.9783 43.4509 61.9433 43.4159C61.9082 43.3692 61.9082 43.3108 61.9433 43.2758C61.9433 43.2407 61.9783 43.2291 62.0016 43.2057H62.0367C62.0367 43.2057 62.095 43.2057 62.1067 43.1707H62.2001C62.2001 43.1707 62.3052 43.2057 62.3286 43.2407V43.2758H62.2235H62.2001ZM62.3753 43.4159H62.3169V43.4976C62.3169 43.4976 62.3519 43.5443 62.3753 43.5677H62.4103C62.4103 43.5677 62.4453 43.5677 62.4804 43.5326V43.4509C62.4804 43.4509 62.4453 43.4042 62.4103 43.4159H62.3753Z" fill="#FB6D6B"/>
<path d="M75.2167 39.1759V39.0357C75.2167 38.9307 75.2517 38.8723 75.3218 38.7789C75.3801 38.7088 75.4501 38.6738 75.4968 38.6971C75.5668 38.6971 75.6252 38.6971 75.6602 38.7789C75.6602 38.7789 75.6602 38.8139 75.6952 38.8139C75.7302 38.8489 75.7536 38.8956 75.7536 38.9307C75.7536 39.0124 75.7536 39.0708 75.7186 39.1292C75.7186 39.1292 75.8819 39.0591 75.9987 39.0591C76.0687 39.0591 76.127 39.0591 76.162 39.1058C76.2321 39.1408 76.2671 39.2109 76.2671 39.2693V39.316C76.2671 39.316 76.2671 39.3627 76.2321 39.3977C76.2321 39.3977 76.2321 39.4327 76.197 39.4444C76.162 39.4911 76.127 39.5145 76.0687 39.5495C75.9986 39.5845 75.9286 39.5962 75.8586 39.5845C75.917 39.6312 75.952 39.6896 75.987 39.7246C76.022 39.7947 76.0453 39.8647 76.0453 39.9581C76.0453 40.0516 75.987 40.1099 75.9053 40.145C75.8703 40.145 75.8353 40.18 75.7769 40.145C75.7419 40.145 75.6835 40.145 75.6485 40.1099C75.6135 40.1099 75.5785 40.0749 75.5552 40.0399C75.4968 39.9932 75.4618 39.9231 75.4501 39.8531C75.4501 39.8531 75.3801 39.9698 75.3451 40.0049C75.2751 40.0749 75.2167 40.1099 75.135 40.1216C75.0417 40.1216 74.995 40.1216 74.925 40.0399L74.89 40.0049C74.89 40.0049 74.89 39.9581 74.855 39.9348V39.8531C74.855 39.8531 74.855 39.7713 74.89 39.7363C74.925 39.6662 74.9833 39.6195 75.03 39.5962H74.995C74.995 39.5962 74.8666 39.5612 74.8316 39.5495C74.7616 39.5145 74.7032 39.4678 74.6682 39.4094C74.6332 39.3393 74.6099 39.2926 74.6682 39.2226C74.6682 39.1875 74.7032 39.1525 74.7383 39.1175L74.7733 39.0825C74.7733 39.0825 74.8433 39.0474 74.8666 39.0474H74.995C74.995 39.0474 75.1234 39.0941 75.1934 39.1525L75.2284 39.1058V39.1408L75.2167 39.1759ZM75.4852 39.3627H75.4268L75.3918 39.3977V39.4794C75.3918 39.4794 75.4501 39.5495 75.4618 39.5612H75.5202C75.5202 39.5612 75.5785 39.5261 75.6135 39.5145V39.3627C75.6135 39.3627 75.5552 39.3276 75.5202 39.3276V39.3627H75.4852Z" fill="#FB6D6B"/>
<path d="M60.1541 41.9089V41.7454C60.1541 41.6403 60.1891 41.5469 60.2474 41.4652C60.2941 41.3951 60.3641 41.3601 60.4342 41.3601C60.5042 41.3601 60.5509 41.3951 60.5975 41.4535C60.5975 41.4535 60.5975 41.4885 60.6325 41.5119C60.6676 41.5469 60.6792 41.6053 60.6792 41.6403C60.6792 41.7337 60.6792 41.8038 60.6442 41.8855C60.6442 41.8855 60.8076 41.7921 60.9243 41.8155C60.9943 41.8155 61.041 41.8155 61.0877 41.8738C61.1577 41.9322 61.2044 41.9789 61.2044 42.049V42.1074C61.2044 42.1074 61.2044 42.1774 61.1694 42.2008C61.1694 42.2008 61.1694 42.2358 61.1344 42.2592C61.0994 42.3175 61.0644 42.3526 61.0177 42.3642C60.936 42.3993 60.8893 42.4226 60.8076 42.3993C60.8543 42.4576 60.8893 42.5043 60.9243 42.5627C60.9593 42.6561 60.971 42.7028 60.971 42.8079C60.971 42.913 60.901 42.9714 60.8426 43.0064C60.8076 43.0064 60.7609 43.0414 60.7259 43.0064C60.6909 43.0064 60.6442 43.0064 60.6092 42.9714C60.5742 42.9714 60.5392 42.9364 60.5275 42.9013C60.4808 42.8313 60.4342 42.7729 60.4342 42.6912C60.3991 42.7846 60.3641 42.8196 60.3174 42.8663C60.2474 42.9364 60.2007 42.9947 60.084 42.9947C60.0023 42.9947 59.9323 42.9947 59.874 42.9013C59.874 42.9013 59.874 42.8663 59.839 42.8663C59.839 42.8663 59.839 42.8079 59.804 42.7962V42.6912C59.804 42.6912 59.804 42.5978 59.839 42.5627C59.874 42.4927 59.9323 42.4343 59.9907 42.3993H59.9557C59.9557 42.3993 59.839 42.3642 59.7923 42.3409C59.7106 42.3059 59.6756 42.2475 59.6289 42.1774C59.5822 42.1074 59.5822 42.049 59.5939 41.9673C59.5939 41.9089 59.6289 41.8738 59.6639 41.8388C59.6639 41.8388 59.6989 41.8388 59.6989 41.8038C59.7339 41.8038 59.7689 41.7688 59.7923 41.7688H59.909C59.909 41.7688 60.0374 41.8271 60.1074 41.8738V41.9089L60.1541 41.9322V41.9089ZM60.4225 42.119H60.3758L60.3408 42.1541V42.2825C60.3408 42.2825 60.3875 42.3526 60.4225 42.3759H60.4692C60.4692 42.3759 60.5392 42.3409 60.5509 42.3175V42.1541C60.5509 42.1541 60.5042 42.119 60.4575 42.119H60.4225Z" fill="#FB6D6B"/>
<path d="M57.2246 41.0466V40.8714C57.2246 40.7547 57.2829 40.6613 57.353 40.5445C57.423 40.4628 57.5047 40.4277 57.633 40.4277C57.7264 40.4277 57.7964 40.4628 57.8548 40.5211C57.8548 40.5211 57.8898 40.5562 57.9131 40.5678C57.9481 40.6146 57.9831 40.6613 57.9831 40.7196C57.9831 40.813 57.9831 40.8948 57.9248 40.9999H57.9598C58.0882 40.9532 58.1932 40.9065 58.3449 40.9181C58.4383 40.9181 58.4966 40.9181 58.5667 40.9882C58.66 41.0349 58.695 41.1049 58.7184 41.1983V41.2684C58.7184 41.2684 58.7184 41.3501 58.6834 41.3852C58.6834 41.3852 58.6484 41.4319 58.625 41.4552C58.59 41.5253 58.5317 41.5486 58.4733 41.572C58.3683 41.607 58.2866 41.6187 58.1582 41.6187C58.1582 41.6187 58.2866 41.7354 58.3099 41.8172C58.3683 41.9106 58.3799 41.9923 58.3799 42.1091C58.3799 42.2258 58.3099 42.3076 58.1932 42.3543C58.1349 42.3543 58.0882 42.3893 58.0415 42.3543C57.9832 42.3543 57.9365 42.3543 57.8898 42.3192C57.8314 42.3192 57.7964 42.2725 57.7614 42.2375C57.6914 42.1558 57.633 42.0857 57.633 41.9806C57.598 42.074 57.5397 42.1324 57.5047 42.1791C57.4113 42.2609 57.3413 42.2959 57.1896 42.3076C57.0612 42.3076 56.9912 42.3076 56.8745 42.2142C56.8745 42.2142 56.8745 42.1791 56.8395 42.1675C56.8395 42.1324 56.8044 42.0974 56.8044 42.074V41.9573C56.8044 41.9573 56.8044 41.8405 56.8628 41.8055C56.9211 41.7238 56.9912 41.6771 57.0612 41.6304H57.0262C57.0262 41.6304 56.8745 41.5953 56.7928 41.5603C56.6877 41.5136 56.6294 41.4435 56.536 41.3852C56.4777 41.3034 56.466 41.2334 56.501 41.1283C56.501 41.0816 56.5594 41.0349 56.5944 41.0115C56.5944 41.0115 56.6294 41.0115 56.6527 40.9765C56.6877 40.9765 56.7461 40.9415 56.7811 40.9298H56.9445C57.0495 40.9298 57.1312 40.9999 57.2246 41.0466ZM57.5864 41.3034H57.493C57.493 41.3034 57.458 41.3385 57.4346 41.3501V41.4786C57.4346 41.4786 57.493 41.5603 57.5397 41.5953H57.6097C57.6097 41.5953 57.7031 41.5603 57.7381 41.5486V41.3968C57.7381 41.3968 57.7381 41.3618 57.7031 41.3618C57.6681 41.3618 57.633 41.3151 57.5747 41.3268V41.2918L57.5864 41.3034Z" fill="#FB6D6B"/>
<path d="M70.934 31.1901C70.934 31.1901 70.864 31.2251 70.8523 31.2601C70.8056 32.1592 70.4322 32.8247 69.7319 33.2217C68.4832 33.9806 67.2228 33.3268 66.5693 32.1592H66.5226C65.0405 33.0465 63.9318 34.2258 63.2432 35.767C62.8931 36.4909 62.7064 37.2616 62.5664 38.0905C62.5664 38.1256 62.5664 38.1372 62.6014 38.1606L65.659 39.0129C65.659 39.0129 65.7057 39.0129 65.7057 38.9779V38.8728C65.7057 37.9738 65.8224 37.1915 66.3592 36.4559C66.4059 36.3859 66.4993 36.3742 66.5693 36.4209C67.4446 37.0981 67.7947 38.2307 67.5146 39.2698C67.2578 40.2623 66.5109 41.2314 65.4022 41.2664C64.3869 41.3014 63.535 40.7293 62.7414 40.1222C61.6327 39.2231 61.2359 38.8145 59.8705 37.9504C58.9952 37.39 58.6101 37.2849 58.4701 37.2265C57.9332 37.0747 57.5248 37.0514 57.3264 37.0514C56.8946 37.0514 56.5328 37.0514 56.1827 37.2966C55.7859 37.5534 55.6108 37.9271 55.5408 38.1139C55.5408 38.1956 55.4241 38.7794 55.7625 39.1881C56.0543 39.515 56.4861 39.5734 56.6495 39.5851C57.0113 39.6551 57.1163 39.5851 57.5248 39.5851C57.9332 39.5851 58.2016 39.6901 58.7735 39.8653C59.4154 40.0755 59.9172 40.3206 60.1506 40.4374C60.7925 40.7877 61.3643 41.1847 61.9011 41.6517C62.8348 42.5508 63.4183 43.0878 63.675 43.3214C65.1105 44.559 67.2462 45.2362 69.1484 44.7809C71.1674 44.3138 72.6845 43.0762 73.6415 41.0796C74.0266 40.2973 74.2134 39.445 74.2484 38.5459C74.3184 37.4484 74.1083 36.3742 73.6415 35.3817L73.5715 35.1249V35.0548H73.6415C74.155 35.6503 74.5168 36.3392 74.6918 37.0864C74.6918 37.0864 74.7619 37.1331 74.7969 37.1214L77.3877 35.732C77.3877 35.732 77.4227 35.6853 77.4227 35.6503C77.1076 35.0081 76.3724 33.6187 74.7619 32.5094C73.1747 31.4119 71.5992 31.2017 70.9107 31.155H70.8756L70.9107 31.1901H70.934Z" fill="#FB6D6B"/>
<defs>
<clipPath id="clip0_280_5">
<rect width="137.43" height="95.1707" fill="white" transform="translate(0.569946 0.884277)"/>
</clipPath>
</defs>
</svg>
