<svg width="18" height="18" viewBox="0 0 18 18" fill="none" xmlns="http://www.w3.org/2000/svg">
<path d="M6.75011 9.74989C7.16484 9.74989 7.50005 10.0859 7.50005 10.4998V13.4999C7.50005 13.9131 7.83611 14.2498 8.25014 14.2498H10.5001V2.99996C10.5001 2.35945 10.9081 1.78722 11.5216 1.57421L11.7436 1.49993H8.25014C7.83611 1.49993 7.50005 1.83665 7.50005 2.25001V4.49999C7.50005 4.91388 7.16484 5.24994 6.75011 5.24994C6.33537 5.24994 6.00016 4.91388 6.00016 4.49999V2.25001C6.00016 1.00954 7.00966 3.51559e-05 8.25014 3.51559e-05H16.3125C16.3411 3.51559e-05 16.365 0.0127968 16.3927 0.0165233C16.4288 0.0134999 16.4633 0 16.5 0C17.3272 3.51559e-05 18 0.672708 18 1.49996V14.9998C18 15.6403 17.592 16.2126 16.9785 16.4256L12.4651 17.9301C12.3121 17.9773 12.1599 17.9999 12 17.9999C11.1728 17.9999 10.5002 17.3271 10.5002 16.4998V15.7499H8.25018C7.0097 15.7499 6.0002 14.7404 6.0002 13.4999V10.4998C6.0002 10.0859 6.33541 9.74989 6.75014 9.74989H6.75011Z" fill="#329CD7"/>
<path d="M0.219757 6.96984L3.21982 3.96991C3.32467 3.86495 3.4583 3.79345 3.6038 3.76446C3.74929 3.73547 3.90012 3.75028 4.0372 3.80704C4.31693 3.92337 4.49999 4.19705 4.49999 4.50013V6.75011H7.49991C7.91394 6.75011 8.25 7.08603 8.25 7.50006C8.25 7.91409 7.91394 8.25 7.49991 8.25H4.49999V10.5C4.49999 10.8031 4.31693 11.0767 4.0372 11.1931C3.90013 11.2498 3.74931 11.2646 3.60382 11.2357C3.45833 11.2067 3.3247 11.1352 3.21982 11.0303L0.219757 8.03028C-0.0734434 7.73708 -0.0734434 7.26304 0.219757 6.96984Z" fill="#329CD7"/>
</svg>
