<svg width="28" height="34" viewBox="0 0 28 34" fill="none" xmlns="http://www.w3.org/2000/svg">
<path d="M11.671 6.57333C11.8478 6.57333 12.0174 6.5031 12.1424 6.37807C12.2675 6.25305 12.3377 6.08348 12.3377 5.90667V3.66667C12.3377 2.932 12.9364 2.33333 13.671 2.33333C14.4057 2.33333 15.0044 2.932 15.0044 3.66667V5.90667C15.0044 6.08348 15.0746 6.25305 15.1996 6.37807C15.3247 6.5031 15.4942 6.57333 15.671 6.57333C15.8478 6.57333 16.0174 6.5031 16.1424 6.37807C16.2675 6.25305 16.3377 6.08348 16.3377 5.90667V3.66667C16.3377 2.196 15.1417 1 13.671 1C12.2004 1 11.0044 2.196 11.0044 3.66667V5.90667C11.0044 6.08348 11.0746 6.25305 11.1996 6.37807C11.3247 6.5031 11.4942 6.57333 11.671 6.57333ZM13.671 33C16.2444 33 18.3377 30.9067 18.3377 28.3333C18.3377 28.1565 18.2675 27.987 18.1424 27.8619C18.0174 27.7369 17.8478 27.6667 17.671 27.6667C17.4942 27.6667 17.3247 27.7369 17.1996 27.8619C17.0746 27.987 17.0044 28.1565 17.0044 28.3333C17.0044 30.1707 15.5084 31.6667 13.671 31.6667C11.8337 31.6667 10.3377 30.1707 10.3377 28.3333C10.3377 28.1565 10.2675 27.987 10.1424 27.8619C10.0174 27.7369 9.84784 27.6667 9.67103 27.6667C9.49422 27.6667 9.32465 27.7369 9.19963 27.8619C9.0746 27.987 9.00437 28.1565 9.00437 28.3333C9.00437 30.9067 11.0977 33 13.671 33Z" fill="#329CD7" stroke="#329CD7" stroke-width="0.4"/>
<path d="M2.3377 29H25.0044C25.4125 28.9986 25.8105 28.8724 26.145 28.6385C26.4795 28.4046 26.7346 28.0741 26.876 27.6912C27.0174 27.3083 27.0384 26.8913 26.9363 26.4961C26.8341 26.1009 26.6136 25.7464 26.3044 25.48C25.2701 24.6094 24.4388 23.5231 23.8688 22.2973C23.2987 21.0715 23.0037 19.7359 23.0044 18.384V14.3333C23.0044 9.18667 18.8177 5 13.671 5C8.52437 5 4.3377 9.18667 4.3377 14.3333V18.384C4.3377 21.1213 3.13903 23.704 1.04837 25.4707C0.735514 25.7353 0.511429 26.0896 0.406395 26.4857C0.301359 26.8817 0.320431 27.3005 0.461039 27.6854C0.601645 28.0703 0.857008 28.4027 1.19262 28.6378C1.52824 28.8729 1.92793 28.9994 2.3377 29ZM13.671 6.33333C18.083 6.33333 21.671 9.92133 21.671 14.3333V18.384C21.6696 19.9275 22.0054 21.4526 22.6551 22.8527C23.3049 24.2528 24.2527 25.494 25.4324 26.4893C25.5371 26.5772 25.6123 26.6953 25.6477 26.8274C25.6831 26.9594 25.6771 27.0992 25.6304 27.2278C25.5836 27.3563 25.4985 27.4674 25.3865 27.5459C25.2745 27.6244 25.1411 27.6666 25.0044 27.6667H2.3377C2.20141 27.6667 2.0684 27.6249 1.95657 27.547C1.84475 27.4691 1.75948 27.3588 1.71227 27.231C1.66505 27.1031 1.65815 26.9639 1.6925 26.832C1.72684 26.7001 1.80079 26.5819 1.90437 26.4933C3.08509 25.4977 4.03396 24.256 4.6846 22.8553C5.33523 21.4545 5.67189 19.9285 5.67103 18.384V14.3333C5.67103 9.92133 9.25903 6.33333 13.671 6.33333Z" fill="#329CD7" stroke="#329CD7" stroke-width="0.4"/>
</svg>
