<svg width="15" height="18" viewBox="0 0 15 18" fill="none" xmlns="http://www.w3.org/2000/svg">
<path d="M7.5 0C9.9813 0 12 2.1291 12 4.74609C12 7.36309 9.9813 9.49219 7.5 9.49219C5.0187 9.49219 3 7.36309 3 4.74609C3 2.1291 5.0187 0 7.5 0ZM1.90113 12.5928C3.13313 11.2734 4.76637 10.5469 6.5 10.5469H8.5C10.2336 10.5469 11.8669 11.2734 13.0989 12.5928C14.3248 13.9057 15 15.6387 15 17.4727C15 17.7639 14.7761 18 14.5 18H0.5C0.223866 18 0 17.7639 0 17.4727C0 15.6387 0.675167 13.9057 1.90113 12.5928Z" fill="#329CD7"/>
</svg>
