<svg width="301" height="259" viewBox="0 0 301 259" fill="none" xmlns="http://www.w3.org/2000/svg">
<g filter="url(#filter0_f_351_2382)">
<path d="M59.1525 243.39C59.1525 243.39 36.7942 229.32 30.9624 196.677C25.1305 164.035 50.4018 134.208 52.8332 117.887C55.2646 101.565 49.9143 81.3065 72.2726 65.5428C94.6309 49.786 134.485 55.41 149.555 51.4725C164.625 47.535 182.12 20.5165 212.254 26.7118C242.388 32.9003 271.553 51.4725 273.01 91.9969C274.466 132.521 263.29 133.643 274.466 155.595C285.642 177.548 290.018 192.74 284.673 215.25C279.329 237.759 268.147 243.955 268.147 243.955L59.1525 243.39Z" fill="#B2D7EC"/>
</g>
<g clip-path="url(#clip0_351_2382)">
<path d="M286.942 243.776C286.942 243.863 226.56 243.937 152.094 243.937C77.6286 243.937 17.2344 243.863 17.2344 243.776C17.2344 243.69 77.6038 243.615 152.094 243.615C226.585 243.615 286.942 243.69 286.942 243.776Z" fill="#263238"/>
<path d="M238.236 39.0488H100.567C97.0053 39.0488 94.1178 40.8637 94.1178 43.1026V160.158C94.1178 162.397 97.0053 164.212 100.567 164.212H238.236C241.798 164.212 244.685 162.397 244.685 160.158V43.1026C244.685 40.8637 241.798 39.0488 238.236 39.0488Z" fill="white"/>
<path d="M237.926 164.212H100.257C96.5305 164.212 93.498 162.312 93.498 159.976V43.2843C93.498 40.9489 96.5305 39.0488 100.257 39.0488H237.926C241.653 39.0488 244.685 40.9489 244.685 43.2843V159.976C244.685 162.312 241.653 164.212 237.926 164.212ZM100.257 39.4374C96.8715 39.4374 94.1182 41.1627 94.1182 43.2843V159.976C94.1182 162.098 96.8715 163.823 100.257 163.823H237.926C241.311 163.823 244.065 162.098 244.065 159.976V43.2843C244.065 41.1627 241.311 39.4374 237.926 39.4374H100.257Z" fill="#7395A6"/>
<path d="M226.964 63.1325C231.259 63.1325 234.74 59.651 234.74 55.3563C234.74 51.0616 231.259 47.5801 226.964 47.5801C222.669 47.5801 219.188 51.0616 219.188 55.3563C219.188 59.651 222.669 63.1325 226.964 63.1325Z" fill="#FFE2E1"/>
<path d="M228.724 52.7145L224.251 57.0195L225.213 58.0196L229.687 53.7146L228.724 52.7145Z" fill="#FB6D6B"/>
<path d="M225.321 52.6392L224.321 53.6016L228.626 58.0752L229.626 57.1128L225.321 52.6392Z" fill="#FB6D6B"/>
<path d="M214.931 107.275H122.453C121.957 107.275 121.554 107.678 121.554 108.174V122.661C121.554 123.157 121.957 123.559 122.453 123.559H214.931C215.427 123.559 215.829 123.157 215.829 122.661V108.174C215.829 107.678 215.427 107.275 214.931 107.275Z" fill="#EBEBEB"/>
<path d="M215.024 129.643H122.546C122.05 129.643 121.647 130.045 121.647 130.541V145.028C121.647 145.524 122.05 145.926 122.546 145.926H215.024C215.52 145.926 215.922 145.524 215.922 145.028V130.541C215.922 130.045 215.52 129.643 215.024 129.643Z" fill="#EBEBEB"/>
<path d="M129.712 134.879H131.637C131.977 134.879 132.252 135.155 132.252 135.494V140.05C132.252 140.389 131.977 140.665 131.637 140.665H129.712C129.372 140.665 129.097 140.389 129.096 140.05V135.494C129.097 135.155 129.372 134.879 129.712 134.879ZM130.674 140.139C130.82 140.139 130.937 140.021 130.937 139.876C130.937 139.731 130.82 139.613 130.674 139.613C130.529 139.613 130.411 139.731 130.411 139.876C130.411 140.021 130.529 140.139 130.674 140.139ZM130.28 135.668H131.069C131.141 135.668 131.2 135.609 131.2 135.536C131.2 135.464 131.141 135.405 131.069 135.405H130.28C130.207 135.405 130.148 135.464 130.148 135.536C130.148 135.609 130.207 135.668 130.28 135.668Z" fill="#263238"/>
<path d="M130.892 115.498C131.32 115.318 131.623 114.878 131.623 114.364C131.623 113.682 131.115 113.131 130.477 113.131C129.839 113.131 129.325 113.676 129.318 114.352C129.318 114.872 129.622 115.318 130.05 115.498C128.277 115.764 128.358 117.691 128.358 117.691L132.553 117.71C132.553 117.71 132.646 115.764 130.892 115.498Z" fill="#263238"/>
<path d="M85.8182 86.4062L110.163 78.847C112.34 78.1708 114.659 79.3908 115.335 81.5684L116.013 83.752C116.689 85.9296 115.469 88.2483 113.292 88.9245L88.9473 96.4837C86.1957 97.3381 83.2643 95.7958 82.4099 93.0442L82.375 92.9317C81.5206 90.1801 83.0588 87.2565 85.8104 86.4021L85.8182 86.4062Z" fill="#329CD7"/>
<path d="M116.113 82.5358C116.974 85.3179 115.419 88.2734 112.637 89.1409C109.855 90.0022 106.899 88.4469 106.032 85.6648C105.171 82.8828 106.726 79.9272 109.508 79.0597C112.29 78.1984 115.246 79.7537 116.113 82.5358Z" fill="#329CD7"/>
<path opacity="0.3" d="M116.113 82.5358C116.974 85.3179 115.419 88.2734 112.637 89.1409C109.855 90.0022 106.899 88.4469 106.032 85.6648C105.171 82.8828 106.726 79.9272 109.508 79.0597C112.29 78.1984 115.246 79.7537 116.113 82.5358Z" fill="black"/>
<path d="M85.9275 135.372C80.6688 136.936 77.711 142.642 79.3309 148.09C80.9509 153.538 86.5481 156.701 91.8069 155.138C92.9231 154.807 93.9386 154.288 94.8251 153.623L94.8654 137.165C92.3952 135.207 89.0989 134.429 85.9275 135.372ZM90.4892 149.915C88.0351 150.645 85.4037 149.121 84.63 146.518C83.8563 143.915 85.2223 141.199 87.6805 140.47C90.1345 139.74 92.7659 141.264 93.5396 143.867C94.3133 146.47 92.9473 149.186 90.4892 149.915Z" fill="#FB6D6B"/>
<g opacity="0.3">
<path d="M91.8674 153.812C91.8835 153.877 91.5853 154.038 91.001 154.191C90.4167 154.34 89.5342 154.461 88.4381 154.376C87.3501 154.284 86.0445 153.969 84.759 153.252C83.4695 152.547 82.2445 151.41 81.3579 149.964C80.4754 148.513 80.0201 146.905 79.9838 145.434C79.9354 143.964 80.2498 142.658 80.6648 141.651C81.0879 140.639 81.5957 139.906 81.9986 139.454C82.4016 138.999 82.6837 138.81 82.7321 138.854C82.8691 138.963 81.9825 139.962 81.366 141.904C81.0718 142.872 80.8582 144.072 80.955 145.386C81.0396 146.7 81.4708 148.118 82.2606 149.416C83.0585 150.709 84.1223 151.741 85.2506 152.414C86.3789 153.099 87.5435 153.458 88.5388 153.635C90.5497 153.973 91.8432 153.635 91.8754 153.808L91.8674 153.812Z" fill="#EBEBEB"/>
</g>
<g opacity="0.3">
<path d="M83.9651 137.617C83.7192 137.532 83.4291 137.77 83.4654 138.028C83.5016 138.286 83.8442 138.439 84.0577 138.294C84.2713 138.149 84.2552 137.774 84.0295 137.645" fill="#EBEBEB"/>
</g>
<g opacity="0.3">
<path d="M93.5436 142.139C93.4066 142.212 93.0923 141.801 92.4999 141.305C91.9156 140.809 91.0049 140.241 89.8967 140.044C88.7845 139.85 87.7328 140.072 87.0155 140.338C86.2901 140.6 85.8549 140.878 85.7501 140.761C85.6575 140.668 85.9315 140.169 86.681 139.673C87.4144 139.181 88.6797 138.762 90.078 139.008C91.4723 139.258 92.52 140.084 93.0399 140.797C93.5758 141.519 93.6645 142.083 93.5436 142.135V142.139Z" fill="black"/>
</g>
<rect x="40.21" y="42.1484" width="14.8708" height="21.6866" fill="#FFBF9D"/>
<path d="M57.671 225.412L57.2373 237.278C57.2373 237.278 69.1525 241.708 69.2826 243.908L46.2452 243.89L46.1647 225.369L57.671 225.412Z" fill="#263238"/>
<path d="M50.1118 236.274C49.6657 236.398 49.3559 236.894 49.4612 237.346C49.5665 237.799 50.0684 238.115 50.5208 238.003C50.9669 237.892 51.3572 237.297 51.2023 236.863C51.0474 236.429 50.434 236.089 50.0251 236.305" fill="#E0E0E0"/>
<path d="M46.2451 243.89L46.3133 242.025L68.3779 242.744C68.3779 242.744 69.4003 243.19 69.2887 243.915L46.2513 243.897L46.2451 243.89Z" fill="#455A64"/>
<path d="M57.6091 237.161C57.6091 237.273 57.0452 237.322 56.4876 237.688C55.9237 238.035 55.6387 238.525 55.5334 238.475C55.428 238.45 55.5953 237.781 56.2769 237.353C56.9523 236.92 57.6339 237.056 57.6091 237.161Z" fill="white"/>
<path d="M60.0255 238.164C60.0503 238.276 59.5608 238.462 59.1828 238.939C58.7863 239.403 58.6871 239.918 58.5756 239.912C58.4703 239.93 58.3897 239.273 58.8792 238.691C59.3625 238.102 60.0255 238.059 60.0255 238.164Z" fill="white"/>
<path d="M61.3948 241.057C61.2957 241.082 61.1346 240.518 61.4258 239.905C61.7108 239.285 62.2437 239.043 62.2871 239.136C62.349 239.229 62.0083 239.558 61.779 240.066C61.5373 240.568 61.5064 241.045 61.3948 241.057Z" fill="white"/>
<path d="M57.4106 234.447C57.361 234.553 56.8468 234.392 56.2086 234.435C55.5703 234.466 55.0747 234.677 55.0189 234.584C54.9507 234.503 55.4402 234.088 56.19 234.045C56.9397 234.001 57.4664 234.361 57.4106 234.447Z" fill="white"/>
<path d="M32.2418 225.096L31.8081 236.962C31.8081 236.962 43.7233 241.392 43.8534 243.592L20.816 243.573L20.7355 225.053L32.2418 225.096Z" fill="#263238"/>
<path d="M24.6825 235.958C24.2364 236.082 23.9265 236.578 24.0319 237.03C24.1372 237.482 24.6391 237.798 25.0914 237.687C25.5376 237.575 25.9279 236.98 25.773 236.547C25.6181 236.113 25.0047 235.772 24.5957 235.989" fill="#E0E0E0"/>
<path d="M20.8162 243.574L20.8843 241.709L42.9489 242.428C42.9489 242.428 43.9713 242.874 43.8598 243.599L20.8224 243.58L20.8162 243.574Z" fill="#455A64"/>
<path d="M32.1798 236.845C32.1798 236.956 31.6159 237.006 31.0583 237.372C30.4944 237.719 30.2094 238.208 30.104 238.159C29.9987 238.134 30.166 237.465 30.8476 237.037C31.523 236.603 32.2046 236.74 32.1798 236.845Z" fill="white"/>
<path d="M34.5963 237.848C34.6211 237.959 34.1316 238.145 33.7536 238.622C33.3571 239.087 33.2579 239.601 33.1464 239.595C33.0411 239.614 32.9605 238.957 33.45 238.374C33.9333 237.786 34.5963 237.742 34.5963 237.848Z" fill="white"/>
<path d="M35.9656 240.741C35.8665 240.766 35.7054 240.202 35.9966 239.588C36.2816 238.969 36.8145 238.727 36.8579 238.82C36.9198 238.913 36.5791 239.241 36.3498 239.749C36.1081 240.251 36.0772 240.728 35.9656 240.741Z" fill="white"/>
<path d="M31.9814 234.131C31.9318 234.236 31.4176 234.075 30.7794 234.119C30.1412 234.15 29.6455 234.36 29.5897 234.267C29.5215 234.187 30.011 233.772 30.7608 233.728C31.5105 233.685 32.0372 234.044 31.9814 234.131Z" fill="white"/>
<path d="M67.7645 125.109C67.7645 125.109 69.6667 131.832 69.2206 140.085C69.0471 143.276 58.7924 235.544 58.7924 235.544L45.7432 234.373L47.9987 148.109L47.4534 148.599C47.4534 148.599 39.6772 184.89 39.1629 190.628C38.6982 195.783 32.4958 237.211 32.4958 237.211L19.8308 236.61L22.6996 184.239L26.5413 136.696L28.0779 122.848L67.7583 125.115L67.7645 125.109Z" fill="#263238"/>
<path d="M45.4955 140.668C45.4955 140.668 45.7061 140.805 46.1089 140.997C46.5178 141.176 47.1127 141.455 47.9244 141.585C48.3271 141.647 48.7856 141.66 49.2627 141.567C49.7398 141.474 50.2417 141.257 50.6445 140.86C51.0472 140.464 51.3013 139.919 51.4562 139.355C51.6173 138.785 51.6978 138.196 51.8032 137.601C52.2121 135.197 52.4724 133.01 52.6211 131.417C52.6954 130.624 52.7388 129.98 52.7636 129.534C52.7884 129.088 52.7884 128.84 52.7636 128.84C52.745 128.84 52.7016 129.081 52.6397 129.521C52.5777 130.03 52.4971 130.655 52.398 131.393C52.1997 132.973 51.9023 135.154 51.4934 137.552C51.2889 138.735 51.1526 139.943 50.4338 140.662C49.7151 141.369 48.6927 141.468 47.9429 141.375C47.1684 141.276 46.5612 141.04 46.1461 140.891C45.7309 140.737 45.4955 140.656 45.4893 140.675L45.4955 140.668Z" fill="#455A64"/>
<path d="M49.6034 129.322C49.6034 129.322 49.5105 129.248 49.2998 129.242C49.0953 129.229 48.7917 129.297 48.4943 129.52C48.2093 129.744 47.9119 130.134 47.9057 130.654C47.8933 131.187 48.3208 131.695 48.8661 131.881C49.4051 132.079 50.0557 131.943 50.3779 131.522C50.7063 131.113 50.7125 130.617 50.6258 130.27C50.5328 129.911 50.3346 129.669 50.1673 129.551C50 129.428 49.8884 129.415 49.8822 129.428C49.8451 129.471 50.2974 129.663 50.4151 130.32C50.4647 130.63 50.4275 131.045 50.1611 131.348C49.907 131.658 49.4113 131.757 48.9652 131.602C48.5191 131.447 48.1907 131.057 48.1907 130.661C48.1721 130.258 48.4014 129.911 48.6306 129.7C49.1325 129.26 49.6034 129.39 49.5972 129.335L49.6034 129.322Z" fill="#455A64"/>
<path d="M26.7271 135.834C26.7271 135.834 26.9006 135.878 27.2228 135.902C27.545 135.927 28.0098 135.927 28.586 135.884C29.7323 135.803 31.3185 135.493 32.9357 134.768C34.5467 134.043 35.8417 133.064 36.6596 132.259C37.0748 131.856 37.3846 131.509 37.5767 131.249C37.7749 130.995 37.8741 130.846 37.8555 130.834C37.8121 130.797 37.3598 131.342 36.5109 132.098C35.662 132.854 34.3856 133.777 32.8056 134.483C31.2256 135.19 29.6827 135.531 28.5612 135.661C27.4335 135.797 26.7271 135.772 26.7209 135.828L26.7271 135.834Z" fill="#455A64"/>
<path d="M61.9031 129.311C61.9031 129.311 62.1075 129.912 62.6094 130.779C63.1113 131.647 63.8982 132.774 64.933 133.852C65.9678 134.924 67.0335 135.724 67.8452 136.219C68.6569 136.715 69.1898 136.932 69.2022 136.901C69.2208 136.857 68.7127 136.566 67.9444 136.033C67.1698 135.501 66.1413 134.689 65.1251 133.629C64.1089 132.57 63.3096 131.485 62.7767 130.661C62.2439 129.837 61.9464 129.292 61.9093 129.317L61.9031 129.311Z" fill="#455A64"/>
<path d="M74.8531 77.1855C76.7925 82.8427 76.5756 82.3594 80.2066 99.2687C80.8758 102.385 79.6923 107.262 76.8854 108.767C74.0724 110.273 69.072 108.619 67.3991 105.905L64.7037 80.389L74.8531 77.1855Z" fill="#FFBF9D"/>
<path d="M28.0779 107.851L28.1523 94.4055L28.0965 93.0858L14.4525 89.9009C14.4525 89.9009 17.1293 81.0776 19.5892 71.5912C21.0081 66.1138 25.7296 63.3627 26.8697 62.7678L27.1175 62.6439L40.2472 57.0859C41.8025 59.2546 47.0754 61.6959 50.3222 60.7851C52.3608 60.215 54.0833 58.9634 55.3597 57.371L64.7407 60.4505C67.0147 61.2808 69.4189 62.867 70.8564 65.4136C72.709 68.6914 78.6264 83.7109 78.7255 84.0455L67.7645 85.0307C67.7645 85.0307 69.7101 120.584 69.0223 126.936C69.0223 126.936 66.3579 128.776 59.6413 129.092C46.0221 129.736 25.7482 128.77 25.7482 128.77C26.0642 126.719 26.3988 123.292 26.5846 121.557L28.0655 107.851H28.0779Z" fill="#329CD7"/>
<path d="M67.3989 71.791C67.3432 71.791 67.6344 80.2736 68.0495 90.7266C68.4647 101.186 68.8426 109.656 68.8984 109.656C68.9542 109.656 68.663 101.18 68.2478 90.7204C67.8327 80.2674 67.4547 71.791 67.3989 71.791Z" fill="#263238"/>
<path d="M29.5774 74.1563C29.6765 74.1563 29.3977 81.6846 28.9639 90.9603C28.524 100.236 28.0965 107.752 27.9973 107.746C27.8982 107.746 28.177 100.217 28.6108 90.9417C29.0507 81.666 29.4782 74.1501 29.5774 74.1563Z" fill="#263238"/>
<path d="M14.3906 96.3028C14.8367 92.9692 15.2023 90.0136 15.2023 90.0136L26.1137 92.5479L25.649 94.3076L34.082 85.7383L35.4204 85.856L39.6648 90.2739C39.6648 90.2739 35.9657 98.0935 33.8094 101.136C31.0087 105.095 26.6032 111.13 20.5744 110.622C15.004 110.151 13.5913 102.294 14.3844 96.309L14.3906 96.3028Z" fill="#FFBF9D"/>
<path d="M20.3018 98.2974C20.2336 98.2354 21.2312 97.1511 22.6997 96.0977C24.162 95.0382 25.5065 94.4371 25.5499 94.5239C25.5995 94.6168 24.3479 95.3418 22.9041 96.3827C21.4604 97.4175 20.3699 98.3717 20.3018 98.2974Z" fill="#FF9A6C"/>
<path d="M48.8102 74.5611L45.0615 72.6465L40.1975 74.1893L37.7872 76.4076L34.0819 85.739L31.1139 89.4939L36.3497 96.3159L39.6646 90.2684C39.6646 90.2684 42.4777 89.0416 43.5992 87.2633C44.7207 85.4912 45.2288 84.5246 45.2288 84.5246C45.2288 84.5246 46.8522 83.7438 47.1558 82.9941C47.4532 82.2444 47.4408 81.6619 47.4408 81.6619L46.6167 80.4599C46.6167 80.4599 46.6973 79.3446 46.3689 78.9294C46.0405 78.5143 45.7183 78.4151 45.7183 78.4151C45.7183 78.4151 45.9599 77.4052 45.582 77.0396C45.204 76.674 43.339 76.011 43.339 76.011L44.9748 75.0816C44.9748 75.0816 48.5995 76.2031 48.804 74.5425L48.8102 74.5611Z" fill="#FFBF9D"/>
<path d="M43.246 77.9437C43.246 77.9933 43.8222 78.0057 44.51 78.1544C45.1978 78.2969 45.7306 78.5138 45.7492 78.4704C45.7678 78.4333 45.2535 78.142 44.5472 77.9933C43.8408 77.8446 43.2522 77.9004 43.2522 77.9437H43.246Z" fill="#FF9A6C"/>
<path d="M44.3675 80.0381C44.3675 80.0876 44.857 80.0815 45.4518 80.1744C46.0467 80.2611 46.5114 80.4098 46.53 80.3665C46.5485 80.3293 46.09 80.1062 45.4766 80.0195C44.8632 79.9265 44.3613 80.0009 44.3675 80.0381Z" fill="#FF9A6C"/>
<path d="M45.9538 83.3155C45.9972 83.3155 46.0282 83.0987 46.022 82.8384C46.022 82.5782 45.9786 82.3613 45.9291 82.3613C45.8857 82.3613 45.8547 82.5782 45.8609 82.8384C45.8609 83.0987 45.9043 83.3155 45.9476 83.3155H45.9538Z" fill="#FF9A6C"/>
<path d="M45.235 84.3324C45.2784 84.3324 45.2536 83.8801 45.582 83.4711C45.898 83.0498 46.3503 82.9692 46.3379 82.9258C46.3379 82.9073 46.2202 82.8949 46.0405 82.9506C45.8608 83.0064 45.6316 83.1427 45.4581 83.372C45.2846 83.6012 45.204 83.8553 45.1916 84.0412C45.1793 84.227 45.2226 84.3386 45.2412 84.3324H45.235Z" fill="#FF9A6C"/>
<path d="M42.3043 81.3405C42.3477 81.3591 42.5026 80.944 42.9611 80.7023C43.4073 80.4421 43.8472 80.5288 43.8472 80.4793C43.8472 80.4607 43.748 80.4111 43.5684 80.3987C43.3887 80.3863 43.1284 80.4235 42.8806 80.5598C42.6327 80.6961 42.4654 80.8944 42.3787 81.0555C42.2919 81.2166 42.2858 81.3343 42.3043 81.3405Z" fill="#FF9A6C"/>
<path d="M40.6002 79.2631C40.6436 79.2817 40.7923 78.8914 41.2012 78.6373C41.604 78.3709 42.0191 78.4019 42.0191 78.3585C42.0191 78.3399 41.92 78.3027 41.7465 78.3027C41.573 78.3027 41.3376 78.3585 41.1145 78.501C40.8914 78.6435 40.7365 78.8356 40.6684 78.9905C40.594 79.1454 40.5878 79.2508 40.6064 79.2569L40.6002 79.2631Z" fill="#FF9A6C"/>
<path d="M39.454 78.2493C39.454 78.2493 39.4664 78.1192 39.4911 77.9271C39.5159 77.735 39.5903 77.4748 39.7638 77.2393C39.9373 77.0039 40.1665 76.8613 40.34 76.7808C40.5135 76.7002 40.6374 76.6755 40.6374 76.6507C40.6374 76.6321 40.5073 76.6135 40.3028 76.6755C40.1046 76.7312 39.8319 76.8799 39.6337 77.1464C39.4354 77.4128 39.3734 77.7102 39.3734 77.9209C39.3734 78.1316 39.4292 78.2555 39.4478 78.2493H39.454Z" fill="#FF9A6C"/>
<path d="M41.0403 75.8126C41.0403 75.8683 41.8272 75.8807 42.769 76.0232C43.717 76.1719 44.4296 76.5003 44.4482 76.457C44.4668 76.426 43.7666 76.017 42.7938 75.8683C42.3105 75.7878 41.8706 75.7754 41.5546 75.7754C41.2386 75.7754 41.0403 75.794 41.0403 75.8126Z" fill="#FF9A6C"/>
<g opacity="0.3">
<path d="M51.7163 96.8774C51.8526 95.7931 52.0076 94.6592 52.6396 93.7669C53.7363 92.2179 55.8926 91.8895 57.7824 91.9824C59.6784 92.0754 61.6364 92.4471 63.4209 91.8027L68.7372 107.591C66.7669 107.107 65.0009 105.825 63.9352 104.096C63.3899 103.216 62.9996 102.188 62.1755 101.556C61.0416 100.688 59.474 100.812 58.0426 100.8C56.5494 100.781 55.0623 100.564 53.6248 100.149C53.0175 99.9755 52.3793 99.7338 52.0076 99.2258C51.5242 98.5752 51.6048 97.6829 51.7101 96.8774H51.7163Z" fill="black"/>
</g>
<path d="M65.41 78.403L63.7618 95.9692C63.6689 96.942 63.2909 97.6236 62.6775 97.9891L52.0263 97.7661C51.5925 97.3757 51.1154 96.1179 51.2084 94.7795L52.3857 77.9631C52.4538 76.9531 52.8318 76.2219 53.2903 76.2096L64.5116 75.9493C65.0816 75.9369 65.5278 77.1452 65.41 78.3968V78.403Z" fill="#263238"/>
<path d="M66.9591 81.9351C67.4114 81.4147 67.3495 80.572 66.9219 80.0329C66.4944 79.4938 65.788 79.2336 65.0941 79.2212C64.4063 79.2088 63.7309 79.4257 63.0927 79.6859C62.3058 80.0081 61.5499 80.4047 60.8435 80.8756C60.3416 81.204 59.8273 81.6315 59.7406 82.2264C59.6538 82.8212 60.3106 83.4842 60.8311 83.1744C60.1619 83.478 59.4927 84.2091 59.3998 84.9589C59.3068 85.7086 59.7158 86.1052 60.4469 86.3034C59.9017 86.5327 59.5609 87.2329 59.8273 87.7596C60.1061 88.3172 60.8869 88.4535 61.4631 88.2181C62.0393 87.9826 62.4545 87.4807 62.851 86.9974C62.4545 87.7162 62.4855 88.8687 62.659 89.6742C64.2452 89.0917 65.8128 87.3258 65.3419 85.6466C66.1164 85.0394 66.4634 83.7816 65.9801 82.9265C66.6245 82.7097 67.3309 81.7059 67.2627 81.0367" fill="#FFBF9D"/>
<path d="M67.1325 80.3984L67.2564 87.9082L69.202 90.839L78.1369 98.8259C78.1369 98.8259 76.8109 109.675 72.7834 108.492C68.7497 107.308 67.7769 106.534 65.3913 102.159C64.1149 99.8111 63.328 96.0004 62.5907 93.8132C62.1569 92.5306 62.5411 88.3977 62.5411 88.3977L67.1325 80.4046V80.3984Z" fill="#FFBF9D"/>
<path d="M60.4656 86.3035C60.4656 86.3035 60.732 86.099 61.1471 85.7582C61.5623 85.4298 62.1633 84.9713 62.9502 84.7792C63.3406 84.6863 63.7248 84.6801 64.0593 84.7544C64.3939 84.8288 64.6728 84.9775 64.8772 85.1386C65.2924 85.467 65.3915 85.8078 65.4225 85.7892C65.4287 85.7892 65.4225 85.7025 65.3544 85.56C65.2924 85.4174 65.1685 85.2254 64.9578 85.0395C64.7471 84.8536 64.4559 84.6801 64.0965 84.5933C63.7371 84.5004 63.322 84.5066 62.9069 84.6057C62.0766 84.804 61.4631 85.2997 61.0604 85.6591C60.6638 86.0247 60.447 86.2849 60.4594 86.2973L60.4656 86.3035Z" fill="#FF9A6C"/>
<path d="M60.5707 83.2477C60.5707 83.2477 60.9053 83.1362 61.401 82.876C61.6489 82.752 61.9463 82.5971 62.2871 82.467C62.6279 82.3369 63.0182 82.2254 63.4334 82.1448C63.8485 82.0643 64.2513 82.0457 64.6045 82.1076C64.9576 82.1696 65.2613 82.3059 65.4781 82.467C65.9304 82.7892 66.0296 83.1486 66.0606 83.13C66.0668 83.13 66.0606 83.0371 65.9862 82.8946C65.9181 82.752 65.7817 82.5538 65.5525 82.3741C65.3294 82.1944 65.0072 82.0333 64.6292 81.9589C64.2513 81.8846 63.8237 81.9032 63.3962 81.9837C62.9687 82.0705 62.5783 82.1882 62.2251 82.3307C61.8781 82.4732 61.5807 82.6405 61.3391 82.783C60.8558 83.0681 60.5584 83.2415 60.5645 83.2601L60.5707 83.2477Z" fill="#FF9A6C"/>
<path d="M77.1765 103.138C77.1022 103.132 77.5731 102.073 77.2881 100.338C77.1455 99.4826 76.8109 98.4912 76.2347 97.4998C75.6585 96.5084 74.8344 95.5356 73.874 94.6062C72.9136 93.6768 71.9222 92.8713 71.0423 92.1092C70.1562 91.347 69.3879 90.6283 68.7869 89.9839C68.1859 89.3333 67.7521 88.757 67.4857 88.3419C67.2193 87.9267 67.1015 87.6789 67.1139 87.6665C67.1325 87.6541 67.2812 87.8834 67.5786 88.2737C67.8699 88.6641 68.3222 89.2093 68.9356 89.8352C69.549 90.461 70.3297 91.1549 71.2158 91.8985C72.1018 92.6482 73.0994 93.4537 74.0722 94.3956C75.045 95.3374 75.8815 96.335 76.464 97.3635C77.0464 98.3921 77.3686 99.4207 77.4925 100.307C77.6103 101.193 77.5359 101.924 77.4244 102.407C77.3686 102.649 77.3128 102.835 77.2633 102.952C77.2199 103.076 77.1889 103.138 77.1765 103.132V103.138Z" fill="#FF9A6C"/>
<path d="M58.8021 37.5123C59.4726 40.031 58.8293 45.1137 55.4318 43.3017C52.0343 41.4897 57.6425 33.1816 58.8021 37.5123Z" fill="#263238"/>
<path d="M40.8199 40.2636C40.1585 46.6328 39.4518 50.3292 42.1064 54.062C46.1019 59.6792 54.3917 58.0031 56.9467 51.951C59.2479 46.4969 59.9365 37.002 54.1562 33.523C48.4665 30.0983 41.4722 33.8944 40.8108 40.2636H40.8199Z" fill="#FFBF9D"/>
<path d="M44.2373 55.7812C50.4335 57.0205 55.0806 54.542 55.0806 54.542L55.0684 56.0206C49.5041 58.8793 44.2373 55.7812 44.2373 55.7812Z" fill="#FBAD84"/>
<path d="M45.3846 36.8247L45.6926 29.6945C45.6926 29.6945 38.1275 28.8066 38.2906 32.7024C33.9962 34.605 35.6994 41.2369 41.2079 44.6887C44.4061 42.3422 44.3155 36.3626 44.3155 36.3626C44.6417 36.5257 45.0041 36.6797 45.3755 36.8337L45.3846 36.8247Z" fill="#263238"/>
<path d="M37.4573 44.9513C37.6928 46.6546 38.6985 48.0861 39.8491 48.9196C41.5796 50.1699 43.1922 48.7928 43.3463 46.7815C43.4822 44.9695 42.7483 42.1337 40.7098 41.6807C38.7075 41.2367 37.1945 42.9944 37.4663 44.9513H37.4573Z" fill="#FFBF9D"/>
<path d="M50.0686 43.3564C49.9871 43.8728 50.1864 44.3258 50.5216 44.3802C50.8569 44.4345 51.2011 44.0631 51.2827 43.5466C51.3642 43.0302 51.1649 42.5772 50.8297 42.5229C50.4945 42.4685 50.1502 42.84 50.0686 43.3564Z" fill="#263238"/>
<path d="M55.8852 44.2626C55.8036 44.7791 56.0029 45.232 56.3382 45.2864C56.6734 45.3408 57.0177 44.9693 57.0992 44.4529C57.1807 43.9365 56.9814 43.4835 56.6462 43.4291C56.311 43.3747 55.9667 43.7462 55.8852 44.2626Z" fill="#263238"/>
<path d="M53.2217 49.5176C53.2217 49.4757 53.6677 49.4244 54.3958 49.3684C54.5778 49.3591 54.7553 49.3311 54.7917 49.2053C54.8418 49.0747 54.778 48.8649 54.7007 48.6412C54.5551 48.1796 54.4003 47.6947 54.2411 47.1866C53.6039 45.1119 53.1534 43.4149 53.2353 43.387C53.3172 43.3637 53.8997 45.0187 54.5414 47.0933C54.6961 47.6062 54.8418 48.091 54.9783 48.5572C55.0374 48.7717 55.1421 49.0235 55.0329 49.2985C54.9783 49.4337 54.8372 49.527 54.7189 49.5549C54.6006 49.5829 54.4959 49.5829 54.4049 49.5829C53.6768 49.5829 53.2262 49.5596 53.2262 49.5176H53.2217Z" fill="#263238"/>
<path d="M52.3939 51.9475C52.6545 51.9776 52.9238 51.9884 53.2139 51.9873C53.3139 51.9835 53.4057 51.9167 53.4062 51.8345C53.4177 51.7507 53.3303 51.6798 53.2304 51.6837C50.4404 51.6892 49.2615 50.088 49.2482 50.0715C49.195 50.0053 49.0806 49.9836 48.9974 50.0309C48.9033 50.0797 48.882 50.1738 48.9242 50.2414C48.9665 50.309 49.9931 51.6833 52.3829 51.9489L52.3939 51.9475Z" fill="#263238"/>
<path d="M48.4879 41.0827C48.5876 41.1099 48.7053 41.0827 48.7869 41.0102C49.7835 40.068 50.8797 40.3036 50.8888 40.3036C51.0519 40.3398 51.215 40.2401 51.2603 40.0771C51.2965 39.914 51.1968 39.7509 51.0338 39.7147C50.9794 39.6966 49.5932 39.4066 48.3611 40.5754C48.2342 40.6931 48.2342 40.8834 48.352 41.0102C48.3882 41.0465 48.4335 41.0737 48.4879 41.0918V41.0827Z" fill="#263238"/>
<path d="M58.2159 42.7197C58.2703 42.7378 58.3337 42.7378 58.3971 42.7197C58.5602 42.6744 58.6508 42.5023 58.6055 42.3392C58.1253 40.7175 56.7754 40.3279 56.712 40.3007C56.5489 40.2554 56.3768 40.346 56.3315 40.5091C56.2862 40.6722 56.3768 40.8352 56.5399 40.8896C56.5942 40.9077 57.6361 41.2248 58.0257 42.5204C58.0529 42.6201 58.1344 42.6925 58.2341 42.7197H58.2159Z" fill="#263238"/>
<path d="M38.2995 32.6928C38.2995 32.6928 34.3856 28.8061 47.6676 29.1594C60.9586 29.5128 63.1602 36.9601 57.0718 38.6815L56.791 37.4674C56.791 37.4674 53.6653 39.2976 49.9779 37.8117L50.9382 37.2138C50.9382 37.2138 41.8782 38.1469 38.2905 32.6838L38.2995 32.6928Z" fill="#263238"/>
<g clip-path="url(#clip1_351_2382)">
<g opacity="0.7">
<path d="M169.045 54.8691C158.78 54.8691 150.456 63.191 150.456 73.4569C150.456 83.7228 158.779 92.0446 169.045 92.0446C179.312 92.0446 187.634 83.7228 187.634 73.4569C187.634 63.191 179.312 54.8691 169.045 54.8691ZM169.045 60.4271C170.676 60.427 172.239 61.0746 173.393 62.2276C174.546 63.3805 175.194 64.9443 175.194 66.575C175.194 68.2056 174.546 69.7695 173.393 70.9226C172.24 72.0757 170.676 72.7235 169.046 72.7237C167.415 72.7238 165.851 72.0761 164.698 70.9232C163.545 69.7702 162.897 68.2064 162.897 66.5758C162.897 64.9452 163.545 63.3813 164.698 62.2282C165.851 61.0751 167.414 60.4272 169.045 60.4271ZM169.041 87.1848C165.784 87.1884 162.632 86.0264 160.157 83.909C159.869 83.6632 159.638 83.3579 159.479 83.0141C159.32 82.6703 159.238 82.2962 159.238 81.9175C159.238 78.4743 162.025 75.7186 165.469 75.7186H172.623C176.068 75.7186 178.844 78.4743 178.844 81.9175C178.844 82.296 178.762 82.6701 178.603 83.0138C178.445 83.3575 178.213 83.6627 177.925 83.9081C175.45 86.0265 172.299 87.1888 169.041 87.1848Z" fill="#329CD7"/>
</g>
</g>
<path d="M241.842 221.815C241.301 222.869 240.19 223.54 239.039 223.824C237.889 224.107 236.684 224.053 235.5 223.986C232.103 223.795 228.687 223.515 225.306 223.904C223.264 224.138 221.258 224.615 219.248 225.052C217.574 225.416 215.678 225.713 214.274 224.733C213.363 224.099 212.853 223.046 212.381 222.042C211.89 220.997 211.412 219.713 212.056 218.754C212.645 217.877 213.864 217.755 214.921 217.718C220.757 217.515 226.621 217.315 232.42 218.003C234.587 218.26 236.801 218.639 238.93 218.161C240.044 217.911 240.972 217.706 241.552 218.816C242.07 219.804 242.396 220.737 241.842 221.815Z" fill="#6874B6"/>
<path d="M216.808 227.66C217.751 227.188 218.741 226.122 218.254 225.029C217.854 224.13 216.826 223.612 215.943 223.367C215.408 223.218 214.825 223.156 214.379 222.826C213.755 222.363 213.581 221.521 213.191 220.85C212.454 219.584 210.945 218.963 209.494 218.771C208.041 218.58 206.561 218.729 205.105 218.569C204.031 218.451 202.926 218.167 201.892 218.48C201.046 218.737 200.331 219.376 199.456 219.499C199.124 219.546 198.773 219.518 198.467 219.658C197.827 219.954 197.713 220.801 197.704 221.506C197.675 223.862 197.824 226.222 198.15 228.556C198.171 228.699 198.193 228.847 198.266 228.971C198.473 229.321 198.964 229.338 199.371 229.312C201.416 229.177 203.461 229.02 205.504 228.86C208.45 228.632 211.394 228.404 214.34 228.175C215.183 228.109 216.051 228.037 216.808 227.659V227.66Z" fill="#EFC840"/>
<path d="M213.066 226.914C212.303 226.762 211.509 226.809 210.754 226.627C209.726 226.378 208.78 225.711 207.723 225.758C206.576 225.809 205.627 226.691 204.503 226.931C203.386 227.169 202.141 226.767 201.128 227.293C200.448 227.645 200.02 228.365 199.837 229.109C199.654 229.853 199.687 230.629 199.72 231.393C199.746 232.013 199.814 232.713 200.3 233.098C200.6 233.335 200.998 233.395 201.376 233.449C204.508 233.886 207.722 234.32 210.803 233.608C212.1 233.308 213.439 232.735 214.122 231.592C214.69 230.642 214.636 229.562 214.687 228.499C214.734 227.533 213.971 227.094 213.066 226.914Z" fill="#E0A134"/>
<path d="M239.499 221.665C238.82 221.797 238.196 222.123 237.538 222.335C236.129 222.791 234.612 222.719 233.134 222.645C231.051 222.538 228.966 222.431 226.883 222.325C225.359 222.247 223.793 222.174 222.347 222.662C221.12 223.077 220.055 223.873 218.855 224.359C217.918 224.739 216.902 224.929 216.008 225.402C214.389 226.254 213.314 228.047 213.325 229.876C215.829 230.59 218.442 230.82 221.036 231.047C226.496 231.525 231.995 232.003 237.445 231.421C238.496 231.309 239.659 231.091 240.282 230.237C240.699 229.666 240.782 228.925 240.851 228.22C240.851 226.745 241.145 225.21 241.288 223.741C241.345 223.162 241.663 222.298 241.145 221.918C240.691 221.585 240.031 221.563 239.5 221.665H239.499Z" fill="#D79291"/>
<path d="M238.746 228.571C237.955 228.374 237.196 228.548 236.423 228.497C235.645 228.446 234.942 227.836 234.251 227.53C232.874 226.924 231.292 227.088 229.807 227.332C228.322 227.574 226.794 227.884 225.331 227.535C224.541 227.346 223.81 226.974 223.049 226.696C222.287 226.418 221.451 226.235 220.668 226.443C219.984 226.624 219.391 227.089 218.694 227.206C218.003 227.323 217.292 227.085 216.595 227.168C215.836 227.257 215.18 227.713 214.557 228.156C213.645 228.612 212.777 229.412 211.948 230.008C211.211 230.539 210.564 231.261 210.077 232.03C212.366 233.43 214.667 234.839 217.155 235.844C219.643 236.848 222.35 237.44 225.016 237.137C227.678 236.836 230.181 235.664 232.84 235.341C234.158 235.181 235.531 235.225 236.758 234.717C238.535 233.98 242.157 229.421 238.746 228.57V228.571Z" fill="#BA563F"/>
<path d="M223.133 234.146C222.251 233.805 221.286 233.707 220.422 233.321C219.247 232.795 218.327 231.764 217.098 231.383C215.902 231.012 214.61 231.314 213.36 231.24C212.262 231.174 211.189 230.816 210.09 230.835C208.998 230.854 207.951 231.245 206.873 231.417C205.196 231.684 203.44 231.425 201.815 231.918C201.378 232.051 200.93 232.257 200.686 232.641C200.403 233.087 200.454 233.66 200.514 234.185C200.711 235.888 200.908 237.594 201.258 239.274C201.419 240.043 201.635 240.849 202.201 241.395C202.777 241.95 203.61 242.131 204.402 242.247C207.871 242.757 211.403 242.476 214.907 242.611C216.088 242.656 217.27 242.748 218.448 242.65C219.625 242.551 220.814 242.248 221.78 241.57C223.095 240.649 223.838 239.167 224.379 237.699C224.619 237.049 225.078 236.227 224.781 235.552C224.484 234.874 223.801 234.406 223.132 234.147L223.133 234.146Z" fill="#6874B6"/>
<path d="M225.957 203.803C225.316 203.052 224.341 202.511 223.363 202.651C222.426 202.786 221.667 203.5 220.749 203.73C219.704 203.992 218.615 203.595 217.538 203.582C216.253 203.566 215.025 204.097 213.749 204.25C210.746 204.613 207.684 202.885 204.759 203.657C202.49 204.256 200.878 206.215 199.487 208.105C198.346 209.659 197.192 211.42 197.359 213.341C202.551 213.875 207.786 213.778 213.005 213.682C215.598 213.634 218.189 213.585 220.783 213.537C221.927 213.515 223.116 213.484 224.14 212.973C225.256 212.416 226.044 211.343 226.509 210.185C226.919 209.165 227.375 207.703 227.313 206.591C227.26 205.662 226.548 204.493 225.957 203.802V203.803Z" fill="#FF8382"/>
<path d="M201.636 210.737C201.636 210.737 201.649 210.737 201.656 210.737C201.746 210.725 201.808 210.645 201.797 210.555C201.664 209.493 202.227 208.336 203.231 207.607C204.065 207 205.182 206.66 206.549 206.593C207.368 206.553 208.204 206.609 209.012 206.663C209.382 206.688 209.765 206.712 210.144 206.728C210.889 206.761 211.648 206.758 212.38 206.755C213.077 206.752 213.798 206.749 214.504 206.777C214.779 206.787 215.054 206.803 215.33 206.818C216.448 206.879 217.606 206.943 218.723 206.696C219.226 206.585 219.715 206.411 220.189 206.245C220.755 206.044 221.339 205.838 221.933 205.745C222.928 205.587 224.213 205.853 224.678 206.807C224.718 206.888 224.816 206.921 224.895 206.882C224.975 206.842 225.009 206.746 224.969 206.666C224.431 205.562 222.991 205.249 221.88 205.425C221.258 205.522 220.658 205.734 220.079 205.939C219.615 206.103 219.134 206.274 218.651 206.381C217.578 206.617 216.442 206.555 215.346 206.495C215.068 206.48 214.792 206.464 214.516 206.454C213.802 206.426 213.079 206.429 212.377 206.432C211.649 206.435 210.895 206.438 210.157 206.407C209.783 206.391 209.402 206.366 209.034 206.341C208.215 206.287 207.371 206.23 206.533 206.271C205.102 206.341 203.927 206.702 203.039 207.347C201.941 208.145 201.328 209.421 201.475 210.599C201.485 210.681 201.556 210.741 201.636 210.741V210.737Z" fill="#C26460"/>
<path d="M209.891 213.507C209.983 213.507 210.073 213.504 210.166 213.5C211.325 213.438 212.439 212.96 213.422 212.538C213.969 212.303 214.649 212.01 215.029 211.42C215.141 211.244 215.22 211.054 215.298 210.869C215.409 210.601 215.514 210.348 215.706 210.171C215.836 210.051 216.005 209.964 216.185 209.872C216.491 209.715 216.805 209.553 216.944 209.209C217.061 208.917 217.001 208.557 216.786 208.271C216.625 208.058 216.385 207.884 216.055 207.742C214.856 207.226 213.485 207.487 212.424 207.773C212.218 207.828 212.012 207.887 211.804 207.945C210.876 208.21 209.92 208.483 208.961 208.433C208.66 208.417 208.351 208.369 208.055 208.324C207.837 208.29 207.612 208.253 207.387 208.232C206.71 208.161 206.169 208.233 205.735 208.448C205.155 208.736 204.789 209.306 204.826 209.867C204.832 209.956 204.91 210.022 204.998 210.019C205.087 210.013 205.156 209.936 205.15 209.847C205.122 209.421 205.422 208.965 205.88 208.739C206.257 208.552 206.739 208.492 207.353 208.555C207.569 208.576 207.79 208.612 208.005 208.645C208.311 208.693 208.626 208.743 208.945 208.759C209.955 208.81 210.94 208.53 211.893 208.259C212.098 208.201 212.303 208.142 212.509 208.088C213.519 207.816 214.82 207.566 215.926 208.043C216.203 208.161 216.399 208.302 216.526 208.47C216.671 208.663 216.717 208.907 216.643 209.091C216.549 209.322 216.301 209.451 216.038 209.587C215.846 209.685 215.649 209.787 215.486 209.937C215.244 210.163 215.12 210.461 215 210.749C214.925 210.929 214.855 211.098 214.759 211.249C214.433 211.756 213.802 212.026 213.297 212.244C212.292 212.677 211.253 213.123 210.151 213.181C209.297 213.226 208.387 213.047 207.207 212.598C206.84 212.459 206.47 212.303 206.113 212.152C205.535 211.908 204.935 211.656 204.324 211.462C203.947 211.342 203.466 211.237 203.091 211.494C202.861 211.652 202.743 211.898 202.629 212.134C202.517 212.365 202.412 212.583 202.219 212.667C202.137 212.703 202.099 212.798 202.136 212.88C202.173 212.962 202.268 213 202.349 212.963C202.652 212.83 202.794 212.535 202.921 212.275C203.022 212.067 203.115 211.87 203.275 211.76C203.533 211.582 203.919 211.671 204.226 211.769C204.824 211.959 205.416 212.209 205.989 212.449C206.349 212.601 206.722 212.757 207.093 212.898C208.194 213.316 209.072 213.509 209.895 213.509L209.891 213.507Z" fill="#C26460"/>
<path d="M241.304 209.917C240.425 209.566 239.429 209.565 238.579 209.149C237.397 208.571 236.685 207.281 235.502 206.699C234.011 205.964 232.219 206.539 230.574 206.296C229.282 206.106 228.051 205.404 226.752 205.536C225.837 205.628 225.018 206.126 224.245 206.625C222.641 207.66 221.08 208.759 219.564 209.92C218.94 210.398 218.316 210.893 217.832 211.513C217.35 212.134 217.013 212.902 217.047 213.687C225.346 214.108 233.66 214.194 241.966 213.957C242.34 213.947 242.728 213.932 243.068 213.777C244.811 212.99 242.294 210.312 241.301 209.915L241.304 209.917Z" fill="#BA563F"/>
<path d="M237.191 213.483C237.239 213.483 237.289 213.461 237.319 213.418C237.854 212.717 237.718 211.617 237.027 211.068C236.822 210.905 236.591 210.797 236.366 210.693C236.233 210.632 236.108 210.572 235.986 210.503C235.574 210.267 235.248 209.922 234.902 209.555C234.78 209.426 234.655 209.293 234.527 209.167C233.779 208.431 232.862 207.853 231.874 207.498C231.534 207.375 231.133 207.268 230.753 207.407C230.541 207.485 230.377 207.624 230.218 207.758C230.098 207.859 229.986 207.955 229.858 208.018C229.464 208.219 229.002 208.093 228.512 207.96C228.046 207.833 227.563 207.703 227.091 207.841C226.552 207.999 226.147 208.523 226.129 209.085C226.112 209.648 226.483 210.195 227.012 210.385C227.097 210.416 227.189 210.372 227.22 210.287C227.251 210.202 227.207 210.11 227.122 210.079C226.727 209.938 226.439 209.514 226.452 209.094C226.466 208.675 226.778 208.27 227.18 208.151C227.565 208.039 227.983 208.151 228.426 208.273C228.952 208.416 229.497 208.564 230.003 208.308C230.162 208.227 230.297 208.115 230.426 208.005C230.569 207.884 230.705 207.768 230.863 207.711C231.145 207.609 231.477 207.7 231.763 207.803C232.707 208.143 233.583 208.695 234.298 209.398C234.422 209.521 234.543 209.65 234.665 209.777C235.011 210.144 235.371 210.524 235.823 210.784C235.956 210.86 236.093 210.924 236.226 210.987C236.442 211.088 236.647 211.183 236.821 211.322C237.369 211.759 237.482 212.664 237.058 213.221C237.004 213.292 237.017 213.393 237.088 213.449C237.118 213.471 237.153 213.483 237.186 213.483H237.191Z" fill="#A13D29"/>
<path d="M229.789 213.006C229.833 213.006 229.876 212.989 229.908 212.955C230.279 212.559 230.166 211.914 229.829 211.562C229.532 211.253 229.069 211.09 228.522 211.098C228.211 211.104 227.905 211.161 227.61 211.215C227.481 211.239 227.351 211.264 227.221 211.283C226.475 211.395 225.835 211.335 225.318 211.103C224.707 210.828 224.273 210.281 224.214 209.71C224.15 209.09 224.584 208.47 225.141 208.384C225.23 208.371 225.29 208.287 225.277 208.198C225.264 208.109 225.182 208.049 225.091 208.062C224.357 208.176 223.808 208.945 223.891 209.742C223.961 210.428 224.47 211.078 225.185 211.398C225.761 211.657 226.462 211.726 227.271 211.601C227.404 211.581 227.537 211.556 227.67 211.531C227.965 211.476 228.244 211.424 228.528 211.419C228.789 211.413 229.279 211.455 229.593 211.783C229.824 212.022 229.912 212.471 229.669 212.73C229.608 212.796 229.611 212.898 229.677 212.959C229.707 212.989 229.748 213.003 229.788 213.003L229.789 213.006Z" fill="#A13D29"/>
<path d="M237.545 232.394C236.294 232.97 234.783 232.363 233.463 232.76C232.778 232.966 232.201 233.428 231.54 233.701C230.625 234.082 229.605 234.085 228.618 234.183C227.627 234.283 226.651 234.482 225.674 234.68C224.313 234.958 222.951 235.236 221.59 235.512C220.983 235.635 220.356 235.769 219.862 236.142C219.466 236.442 219.191 236.87 218.848 237.228C218.343 237.752 217.702 238.114 217.099 238.52C216.497 238.927 215.909 239.408 215.602 240.067C215.297 240.726 215.352 241.6 215.902 242.074C216.282 242.402 216.811 242.48 217.31 242.539C223.43 243.252 229.619 242.736 235.759 242.22C236.44 242.163 237.148 242.097 237.735 241.75C238.571 241.255 239 240.297 239.324 239.381C239.887 237.79 240.289 236.141 240.522 234.47C240.656 233.509 241.217 231.557 239.76 231.412C238.865 231.323 238.289 232.052 237.542 232.396L237.545 232.394Z" fill="#E1CCC1"/>
<path d="M245.489 215.863C245.489 215.863 242.878 240.171 238.836 242.222C235.398 243.968 224.665 244.273 220.28 244.326C215.893 244.273 205.161 243.969 201.723 242.222C197.681 240.17 195.07 215.863 195.07 215.863H245.489ZM235.335 241.477C236.399 241.667 237.418 240.959 237.608 239.895L240.849 221.845C241.039 220.781 240.331 219.762 239.267 219.572C238.203 219.38 237.186 220.089 236.994 221.153L233.753 239.205C233.562 240.269 234.269 241.287 235.335 241.478V241.477ZM230.35 241.477C231.428 241.563 232.372 240.759 232.458 239.68L233.923 221.399C234.009 220.32 233.205 219.376 232.128 219.291C231.051 219.205 230.106 220.009 230.019 221.086L228.554 239.367C228.468 240.445 229.272 241.389 230.35 241.477ZM225.62 241.477C226.702 241.502 227.599 240.646 227.624 239.565L228.06 221.23C228.086 220.148 227.229 219.252 226.148 219.225C225.066 219.201 224.17 220.056 224.144 221.137L223.708 239.471C223.682 240.553 224.537 241.45 225.619 241.475L225.62 241.477ZM218.321 239.518C218.321 240.6 219.198 241.477 220.28 241.477C221.362 241.477 222.237 240.6 222.237 239.518V221.178C222.237 220.097 221.36 219.22 220.28 219.22C219.2 219.22 218.321 220.097 218.321 221.178V239.518ZM212.935 239.565C212.961 240.646 213.857 241.502 214.939 241.477C216.02 241.45 216.876 240.553 216.849 239.473L216.414 221.139C216.387 220.057 215.491 219.202 214.41 219.227C213.328 219.253 212.473 220.149 212.498 221.231L212.933 239.566L212.935 239.565ZM210.208 241.477C211.286 241.39 212.091 240.446 212.005 239.367L210.54 221.086C210.454 220.009 209.51 219.205 208.431 219.291C207.354 219.377 206.548 220.322 206.636 221.399L208.1 239.68C208.187 240.759 209.131 241.563 210.208 241.477ZM202.951 239.895C203.141 240.959 204.159 241.668 205.224 241.477C206.288 241.285 206.997 240.268 206.805 239.204L203.565 221.152C203.373 220.088 202.356 219.379 201.291 219.57C200.227 219.76 199.518 220.779 199.71 221.843L202.951 239.894V239.895Z" fill="#7A93D9"/>
<path d="M192.832 214.589V214.154C192.832 213.107 193.681 212.258 194.728 212.258H245.831C246.878 212.258 247.727 213.107 247.727 214.154V214.589C247.727 215.636 246.878 216.485 245.831 216.485H194.728C193.681 216.485 192.832 215.636 192.832 214.589Z" fill="#9CB4EC"/>
<path d="M202.464 218.231C202.474 219.156 202.615 220.007 202.93 220.672C203.189 221.219 203.787 221.827 204.565 222.388C205.925 223.37 207.835 224.215 209.432 224.354C210.716 224.468 211.8 224.125 212.237 223.037C212.561 222.233 212.313 221.483 211.882 220.844C211.431 220.172 210.776 219.622 210.374 219.258C208.772 217.807 208.239 216.787 209.179 213.935C209.181 213.93 209.182 213.924 209.184 213.918C209.238 213.753 209.847 212.202 210.093 212.254C207.475 211.208 205.601 210.989 203.866 212.262C203.676 212.625 203.495 213.034 203.332 213.476C202.8 214.91 202.446 216.675 202.464 218.234V218.231Z" fill="#D79291"/>
<path d="M203.333 213.472C203.773 213.365 204.22 213.291 204.672 213.25C206.018 213.127 207.377 213.303 208.651 213.75C208.82 213.81 208.999 213.883 209.18 213.933C209.181 213.928 209.183 213.922 209.184 213.917C209.238 213.751 209.848 212.2 210.093 212.252C207.475 211.206 205.601 210.987 203.866 212.26C203.676 212.623 203.495 213.032 203.333 213.474V213.472Z" fill="#C26460"/>
<path d="M202.464 218.23C202.474 219.156 202.615 220.007 202.931 220.672C203.189 221.218 203.787 221.826 204.565 222.388C204.98 221.585 204.995 220.58 204.588 219.771C204.179 218.96 203.36 218.374 202.466 218.232L202.464 218.23Z" fill="#C26460"/>
<path d="M209.434 224.352C210.717 224.466 211.802 224.122 212.239 223.034C212.562 222.23 212.315 221.481 211.884 220.842C211.454 220.985 211.04 221.406 210.767 221.688C210.067 222.412 209.587 223.355 209.434 224.352Z" fill="#C26460"/>
<path d="M245.582 216.708C244.433 216.766 243.27 216.7 242.119 216.687C240.991 216.674 239.862 216.664 238.734 216.657C236.475 216.642 234.217 216.639 231.959 216.642C227.383 216.648 222.808 216.671 218.232 216.676C215.568 216.678 212.903 216.676 210.238 216.661C210.042 216.661 210.042 216.355 210.238 216.357C214.926 216.385 219.612 216.366 224.3 216.347C228.835 216.328 233.369 216.31 237.904 216.333C239.171 216.341 240.437 216.35 241.704 216.364C242.35 216.371 242.995 216.38 243.641 216.389C244.287 216.399 244.938 216.396 245.581 216.452C245.743 216.467 245.746 216.699 245.581 216.706L245.582 216.708Z" fill="#5973BD"/>
<path d="M241.077 221.947C240.937 223.158 240.713 224.356 240.511 225.556C240.311 226.752 240.111 227.946 239.906 229.141C239.495 231.537 239.06 233.928 238.566 236.306C238.425 236.983 238.281 237.658 238.129 238.332C237.977 239.008 237.838 239.692 237.639 240.355C237.579 240.559 237.287 240.472 237.325 240.269C237.553 239.074 237.87 237.892 238.123 236.702C238.374 235.518 238.611 234.331 238.836 233.142C239.288 230.753 239.697 228.357 240.117 225.964C240.354 224.613 240.563 223.254 240.886 221.921C240.911 221.819 241.087 221.838 241.074 221.946L241.077 221.947Z" fill="#5973BD"/>
<path d="M234.142 221.235C234.112 222.445 234.012 223.651 233.93 224.859C233.85 226.06 233.767 227.263 233.682 228.465C233.515 230.836 233.334 233.207 233.105 235.573C232.972 236.945 232.821 238.313 232.64 239.68C232.609 239.908 232.248 239.914 232.276 239.68C232.564 237.269 232.803 234.854 232.999 232.437C233.192 230.054 233.35 227.67 233.53 225.285C233.632 223.923 233.717 222.558 233.901 221.203C233.92 221.065 234.144 221.1 234.141 221.235H234.142Z" fill="#5973BD"/>
<path d="M228.185 220.939C228.256 222.158 228.188 223.391 228.169 224.611C228.15 225.819 228.125 227.028 228.099 228.235C228.048 230.65 227.978 233.065 227.915 235.48C227.88 236.842 227.845 238.203 227.81 239.565C227.804 239.802 227.436 239.804 227.441 239.565C227.493 237.161 227.561 234.756 227.626 232.35C227.69 229.928 227.754 227.506 227.816 225.083C227.833 224.393 227.849 223.703 227.865 223.013C227.881 222.322 227.881 221.629 227.94 220.941C227.953 220.784 228.177 220.781 228.185 220.941V220.939Z" fill="#5973BD"/>
<path d="M222.34 220.9C222.419 221.483 222.368 222.096 222.366 222.685C222.365 223.302 222.366 223.917 222.366 224.534C222.371 225.736 222.379 226.939 222.391 228.14C222.413 230.552 222.445 232.964 222.452 235.376C222.457 236.756 222.458 238.136 222.432 239.516C222.428 239.767 222.039 239.769 222.04 239.516C222.053 237.091 222.059 234.666 222.045 232.241C222.03 229.829 222.005 227.417 222.007 225.005C222.007 224.316 222.01 223.629 222.015 222.941C222.018 222.601 222.021 222.262 222.024 221.923C222.029 221.583 222.018 221.239 222.074 220.901C222.094 220.771 222.322 220.768 222.34 220.901V220.9Z" fill="#5973BD"/>
<path d="M216.471 221.064C216.548 221.655 216.558 222.257 216.585 222.852C216.611 223.45 216.637 224.048 216.664 224.646C216.716 225.846 216.77 227.046 216.813 228.246C216.898 230.649 216.971 233.053 217.009 235.457C217.029 236.795 217.045 238.132 217.036 239.47C217.035 239.71 216.665 239.71 216.664 239.47C216.63 234.669 216.496 229.873 216.339 225.076C216.317 224.406 216.295 223.735 216.272 223.066C216.25 222.401 216.203 221.728 216.24 221.063C216.249 220.91 216.453 220.918 216.472 221.063L216.471 221.064Z" fill="#5973BD"/>
<path d="M210.953 224.764C211.281 226.619 211.409 228.515 211.545 230.392C211.683 232.314 211.786 234.238 211.923 236.16C211.999 237.23 212.087 238.299 212.191 239.366C212.214 239.606 211.843 239.603 211.818 239.366C211.423 235.58 211.295 231.769 210.999 227.974C210.916 226.913 210.805 225.856 210.719 224.795C210.708 224.662 210.931 224.63 210.954 224.763L210.953 224.764Z" fill="#5973BD"/>
<path d="M203.693 221.838C204.268 224.06 204.665 226.333 205.091 228.588C205.516 230.843 205.908 233.106 206.311 235.366C206.542 236.66 206.778 237.953 207.01 239.245C207.054 239.488 206.684 239.593 206.637 239.348C205.782 234.813 205.044 230.257 204.185 225.722C203.943 224.449 203.677 223.179 203.461 221.901C203.436 221.751 203.654 221.684 203.693 221.837V221.838Z" fill="#5973BD"/>
<path d="M246.132 215.845C244.74 215.92 243.343 215.834 241.951 215.781C241.26 215.755 240.57 215.723 239.878 215.693C239.539 215.679 239.2 215.664 238.861 215.648C238.529 215.634 238.121 215.669 237.807 215.552C237.688 215.508 237.671 215.331 237.807 215.293C238.131 215.204 238.528 215.272 238.861 215.287C239.2 215.302 239.539 215.318 239.878 215.332C240.581 215.365 241.284 215.395 241.988 215.43C243.375 215.501 244.771 215.541 246.146 215.737C246.211 215.746 246.19 215.843 246.132 215.845Z" fill="#5973BD"/>
<path d="M237.262 215.525C237.184 215.516 237.106 215.509 237.028 215.5C236.939 215.49 236.85 215.48 236.765 215.452C236.72 215.437 236.671 215.399 236.663 215.35C236.655 215.307 236.657 215.275 236.677 215.237C236.702 215.193 236.753 215.163 236.804 215.164C236.972 215.168 237.136 215.217 237.3 215.255C237.367 215.269 237.408 215.341 237.399 215.407C237.391 215.468 237.332 215.534 237.263 215.527L237.262 215.525Z" fill="#5973BD"/>
<path d="M198.801 213.198C197.644 213.225 196.491 213.22 195.335 213.218C194.852 213.218 194.285 213.182 193.977 213.629C193.651 214.103 193.804 214.648 193.737 215.173C193.718 215.322 193.521 215.364 193.468 215.209C193.293 214.695 193.333 214.022 193.604 213.54C193.879 213.052 194.37 212.882 194.903 212.864C195.544 212.844 196.19 212.873 196.83 212.889C197.489 212.905 198.143 212.951 198.801 213.008C198.919 213.018 198.923 213.193 198.801 213.196V213.198Z" fill="#5973BD"/>
<path d="M193.857 215.561C193.863 215.591 193.869 215.623 193.875 215.654C193.875 215.661 193.877 215.669 193.879 215.678C193.882 215.691 193.883 215.704 193.883 215.717C193.883 215.74 193.876 215.755 193.867 215.775C193.856 215.8 193.835 215.825 193.806 215.833C193.778 215.84 193.746 215.831 193.724 215.814C193.706 215.8 193.693 215.792 193.682 215.771C193.676 215.761 193.671 215.749 193.667 215.737C193.664 215.73 193.663 215.721 193.66 215.714L193.63 215.623C193.626 215.607 193.625 215.593 193.629 215.577C193.629 215.561 193.635 215.546 193.644 215.533C193.651 215.52 193.661 215.508 193.674 215.499C193.686 215.489 193.699 215.482 193.714 215.479C193.744 215.471 193.778 215.473 193.804 215.49C193.829 215.507 193.853 215.531 193.858 215.561H193.857Z" fill="#5973BD"/>
<path d="M241.204 235.609C241.185 236.693 240.956 237.744 240.547 238.748C240.345 239.241 240.102 239.717 239.824 240.17C239.687 240.395 239.539 240.613 239.38 240.825C239.221 241.037 239.056 241.259 238.826 241.395C238.757 241.436 238.643 241.366 238.678 241.281C238.773 241.047 238.933 240.853 239.079 240.648C239.232 240.433 239.38 240.216 239.519 239.992C239.792 239.552 240.028 239.091 240.234 238.616C240.647 237.659 240.916 236.622 241.06 235.59C241.071 235.507 241.207 235.528 241.206 235.609H241.204Z" fill="#5973BD"/>
<path d="M238.352 241.679C238.275 241.74 238.197 241.803 238.118 241.864C238.073 241.901 238.028 241.933 237.978 241.964C237.953 241.98 237.928 241.996 237.901 242.008C237.864 242.024 237.817 242.022 237.779 242.009C237.74 241.996 237.708 241.959 237.709 241.917C237.709 241.885 237.716 241.847 237.734 241.818C237.751 241.788 237.781 241.768 237.807 241.747C237.852 241.709 237.899 241.674 237.949 241.642C238.032 241.588 238.117 241.534 238.2 241.48C238.253 241.446 238.326 241.465 238.364 241.512C238.399 241.557 238.403 241.639 238.354 241.679H238.352Z" fill="#5973BD"/>
<path d="M196.694 219.691C196.935 221.011 197.203 222.326 197.432 223.649C197.663 224.985 197.893 226.321 198.119 227.659C198.244 228.396 198.388 229.141 198.403 229.888C198.405 229.977 198.279 229.989 198.251 229.909C198.045 229.279 197.94 228.616 197.83 227.963C197.717 227.295 197.603 226.626 197.492 225.958C197.273 224.643 197.055 223.328 196.846 222.012C196.726 221.256 196.637 220.496 196.519 219.741C196.501 219.628 196.672 219.577 196.693 219.692L196.694 219.691Z" fill="#5973BD"/>
<path d="M198.655 230.506C198.694 230.762 198.735 231.019 198.774 231.275C198.795 231.403 198.812 231.533 198.83 231.662C198.846 231.786 198.848 231.93 198.802 232.047C198.779 232.106 198.707 232.117 198.671 232.064C198.599 231.963 198.564 231.829 198.549 231.706C198.532 231.574 198.519 231.443 198.505 231.311C198.481 231.053 198.456 230.794 198.429 230.537C198.416 230.409 198.636 230.377 198.656 230.506H198.655Z" fill="#5973BD"/>
<path d="M100.643 218.224C111.411 217.488 122.289 216.904 132.946 218.613C139.913 219.732 136.358 225.501 136.614 229.186C113.325 227.024 98.1549 228.854 97.6795 228.546C97.1892 228.226 97.3026 227.282 97.2632 226.777C96.7286 219.771 96.7655 218.49 100.643 218.224Z" fill="#FF8382"/>
<path d="M98.6106 225.868C98.4751 225.868 98.3519 225.775 98.3199 225.637C98.2829 225.477 98.3839 225.319 98.5441 225.282C105.614 223.688 112.99 223.821 120.121 223.952C124.154 224.026 128.325 224.102 132.397 223.863C132.801 223.839 133.168 223.713 133.311 223.55C133.362 223.491 133.382 223.432 133.377 223.358C133.36 223.134 133.037 222.967 132.771 222.866C131.374 222.338 129.859 222.112 128.428 221.927C119.53 220.769 110.499 220.732 101.594 221.816C101.431 221.836 101.283 221.72 101.264 221.557C101.244 221.395 101.36 221.247 101.522 221.227C110.479 220.138 119.557 220.175 128.507 221.338C129.973 221.528 131.527 221.762 132.983 222.311C133.609 222.548 133.941 222.885 133.973 223.316C133.99 223.548 133.917 223.765 133.761 223.942C133.387 224.371 132.65 224.445 132.434 224.457C128.342 224.696 124.159 224.619 120.114 224.546C113.019 224.417 105.678 224.282 98.6771 225.861C98.6549 225.866 98.6327 225.868 98.6106 225.868Z" fill="#C26460"/>
<path d="M95.0929 235.701C94.3613 234.871 93.6469 233.994 93.2453 232.961C92.8438 231.929 92.7945 230.707 93.3586 229.754C94.2184 228.303 96.1201 227.934 97.7928 227.724C111.295 226.039 125.164 225.477 138.366 228.778C139.474 229.057 140.671 229.424 141.312 230.372C141.839 231.153 141.869 232.188 141.61 233.094C141.351 234.001 140.782 234.799 140.272 235.592L95.0904 235.701H95.0929Z" fill="#E0A134"/>
<path d="M136.161 232.521C135.846 232.521 135.535 232.455 135.267 232.396C122.523 229.602 109.024 229.449 96.2212 231.955C96.0587 231.987 95.9035 231.881 95.8714 231.721C95.8394 231.56 95.9453 231.403 96.1055 231.373C108.987 228.853 122.57 229.006 135.392 231.817C135.784 231.903 136.227 231.999 136.58 231.856C136.74 231.792 136.883 231.627 136.93 231.457C136.959 231.351 136.947 231.265 136.895 231.196C136.801 231.075 136.597 231.021 136.38 230.972C132.648 230.137 128.822 229.558 125.009 229.245C124.846 229.232 124.723 229.087 124.738 228.925C124.75 228.762 124.893 228.639 125.058 228.654C128.899 228.966 132.752 229.55 136.511 230.393C136.76 230.449 137.134 230.533 137.366 230.834C137.531 231.05 137.582 231.326 137.504 231.612C137.41 231.959 137.136 232.272 136.806 232.408C136.595 232.494 136.375 232.526 136.161 232.526V232.521Z" fill="#D27A26"/>
<path d="M89.7792 240.185C89.7595 229.073 135.794 231.701 142.622 235.909C145.83 237.887 145.11 241.545 142.512 242.752C141.378 243.279 142.514 242.949 102.03 243.491C98.6106 243.538 89.7866 244.881 89.7792 240.185Z" fill="#9CA946"/>
<path d="M93.0033 239.85C92.8653 239.85 92.7397 239.752 92.7126 239.611C92.6806 239.451 92.784 239.294 92.9466 239.262C110.57 235.722 122.816 237.062 130.918 237.946C134.864 238.377 137.715 238.69 139.419 238.183C139.833 238.06 140.03 237.803 140.025 237.695C140.023 237.631 139.892 237.535 139.619 237.483C126.279 234.901 115.135 233.849 100.812 236.567C100.652 236.596 100.495 236.49 100.465 236.33C100.435 236.17 100.541 236.012 100.702 235.983C115.115 233.246 126.321 234.305 139.73 236.899C140.503 237.049 140.609 237.486 140.617 237.665C140.639 238.111 140.205 238.567 139.587 238.752C137.769 239.294 134.867 238.976 130.852 238.537C122.786 237.655 110.597 236.323 93.0624 239.845C93.0427 239.85 93.023 239.85 93.0033 239.85Z" fill="#758030"/>
<path d="M180.409 209.351C180.193 208.795 171.355 208.826 171.355 208.826C171.355 208.826 162.516 208.795 162.3 209.351C162.083 209.908 162.021 211.762 162.64 211.854C163.045 211.915 168.003 211.897 171.354 211.876C174.706 211.897 179.663 211.915 180.069 211.854C180.687 211.762 180.625 209.908 180.408 209.351H180.409ZM175.059 211.285C174.508 211.515 174.212 211.454 171.355 211.429C168.498 211.453 168.202 211.515 167.651 211.285C166.885 210.966 166.961 210.164 167.4 210.015C167.82 210.501 168.625 210.384 168.861 209.794C169.214 210.495 170.205 210.445 170.564 209.909C170.766 210.201 171.059 210.347 171.354 210.347C171.649 210.347 171.941 210.201 172.144 209.909C172.504 210.445 173.494 210.495 173.847 209.794C174.084 210.384 174.888 210.501 175.308 210.015C175.747 210.163 175.823 210.965 175.058 211.285H175.059Z" fill="#FF8382"/>
<path d="M171.354 243.513C165.443 243.459 157.054 243.235 156.752 242.389C153.553 233.442 157.051 222.559 159.069 219.814C162.546 215.085 162.638 211.855 162.638 211.855H180.069C180.069 211.855 180.162 215.085 183.638 219.814C185.656 222.558 189.154 233.442 185.956 242.389C185.653 243.234 177.265 243.459 171.353 243.513H171.354Z" fill="#FF8382"/>
<path d="M169.318 228.049C169.318 228.049 159.81 227.895 159.104 229.161C158.399 230.429 157.693 239.793 158.686 240.41C159.394 240.85 165.739 240.993 169.318 241.038C172.897 240.993 179.242 240.85 179.949 240.41C180.942 239.792 180.237 230.428 179.531 229.161C178.826 227.893 169.318 228.049 169.318 228.049Z" fill="#EFDFD6"/>
<path d="M169.318 239.647C164.512 239.586 161.628 239.443 160.194 239.298C159.763 239.255 159.426 238.846 159.399 238.337C159.355 237.517 159.355 236.299 159.459 234.688C159.567 232.995 159.745 231.593 159.9 230.736C159.974 230.333 160.244 230.02 160.587 229.942C161.114 229.824 162.016 229.682 163.533 229.579C165.362 229.454 167.342 229.436 168.36 229.436C168.936 229.436 169.299 229.442 169.301 229.442H169.334C169.334 229.442 169.7 229.436 170.276 229.436C171.293 229.436 173.274 229.454 175.102 229.579C176.62 229.682 177.521 229.824 178.048 229.942C178.392 230.019 178.662 230.331 178.735 230.736C178.891 231.593 179.068 232.995 179.177 234.688C179.279 236.299 179.28 237.517 179.236 238.337C179.209 238.847 178.872 239.256 178.441 239.298C177.007 239.443 174.123 239.586 169.318 239.647Z" fill="#E1CCC1"/>
<path d="M183.314 242.727C183.305 242.727 183.295 242.727 183.285 242.724C183.203 242.708 183.149 242.628 183.166 242.546C185.305 231.913 182.653 226.993 180.714 223.4L180.678 223.333C178.762 219.78 179.307 213.442 179.332 213.173C179.34 213.09 179.412 213.026 179.496 213.036C179.58 213.044 179.641 213.117 179.633 213.2C179.627 213.265 179.072 219.717 180.945 223.19L180.981 223.257C182.94 226.89 185.623 231.866 183.463 242.607C183.448 242.679 183.385 242.729 183.314 242.729V242.727Z" fill="#C26460"/>
<path d="M175.837 233.703H162.7C162.091 233.703 161.597 233.209 161.597 232.6C161.597 231.99 162.091 231.496 162.7 231.496H175.837C176.447 231.496 176.941 231.99 176.941 232.6C176.941 233.209 176.447 233.703 175.837 233.703Z" fill="#D3B9AB"/>
<path d="M162.996 234.762H175.542C176.314 234.762 176.941 235.389 176.941 236.161V236.91C176.941 237.683 176.314 238.31 175.542 238.31H162.996C162.223 238.31 161.596 237.683 161.596 236.91V236.161C161.596 235.389 162.223 234.762 162.996 234.762Z" fill="#D3B9AB"/>
<path d="M162.651 211.93C163.186 212.026 163.743 212.017 164.285 212.035C164.852 212.053 165.419 212.069 165.986 212.079C167.112 212.101 168.238 212.112 169.365 212.114C171.631 212.119 173.896 212.093 176.161 212.057C177.465 212.037 178.768 212.013 180.071 211.991C180.249 211.989 180.249 211.711 180.071 211.715C177.776 211.756 175.481 211.801 173.186 211.826C170.945 211.85 168.705 211.857 166.465 211.822C165.838 211.812 165.211 211.799 164.584 211.786C163.954 211.771 163.303 211.707 162.673 211.77C162.59 211.778 162.554 211.913 162.652 211.93H162.651Z" fill="#C26460"/>
<path d="M160.047 219.76C159.065 221.387 158.388 223.202 157.968 225.054C157.909 225.31 157.858 225.566 157.811 225.825C157.788 225.957 157.766 226.089 157.75 226.222C157.735 226.347 157.702 226.483 157.745 226.605C157.77 226.675 157.852 226.682 157.895 226.625C157.975 226.515 157.985 226.361 158.013 226.23C158.043 226.084 158.07 225.937 158.099 225.79C158.157 225.497 158.22 225.203 158.29 224.912C158.429 224.328 158.596 223.752 158.788 223.184C159.175 222.041 159.669 220.937 160.222 219.865C160.282 219.749 160.115 219.649 160.047 219.763V219.76Z" fill="#C26460"/>
<path d="M157.642 227.365C157.589 227.46 157.549 227.564 157.529 227.671C157.518 227.73 157.517 227.786 157.522 227.845C157.524 227.876 157.527 227.909 157.535 227.939C157.544 227.97 157.565 227.995 157.586 228.018C157.601 228.036 157.63 228.042 157.651 228.036C157.676 228.03 157.688 228.011 157.697 227.99C157.696 227.993 157.697 227.992 157.7 227.985C157.702 227.98 157.703 227.975 157.706 227.971C157.716 227.95 157.718 227.934 157.72 227.91C157.721 227.886 157.722 227.862 157.723 227.837C157.723 227.827 157.724 227.817 157.726 227.808C157.726 227.802 157.727 227.796 157.728 227.788C157.727 227.801 157.727 227.801 157.728 227.788C157.733 227.76 157.736 227.731 157.739 227.702C157.741 227.69 157.741 227.69 157.739 227.702C157.739 227.697 157.741 227.692 157.742 227.687C157.743 227.676 157.746 227.665 157.748 227.654C157.753 227.631 157.758 227.609 157.764 227.588C157.771 227.565 157.778 227.544 157.785 227.523C157.785 227.519 157.8 227.486 157.793 227.502C157.798 227.49 157.804 227.478 157.809 227.466C157.831 227.42 157.823 227.359 157.774 227.333C157.728 227.308 157.668 227.32 157.641 227.368L157.642 227.365Z" fill="#C26460"/>
<path d="M183.832 222.228C184.281 223.104 184.694 224.001 185.007 224.935C185.318 225.859 185.546 226.813 185.685 227.779C185.727 228.062 185.758 228.346 185.786 228.631C185.812 228.895 185.815 229.173 185.877 229.432C185.896 229.508 186.025 229.515 186.039 229.432C186.076 229.198 186.056 228.949 186.04 228.714C186.024 228.464 185.998 228.214 185.967 227.965C185.903 227.475 185.82 226.986 185.71 226.504C185.49 225.532 185.175 224.584 184.779 223.671C184.547 223.14 184.285 222.633 183.977 222.142C183.919 222.05 183.782 222.131 183.832 222.227V222.228Z" fill="#C26460"/>
<path d="M185.957 230.105C185.956 230.183 185.951 230.263 185.952 230.343C185.952 230.381 185.957 230.419 185.962 230.457C185.965 230.486 185.967 230.512 185.983 230.538C185.998 230.562 186.021 230.583 186.05 230.583C186.08 230.583 186.104 230.562 186.118 230.538C186.132 230.512 186.135 230.487 186.139 230.457C186.142 230.419 186.147 230.381 186.149 230.343C186.15 230.264 186.146 230.185 186.144 230.105C186.144 230.057 186.101 230.009 186.05 230.012C185.999 230.014 185.958 230.053 185.957 230.105Z" fill="#C26460"/>
<path d="M156.806 237.176C157.054 238.089 156.812 239.05 156.893 239.979C156.954 240.684 157.184 241.422 157.789 241.847C158.492 242.344 159.49 242.258 160.305 242.287C161.317 242.323 162.329 242.36 163.341 242.396C163.92 242.416 164.498 242.436 165.077 242.457C165.649 242.477 166.241 242.54 166.812 242.484C166.91 242.474 166.954 242.314 166.838 242.295C166.362 242.214 165.869 242.226 165.388 242.209C164.893 242.192 164.396 242.175 163.901 242.157C162.931 242.124 161.959 242.091 160.989 242.059C160.496 242.043 160.005 242.027 159.512 242.009C159.1 241.994 158.677 241.974 158.287 241.829C157.548 241.554 157.233 240.807 157.146 240.072C157.09 239.597 157.126 239.118 157.132 238.641C157.138 238.129 157.101 237.631 156.937 237.142C156.91 237.062 156.785 237.094 156.809 237.177L156.806 237.176Z" fill="#C26460"/>
<path d="M167.693 242.632C167.775 242.632 167.857 242.632 167.938 242.633C167.985 242.633 168.029 242.632 168.075 242.62C168.117 242.609 168.163 242.599 168.193 242.565C168.213 242.542 168.213 242.514 168.193 242.49C168.164 242.456 168.121 242.445 168.08 242.434C168.032 242.421 167.986 242.419 167.938 242.42C167.856 242.42 167.774 242.42 167.693 242.421C167.638 242.421 167.586 242.47 167.588 242.526C167.591 242.583 167.634 242.63 167.693 242.63V242.632Z" fill="#C26460"/>
<path d="M179.675 223.564C180.795 225.511 181.655 227.59 182.115 229.793C182.178 230.098 182.237 230.405 182.289 230.712C182.341 231.022 182.363 231.357 182.455 231.658C182.485 231.756 182.619 231.731 182.628 231.634C182.651 231.357 182.596 231.062 182.56 230.787C182.524 230.511 182.481 230.236 182.427 229.963C182.319 229.405 182.186 228.85 182.027 228.303C181.709 227.215 181.293 226.16 180.784 225.149C180.494 224.573 180.166 224.023 179.802 223.491C179.75 223.414 179.628 223.482 179.677 223.564H179.675Z" fill="#C26460"/>
<path d="M182.603 232.469C182.608 232.574 182.612 232.68 182.618 232.785C182.619 232.809 182.62 232.836 182.623 232.86C182.626 232.894 182.634 232.92 182.645 232.951C182.663 233.002 182.677 233.081 182.746 233.081C182.776 233.081 182.802 233.057 182.814 233.032C182.83 233.002 182.827 232.969 182.834 232.936C182.834 232.945 182.834 232.943 182.837 232.931C182.838 232.925 182.84 232.918 182.84 232.911C182.843 232.894 182.845 232.878 182.844 232.86C182.844 232.836 182.84 232.809 182.838 232.785C182.829 232.679 182.817 232.573 182.806 232.469C182.801 232.415 182.762 232.363 182.702 232.365C182.649 232.368 182.597 232.41 182.599 232.469H182.603Z" fill="#C26460"/>
<path d="M163.015 209.591C162.945 209.768 162.897 209.959 162.886 210.149C162.881 210.245 162.881 210.345 162.9 210.439C162.918 210.533 162.941 210.638 163.022 210.696C163.052 210.717 163.103 210.702 163.119 210.671C163.159 210.591 163.139 210.503 163.135 210.417C163.131 210.327 163.12 210.239 163.12 210.149C163.12 209.974 163.137 209.807 163.187 209.638C163.201 209.592 163.171 209.541 163.125 209.529C163.074 209.515 163.033 209.546 163.015 209.591Z" fill="#C26460"/>
<path d="M186.012 235.341C185.907 236.362 185.831 237.385 185.677 238.4C185.602 238.893 185.513 239.383 185.414 239.872C185.315 240.365 185.153 240.863 185.138 241.367C185.136 241.442 185.248 241.475 185.283 241.406C185.511 240.958 185.587 240.435 185.686 239.947C185.789 239.439 185.875 238.926 185.948 238.413C186.094 237.396 186.207 236.367 186.184 235.34C186.182 235.225 186.021 235.23 186.01 235.34L186.012 235.341Z" fill="#C26460"/>
</g>
<defs>
<filter id="filter0_f_351_2382" x="28.0913" y="23.793" width="260.851" height="222.162" filterUnits="userSpaceOnUse" color-interpolation-filters="sRGB">
<feFlood flood-opacity="0" result="BackgroundImageFix"/>
<feBlend mode="normal" in="SourceGraphic" in2="BackgroundImageFix" result="shape"/>
<feGaussianBlur stdDeviation="1" result="effect1_foregroundBlur_351_2382"/>
</filter>
<clipPath id="clip0_351_2382">
<rect width="272.756" height="229.674" fill="white" transform="translate(14.1859 14.2656)"/>
</clipPath>
<clipPath id="clip1_351_2382">
<rect width="37.1771" height="37.1771" fill="white" transform="translate(150.457 54.8691)"/>
</clipPath>
</defs>
</svg>
